<?xml version="1.0" encoding="UTF-8" standalone="no"?>
<!DOCTYPE svg PUBLIC "-//W3C//DTD SVG 1.1//EN"
 "http://www.w3.org/Graphics/SVG/1.1/DTD/svg11.dtd">
<!-- Generated by graphviz version 3.0.0 (20220315.2325)
 -->
<!-- Title: snakemake_dag Pages: 1 -->
<svg width="299pt" height="381pt"
 viewBox="0.00 0.00 430.00 548.00" xmlns="http://www.w3.org/2000/svg" xmlns:xlink="http://www.w3.org/1999/xlink">
<g id="graph0" class="graph" transform="scale(0.694444 0.694444) rotate(0) translate(4 544)">
<title>snakemake_dag</title>
<polygon fill="white" stroke="transparent" points="-4,4 -4,-544 426,-544 426,4 -4,4"/>
<!-- 0 -->
<g id="node1" class="node">
<title>0</title>
<path fill="none" stroke="#68d856" stroke-width="2" stroke-dasharray="5,2" d="M129,-540C129,-540 37,-540 37,-540 31,-540 25,-534 25,-528 25,-528 25,-516 25,-516 25,-510 31,-504 37,-504 37,-504 129,-504 129,-504 135,-504 141,-510 141,-516 141,-516 141,-528 141,-528 141,-534 135,-540 129,-540"/>
<text text-anchor="middle" x="83" y="-525" font-family="sans" font-size="10.00">prepare_short_reads</text>
<text text-anchor="middle" x="83" y="-514" font-family="sans" font-size="10.00">sample: bg1_ag1_s1</text>
</g>
<!-- 2 -->
<g id="node3" class="node">
<title>2</title>
<path fill="none" stroke="#56d873" stroke-width="2" d="M117,-468C117,-468 49,-468 49,-468 43,-468 37,-462 37,-456 37,-456 37,-444 37,-444 37,-438 43,-432 49,-432 49,-432 117,-432 117,-432 123,-432 129,-438 129,-444 129,-444 129,-456 129,-456 129,-462 123,-468 117,-468"/>
<text text-anchor="middle" x="83" y="-447.5" font-family="sans" font-size="10.00">trimming_fastp</text>
</g>
<!-- 0&#45;&gt;2 -->
<g id="edge1" class="edge">
<title>0&#45;&gt;2</title>
<path fill="none" stroke="grey" stroke-width="2" d="M83,-503.7C83,-495.98 83,-486.71 83,-478.11"/>
<polygon fill="grey" stroke="grey" stroke-width="2" points="86.5,-478.1 83,-468.1 79.5,-478.1 86.5,-478.1"/>
</g>
<!-- 1 -->
<g id="node2" class="node">
<title>1</title>
<path fill="none" stroke="#68d856" stroke-width="2" stroke-dasharray="5,2" d="M385,-540C385,-540 293,-540 293,-540 287,-540 281,-534 281,-528 281,-528 281,-516 281,-516 281,-510 287,-504 293,-504 293,-504 385,-504 385,-504 391,-504 397,-510 397,-516 397,-516 397,-528 397,-528 397,-534 391,-540 385,-540"/>
<text text-anchor="middle" x="339" y="-525" font-family="sans" font-size="10.00">prepare_short_reads</text>
<text text-anchor="middle" x="339" y="-514" font-family="sans" font-size="10.00">sample: bg1_ag1_s2</text>
</g>
<!-- 3 -->
<g id="node4" class="node">
<title>3</title>
<path fill="none" stroke="#56d873" stroke-width="2" d="M373,-468C373,-468 305,-468 305,-468 299,-468 293,-462 293,-456 293,-456 293,-444 293,-444 293,-438 299,-432 305,-432 305,-432 373,-432 373,-432 379,-432 385,-438 385,-444 385,-444 385,-456 385,-456 385,-462 379,-468 373,-468"/>
<text text-anchor="middle" x="339" y="-447.5" font-family="sans" font-size="10.00">trimming_fastp</text>
</g>
<!-- 1&#45;&gt;3 -->
<g id="edge2" class="edge">
<title>1&#45;&gt;3</title>
<path fill="none" stroke="grey" stroke-width="2" d="M339,-503.7C339,-495.98 339,-486.71 339,-478.11"/>
<polygon fill="grey" stroke="grey" stroke-width="2" points="342.5,-478.1 339,-468.1 335.5,-478.1 342.5,-478.1"/>
</g>
<!-- 4 -->
<g id="node5" class="node">
<title>4</title>
<path fill="none" stroke="#d86e56" stroke-width="2" d="M136.5,-396C136.5,-396 65.5,-396 65.5,-396 59.5,-396 53.5,-390 53.5,-384 53.5,-384 53.5,-372 53.5,-372 53.5,-366 59.5,-360 65.5,-360 65.5,-360 136.5,-360 136.5,-360 142.5,-360 148.5,-366 148.5,-372 148.5,-372 148.5,-384 148.5,-384 148.5,-390 142.5,-396 136.5,-396"/>
<text text-anchor="middle" x="101" y="-375.5" font-family="sans" font-size="10.00">rmhost_bowtie2</text>
</g>
<!-- 2&#45;&gt;4 -->
<g id="edge3" class="edge">
<title>2&#45;&gt;4</title>
<path fill="none" stroke="grey" stroke-width="2" d="M87.45,-431.7C89.45,-423.9 91.87,-414.51 94.1,-405.83"/>
<polygon fill="grey" stroke="grey" stroke-width="2" points="97.5,-406.66 96.6,-396.1 90.72,-404.92 97.5,-406.66"/>
</g>
<!-- 6 -->
<g id="node7" class="node">
<title>6</title>
<path fill="none" stroke="#d86e56" stroke-width="2" d="M356.5,-396C356.5,-396 285.5,-396 285.5,-396 279.5,-396 273.5,-390 273.5,-384 273.5,-384 273.5,-372 273.5,-372 273.5,-366 279.5,-360 285.5,-360 285.5,-360 356.5,-360 356.5,-360 362.5,-360 368.5,-366 368.5,-372 368.5,-372 368.5,-384 368.5,-384 368.5,-390 362.5,-396 356.5,-396"/>
<text text-anchor="middle" x="321" y="-375.5" font-family="sans" font-size="10.00">rmhost_bowtie2</text>
</g>
<!-- 3&#45;&gt;6 -->
<g id="edge5" class="edge">
<title>3&#45;&gt;6</title>
<path fill="none" stroke="grey" stroke-width="2" d="M334.55,-431.7C332.55,-423.9 330.13,-414.51 327.9,-405.83"/>
<polygon fill="grey" stroke="grey" stroke-width="2" points="331.28,-404.92 325.4,-396.1 324.5,-406.66 331.28,-404.92"/>
</g>
<!-- 8 -->
<g id="node9" class="node">
<title>8</title>
<path fill="none" stroke="#569ad8" stroke-width="2" d="M166.5,-324C166.5,-324 35.5,-324 35.5,-324 29.5,-324 23.5,-318 23.5,-312 23.5,-312 23.5,-300 23.5,-300 23.5,-294 29.5,-288 35.5,-288 35.5,-288 166.5,-288 166.5,-288 172.5,-288 178.5,-294 178.5,-300 178.5,-300 178.5,-312 178.5,-312 178.5,-318 172.5,-324 166.5,-324"/>
<text text-anchor="middle" x="101" y="-303.5" font-family="sans" font-size="10.00">profiling_alignment_bowtie2</text>
</g>
<!-- 4&#45;&gt;8 -->
<g id="edge8" class="edge">
<title>4&#45;&gt;8</title>
<path fill="none" stroke="grey" stroke-width="2" d="M101,-359.7C101,-351.98 101,-342.71 101,-334.11"/>
<polygon fill="grey" stroke="grey" stroke-width="2" points="104.5,-334.1 101,-324.1 97.5,-334.1 104.5,-334.1"/>
</g>
<!-- 5 -->
<g id="node6" class="node">
<title>5</title>
<path fill="none" stroke="#5673d8" stroke-width="2" stroke-dasharray="5,2" d="M263,-468C263,-468 159,-468 159,-468 153,-468 147,-462 147,-456 147,-456 147,-444 147,-444 147,-438 153,-432 159,-432 159,-432 263,-432 263,-432 269,-432 275,-438 275,-444 275,-444 275,-456 275,-456 275,-462 269,-468 263,-468"/>
<text text-anchor="middle" x="211" y="-447.5" font-family="sans" font-size="10.00">rmhost_bowtie2_index</text>
</g>
<!-- 5&#45;&gt;4 -->
<g id="edge4" class="edge">
<title>5&#45;&gt;4</title>
<path fill="none" stroke="grey" stroke-width="2" d="M184.09,-431.88C169.84,-422.81 152.15,-411.55 136.76,-401.76"/>
<polygon fill="grey" stroke="grey" stroke-width="2" points="138.33,-398.61 128.01,-396.19 134.57,-404.51 138.33,-398.61"/>
</g>
<!-- 5&#45;&gt;6 -->
<g id="edge6" class="edge">
<title>5&#45;&gt;6</title>
<path fill="none" stroke="grey" stroke-width="2" d="M237.91,-431.88C252.16,-422.81 269.85,-411.55 285.24,-401.76"/>
<polygon fill="grey" stroke="grey" stroke-width="2" points="287.43,-404.51 293.99,-396.19 283.67,-398.61 287.43,-404.51"/>
</g>
<!-- 10 -->
<g id="node11" class="node">
<title>10</title>
<path fill="none" stroke="#569ad8" stroke-width="2" d="M386.5,-324C386.5,-324 255.5,-324 255.5,-324 249.5,-324 243.5,-318 243.5,-312 243.5,-312 243.5,-300 243.5,-300 243.5,-294 249.5,-288 255.5,-288 255.5,-288 386.5,-288 386.5,-288 392.5,-288 398.5,-294 398.5,-300 398.5,-300 398.5,-312 398.5,-312 398.5,-318 392.5,-324 386.5,-324"/>
<text text-anchor="middle" x="321" y="-303.5" font-family="sans" font-size="10.00">profiling_alignment_bowtie2</text>
</g>
<!-- 6&#45;&gt;10 -->
<g id="edge10" class="edge">
<title>6&#45;&gt;10</title>
<path fill="none" stroke="grey" stroke-width="2" d="M321,-359.7C321,-351.98 321,-342.71 321,-334.11"/>
<polygon fill="grey" stroke="grey" stroke-width="2" points="324.5,-334.1 321,-324.1 317.5,-334.1 324.5,-334.1"/>
</g>
<!-- 7 -->
<g id="node8" class="node">
<title>7</title>
<path fill="none" stroke="#56d86b" stroke-width="2" d="M190,-252C190,-252 12,-252 12,-252 6,-252 0,-246 0,-240 0,-240 0,-228 0,-228 0,-222 6,-216 12,-216 12,-216 190,-216 190,-216 196,-216 202,-222 202,-228 202,-228 202,-240 202,-240 202,-246 196,-252 190,-252"/>
<text text-anchor="middle" x="101" y="-231.5" font-family="sans" font-size="10.00">profiling_alignment_bam_postprocess</text>
</g>
<!-- 12 -->
<g id="node13" class="node">
<title>12</title>
<path fill="none" stroke="#56d873" stroke-width="2" d="M189.5,-180C189.5,-180 70.5,-180 70.5,-180 64.5,-180 58.5,-174 58.5,-168 58.5,-168 58.5,-156 58.5,-156 58.5,-150 64.5,-144 70.5,-144 70.5,-144 189.5,-144 189.5,-144 195.5,-144 201.5,-150 201.5,-156 201.5,-156 201.5,-168 201.5,-168 201.5,-174 195.5,-180 189.5,-180"/>
<text text-anchor="middle" x="130" y="-159.5" font-family="sans" font-size="10.00">profiling_genome_coverm</text>
</g>
<!-- 7&#45;&gt;12 -->
<g id="edge13" class="edge">
<title>7&#45;&gt;12</title>
<path fill="none" stroke="grey" stroke-width="2" d="M108.17,-215.7C111.43,-207.81 115.37,-198.3 119,-189.55"/>
<polygon fill="grey" stroke="grey" stroke-width="2" points="122.32,-190.68 122.91,-180.1 115.85,-188 122.32,-190.68"/>
</g>
<!-- 8&#45;&gt;7 -->
<g id="edge7" class="edge">
<title>8&#45;&gt;7</title>
<path fill="none" stroke="grey" stroke-width="2" d="M101,-287.7C101,-279.98 101,-270.71 101,-262.11"/>
<polygon fill="grey" stroke="grey" stroke-width="2" points="104.5,-262.1 101,-252.1 97.5,-262.1 104.5,-262.1"/>
</g>
<!-- 9 -->
<g id="node10" class="node">
<title>9</title>
<path fill="none" stroke="#56d86b" stroke-width="2" d="M410,-252C410,-252 232,-252 232,-252 226,-252 220,-246 220,-240 220,-240 220,-228 220,-228 220,-222 226,-216 232,-216 232,-216 410,-216 410,-216 416,-216 422,-222 422,-228 422,-228 422,-240 422,-240 422,-246 416,-252 410,-252"/>
<text text-anchor="middle" x="321" y="-231.5" font-family="sans" font-size="10.00">profiling_alignment_bam_postprocess</text>
</g>
<!-- 13 -->
<g id="node14" class="node">
<title>13</title>
<path fill="none" stroke="#56d873" stroke-width="2" d="M365.5,-180C365.5,-180 246.5,-180 246.5,-180 240.5,-180 234.5,-174 234.5,-168 234.5,-168 234.5,-156 234.5,-156 234.5,-150 240.5,-144 246.5,-144 246.5,-144 365.5,-144 365.5,-144 371.5,-144 377.5,-150 377.5,-156 377.5,-156 377.5,-168 377.5,-168 377.5,-174 371.5,-180 365.5,-180"/>
<text text-anchor="middle" x="306" y="-159.5" font-family="sans" font-size="10.00">profiling_genome_coverm</text>
</g>
<!-- 9&#45;&gt;13 -->
<g id="edge14" class="edge">
<title>9&#45;&gt;13</title>
<path fill="none" stroke="grey" stroke-width="2" d="M317.29,-215.7C315.64,-207.98 313.65,-198.71 311.81,-190.11"/>
<polygon fill="grey" stroke="grey" stroke-width="2" points="315.18,-189.15 309.67,-180.1 308.34,-190.62 315.18,-189.15"/>
</g>
<!-- 10&#45;&gt;9 -->
<g id="edge9" class="edge">
<title>10&#45;&gt;9</title>
<path fill="none" stroke="grey" stroke-width="2" d="M321,-287.7C321,-279.98 321,-270.71 321,-262.11"/>
<polygon fill="grey" stroke="grey" stroke-width="2" points="324.5,-262.1 321,-252.1 317.5,-262.1 324.5,-262.1"/>
</g>
<!-- 11 -->
<g id="node12" class="node">
<title>11</title>
<path fill="none" stroke="#56d8c1" stroke-width="2" d="M288,-108C288,-108 132,-108 132,-108 126,-108 120,-102 120,-96 120,-96 120,-84 120,-84 120,-78 126,-72 132,-72 132,-72 288,-72 288,-72 294,-72 300,-78 300,-84 300,-84 300,-96 300,-96 300,-102 294,-108 288,-108"/>
<text text-anchor="middle" x="210" y="-87.5" font-family="sans" font-size="10.00">profiling_genome_coverm_merge</text>
</g>
<!-- 14 -->
<g id="node15" class="node">
<title>14</title>
<path fill="none" stroke="#59d856" stroke-width="2" d="M278.5,-36C278.5,-36 141.5,-36 141.5,-36 135.5,-36 129.5,-30 129.5,-24 129.5,-24 129.5,-12 129.5,-12 129.5,-6 135.5,0 141.5,0 141.5,0 278.5,0 278.5,0 284.5,0 290.5,-6 290.5,-12 290.5,-12 290.5,-24 290.5,-24 290.5,-30 284.5,-36 278.5,-36"/>
<text text-anchor="middle" x="210" y="-15.5" font-family="sans" font-size="10.00">profiling_genome_coverm_all</text>
</g>
<!-- 11&#45;&gt;14 -->
<g id="edge15" class="edge">
<title>11&#45;&gt;14</title>
<path fill="none" stroke="grey" stroke-width="2" d="M210,-71.7C210,-63.98 210,-54.71 210,-46.11"/>
<polygon fill="grey" stroke="grey" stroke-width="2" points="213.5,-46.1 210,-36.1 206.5,-46.1 213.5,-46.1"/>
</g>
<!-- 12&#45;&gt;11 -->
<g id="edge11" class="edge">
<title>12&#45;&gt;11</title>
<path fill="none" stroke="grey" stroke-width="2" d="M149.78,-143.7C159.75,-134.97 172.01,-124.24 182.86,-114.75"/>
<polygon fill="grey" stroke="grey" stroke-width="2" points="185.23,-117.32 190.45,-108.1 180.62,-112.06 185.23,-117.32"/>
</g>
<!-- 13&#45;&gt;11 -->
<g id="edge12" class="edge">
<title>13&#45;&gt;11</title>
<path fill="none" stroke="grey" stroke-width="2" d="M282.27,-143.7C270.06,-134.8 255.01,-123.82 241.82,-114.2"/>
<polygon fill="grey" stroke="grey" stroke-width="2" points="243.6,-111.17 233.46,-108.1 239.48,-116.82 243.6,-111.17"/>
</g>
</g>
</svg>
