<?xml version="1.0" encoding="UTF-8" standalone="no"?>
<!DOCTYPE svg PUBLIC "-//W3C//DTD SVG 1.1//EN"
 "http://www.w3.org/Graphics/SVG/1.1/DTD/svg11.dtd">
<!-- Generated by graphviz version 3.0.0 (20220315.2325)
 -->
<!-- Title: snakemake_dag Pages: 1 -->
<svg width="299pt" height="431pt"
 viewBox="0.00 0.00 430.00 620.00" xmlns="http://www.w3.org/2000/svg" xmlns:xlink="http://www.w3.org/1999/xlink">
<g id="graph0" class="graph" transform="scale(0.694444 0.694444) rotate(0) translate(4 616)">
<title>snakemake_dag</title>
<polygon fill="white" stroke="transparent" points="-4,4 -4,-616 426,-616 426,4 -4,4"/>
<!-- 0 -->
<g id="node1" class="node">
<title>0</title>
<path fill="none" stroke="#56c9d8" stroke-width="2" stroke-dasharray="5,2" d="M129,-612C129,-612 37,-612 37,-612 31,-612 25,-606 25,-600 25,-600 25,-588 25,-588 25,-582 31,-576 37,-576 37,-576 129,-576 129,-576 135,-576 141,-582 141,-588 141,-588 141,-600 141,-600 141,-606 135,-612 129,-612"/>
<text text-anchor="middle" x="83" y="-597" font-family="sans" font-size="10.00">prepare_short_reads</text>
<text text-anchor="middle" x="83" y="-586" font-family="sans" font-size="10.00">sample: bg1_ag1_s1</text>
</g>
<!-- 2 -->
<g id="node3" class="node">
<title>2</title>
<path fill="none" stroke="#8fd856" stroke-width="2" d="M117,-540C117,-540 49,-540 49,-540 43,-540 37,-534 37,-528 37,-528 37,-516 37,-516 37,-510 43,-504 49,-504 49,-504 117,-504 117,-504 123,-504 129,-510 129,-516 129,-516 129,-528 129,-528 129,-534 123,-540 117,-540"/>
<text text-anchor="middle" x="83" y="-519.5" font-family="sans" font-size="10.00">trimming_fastp</text>
</g>
<!-- 0&#45;&gt;2 -->
<g id="edge1" class="edge">
<title>0&#45;&gt;2</title>
<path fill="none" stroke="grey" stroke-width="2" d="M83,-575.7C83,-567.98 83,-558.71 83,-550.11"/>
<polygon fill="grey" stroke="grey" stroke-width="2" points="86.5,-550.1 83,-540.1 79.5,-550.1 86.5,-550.1"/>
</g>
<!-- 1 -->
<g id="node2" class="node">
<title>1</title>
<path fill="none" stroke="#56c9d8" stroke-width="2" stroke-dasharray="5,2" d="M385,-612C385,-612 293,-612 293,-612 287,-612 281,-606 281,-600 281,-600 281,-588 281,-588 281,-582 287,-576 293,-576 293,-576 385,-576 385,-576 391,-576 397,-582 397,-588 397,-588 397,-600 397,-600 397,-606 391,-612 385,-612"/>
<text text-anchor="middle" x="339" y="-597" font-family="sans" font-size="10.00">prepare_short_reads</text>
<text text-anchor="middle" x="339" y="-586" font-family="sans" font-size="10.00">sample: bg1_ag1_s2</text>
</g>
<!-- 3 -->
<g id="node4" class="node">
<title>3</title>
<path fill="none" stroke="#8fd856" stroke-width="2" d="M373,-540C373,-540 305,-540 305,-540 299,-540 293,-534 293,-528 293,-528 293,-516 293,-516 293,-510 299,-504 305,-504 305,-504 373,-504 373,-504 379,-504 385,-510 385,-516 385,-516 385,-528 385,-528 385,-534 379,-540 373,-540"/>
<text text-anchor="middle" x="339" y="-519.5" font-family="sans" font-size="10.00">trimming_fastp</text>
</g>
<!-- 1&#45;&gt;3 -->
<g id="edge2" class="edge">
<title>1&#45;&gt;3</title>
<path fill="none" stroke="grey" stroke-width="2" d="M339,-575.7C339,-567.98 339,-558.71 339,-550.11"/>
<polygon fill="grey" stroke="grey" stroke-width="2" points="342.5,-550.1 339,-540.1 335.5,-550.1 342.5,-550.1"/>
</g>
<!-- 4 -->
<g id="node5" class="node">
<title>4</title>
<path fill="none" stroke="#56d892" stroke-width="2" d="M136.5,-468C136.5,-468 65.5,-468 65.5,-468 59.5,-468 53.5,-462 53.5,-456 53.5,-456 53.5,-444 53.5,-444 53.5,-438 59.5,-432 65.5,-432 65.5,-432 136.5,-432 136.5,-432 142.5,-432 148.5,-438 148.5,-444 148.5,-444 148.5,-456 148.5,-456 148.5,-462 142.5,-468 136.5,-468"/>
<text text-anchor="middle" x="101" y="-447.5" font-family="sans" font-size="10.00">rmhost_bowtie2</text>
</g>
<!-- 2&#45;&gt;4 -->
<g id="edge3" class="edge">
<title>2&#45;&gt;4</title>
<path fill="none" stroke="grey" stroke-width="2" d="M87.45,-503.7C89.45,-495.9 91.87,-486.51 94.1,-477.83"/>
<polygon fill="grey" stroke="grey" stroke-width="2" points="97.5,-478.66 96.6,-468.1 90.72,-476.92 97.5,-478.66"/>
</g>
<!-- 6 -->
<g id="node7" class="node">
<title>6</title>
<path fill="none" stroke="#56d892" stroke-width="2" d="M356.5,-468C356.5,-468 285.5,-468 285.5,-468 279.5,-468 273.5,-462 273.5,-456 273.5,-456 273.5,-444 273.5,-444 273.5,-438 279.5,-432 285.5,-432 285.5,-432 356.5,-432 356.5,-432 362.5,-432 368.5,-438 368.5,-444 368.5,-444 368.5,-456 368.5,-456 368.5,-462 362.5,-468 356.5,-468"/>
<text text-anchor="middle" x="321" y="-447.5" font-family="sans" font-size="10.00">rmhost_bowtie2</text>
</g>
<!-- 3&#45;&gt;6 -->
<g id="edge5" class="edge">
<title>3&#45;&gt;6</title>
<path fill="none" stroke="grey" stroke-width="2" d="M334.55,-503.7C332.55,-495.9 330.13,-486.51 327.9,-477.83"/>
<polygon fill="grey" stroke="grey" stroke-width="2" points="331.28,-476.92 325.4,-468.1 324.5,-478.66 331.28,-476.92"/>
</g>
<!-- 11 -->
<g id="node12" class="node">
<title>11</title>
<path fill="none" stroke="#b6d856" stroke-width="2" d="M166.5,-396C166.5,-396 35.5,-396 35.5,-396 29.5,-396 23.5,-390 23.5,-384 23.5,-384 23.5,-372 23.5,-372 23.5,-366 29.5,-360 35.5,-360 35.5,-360 166.5,-360 166.5,-360 172.5,-360 178.5,-366 178.5,-372 178.5,-372 178.5,-384 178.5,-384 178.5,-390 172.5,-396 166.5,-396"/>
<text text-anchor="middle" x="101" y="-375.5" font-family="sans" font-size="10.00">profiling_alignment_bowtie2</text>
</g>
<!-- 4&#45;&gt;11 -->
<g id="edge12" class="edge">
<title>4&#45;&gt;11</title>
<path fill="none" stroke="grey" stroke-width="2" d="M101,-431.7C101,-423.98 101,-414.71 101,-406.11"/>
<polygon fill="grey" stroke="grey" stroke-width="2" points="104.5,-406.1 101,-396.1 97.5,-406.1 104.5,-406.1"/>
</g>
<!-- 5 -->
<g id="node6" class="node">
<title>5</title>
<path fill="none" stroke="#56d863" stroke-width="2" stroke-dasharray="5,2" d="M263,-540C263,-540 159,-540 159,-540 153,-540 147,-534 147,-528 147,-528 147,-516 147,-516 147,-510 153,-504 159,-504 159,-504 263,-504 263,-504 269,-504 275,-510 275,-516 275,-516 275,-528 275,-528 275,-534 269,-540 263,-540"/>
<text text-anchor="middle" x="211" y="-519.5" font-family="sans" font-size="10.00">rmhost_bowtie2_index</text>
</g>
<!-- 5&#45;&gt;4 -->
<g id="edge4" class="edge">
<title>5&#45;&gt;4</title>
<path fill="none" stroke="grey" stroke-width="2" d="M184.09,-503.88C169.84,-494.81 152.15,-483.55 136.76,-473.76"/>
<polygon fill="grey" stroke="grey" stroke-width="2" points="138.33,-470.61 128.01,-468.19 134.57,-476.51 138.33,-470.61"/>
</g>
<!-- 5&#45;&gt;6 -->
<g id="edge6" class="edge">
<title>5&#45;&gt;6</title>
<path fill="none" stroke="grey" stroke-width="2" d="M237.91,-503.88C252.16,-494.81 269.85,-483.55 285.24,-473.76"/>
<polygon fill="grey" stroke="grey" stroke-width="2" points="287.43,-476.51 293.99,-468.19 283.67,-470.61 287.43,-476.51"/>
</g>
<!-- 15 -->
<g id="node16" class="node">
<title>15</title>
<path fill="none" stroke="#b6d856" stroke-width="2" d="M386.5,-396C386.5,-396 255.5,-396 255.5,-396 249.5,-396 243.5,-390 243.5,-384 243.5,-384 243.5,-372 243.5,-372 243.5,-366 249.5,-360 255.5,-360 255.5,-360 386.5,-360 386.5,-360 392.5,-360 398.5,-366 398.5,-372 398.5,-372 398.5,-384 398.5,-384 398.5,-390 392.5,-396 386.5,-396"/>
<text text-anchor="middle" x="321" y="-375.5" font-family="sans" font-size="10.00">profiling_alignment_bowtie2</text>
</g>
<!-- 6&#45;&gt;15 -->
<g id="edge16" class="edge">
<title>6&#45;&gt;15</title>
<path fill="none" stroke="grey" stroke-width="2" d="M321,-431.7C321,-423.98 321,-414.71 321,-406.11"/>
<polygon fill="grey" stroke="grey" stroke-width="2" points="324.5,-406.1 321,-396.1 317.5,-406.1 324.5,-406.1"/>
</g>
<!-- 7 -->
<g id="node8" class="node">
<title>7</title>
<path fill="none" stroke="#70d856" stroke-width="2" d="M298.5,-108C298.5,-108 121.5,-108 121.5,-108 115.5,-108 109.5,-102 109.5,-96 109.5,-96 109.5,-84 109.5,-84 109.5,-78 115.5,-72 121.5,-72 121.5,-72 298.5,-72 298.5,-72 304.5,-72 310.5,-78 310.5,-84 310.5,-84 310.5,-96 310.5,-96 310.5,-102 304.5,-108 298.5,-108"/>
<text text-anchor="middle" x="210" y="-87.5" font-family="sans" font-size="10.00">profiling_genomecov_gen_cov_merge</text>
</g>
<!-- 16 -->
<g id="node17" class="node">
<title>16</title>
<path fill="none" stroke="#59d856" stroke-width="2" d="M266,-36C266,-36 154,-36 154,-36 148,-36 142,-30 142,-24 142,-24 142,-12 142,-12 142,-6 148,0 154,0 154,0 266,0 266,0 272,0 278,-6 278,-12 278,-12 278,-24 278,-24 278,-30 272,-36 266,-36"/>
<text text-anchor="middle" x="210" y="-15.5" font-family="sans" font-size="10.00">profiling_genomecov_all</text>
</g>
<!-- 7&#45;&gt;16 -->
<g id="edge17" class="edge">
<title>7&#45;&gt;16</title>
<path fill="none" stroke="grey" stroke-width="2" d="M210,-71.7C210,-63.98 210,-54.71 210,-46.11"/>
<polygon fill="grey" stroke="grey" stroke-width="2" points="213.5,-46.1 210,-36.1 206.5,-46.1 213.5,-46.1"/>
</g>
<!-- 8 -->
<g id="node9" class="node">
<title>8</title>
<path fill="none" stroke="#56a9d8" stroke-width="2" d="M189,-180C189,-180 49,-180 49,-180 43,-180 37,-174 37,-168 37,-168 37,-156 37,-156 37,-150 43,-144 49,-144 49,-144 189,-144 189,-144 195,-144 201,-150 201,-156 201,-156 201,-168 201,-168 201,-174 195,-180 189,-180"/>
<text text-anchor="middle" x="119" y="-159.5" font-family="sans" font-size="10.00">profiling_genomecov_gen_cov</text>
</g>
<!-- 8&#45;&gt;7 -->
<g id="edge7" class="edge">
<title>8&#45;&gt;7</title>
<path fill="none" stroke="grey" stroke-width="2" d="M141.49,-143.7C152.96,-134.88 167.06,-124.03 179.48,-114.47"/>
<polygon fill="grey" stroke="grey" stroke-width="2" points="181.97,-116.98 187.76,-108.1 177.7,-111.43 181.97,-116.98"/>
</g>
<!-- 9 -->
<g id="node10" class="node">
<title>9</title>
<path fill="none" stroke="#56b1d8" stroke-width="2" d="M189.5,-252C189.5,-252 48.5,-252 48.5,-252 42.5,-252 36.5,-246 36.5,-240 36.5,-240 36.5,-228 36.5,-228 36.5,-222 42.5,-216 48.5,-216 48.5,-216 189.5,-216 189.5,-216 195.5,-216 201.5,-222 201.5,-228 201.5,-228 201.5,-240 201.5,-240 201.5,-246 195.5,-252 189.5,-252"/>
<text text-anchor="middle" x="119" y="-231.5" font-family="sans" font-size="10.00">profiling_genomecov_gen_bed</text>
</g>
<!-- 9&#45;&gt;8 -->
<g id="edge9" class="edge">
<title>9&#45;&gt;8</title>
<path fill="none" stroke="grey" stroke-width="2" d="M119,-215.7C119,-207.98 119,-198.71 119,-190.11"/>
<polygon fill="grey" stroke="grey" stroke-width="2" points="122.5,-190.1 119,-180.1 115.5,-190.1 122.5,-190.1"/>
</g>
<!-- 10 -->
<g id="node11" class="node">
<title>10</title>
<path fill="none" stroke="#56d0d8" stroke-width="2" d="M190,-324C190,-324 12,-324 12,-324 6,-324 0,-318 0,-312 0,-312 0,-300 0,-300 0,-294 6,-288 12,-288 12,-288 190,-288 190,-288 196,-288 202,-294 202,-300 202,-300 202,-312 202,-312 202,-318 196,-324 190,-324"/>
<text text-anchor="middle" x="101" y="-303.5" font-family="sans" font-size="10.00">profiling_alignment_bam_postprocess</text>
</g>
<!-- 10&#45;&gt;9 -->
<g id="edge10" class="edge">
<title>10&#45;&gt;9</title>
<path fill="none" stroke="grey" stroke-width="2" d="M105.45,-287.7C107.45,-279.9 109.87,-270.51 112.1,-261.83"/>
<polygon fill="grey" stroke="grey" stroke-width="2" points="115.5,-262.66 114.6,-252.1 108.72,-260.92 115.5,-262.66"/>
</g>
<!-- 11&#45;&gt;10 -->
<g id="edge11" class="edge">
<title>11&#45;&gt;10</title>
<path fill="none" stroke="grey" stroke-width="2" d="M101,-359.7C101,-351.98 101,-342.71 101,-334.11"/>
<polygon fill="grey" stroke="grey" stroke-width="2" points="104.5,-334.1 101,-324.1 97.5,-334.1 104.5,-334.1"/>
</g>
<!-- 12 -->
<g id="node13" class="node">
<title>12</title>
<path fill="none" stroke="#56a9d8" stroke-width="2" d="M371,-180C371,-180 231,-180 231,-180 225,-180 219,-174 219,-168 219,-168 219,-156 219,-156 219,-150 225,-144 231,-144 231,-144 371,-144 371,-144 377,-144 383,-150 383,-156 383,-156 383,-168 383,-168 383,-174 377,-180 371,-180"/>
<text text-anchor="middle" x="301" y="-159.5" font-family="sans" font-size="10.00">profiling_genomecov_gen_cov</text>
</g>
<!-- 12&#45;&gt;7 -->
<g id="edge8" class="edge">
<title>12&#45;&gt;7</title>
<path fill="none" stroke="grey" stroke-width="2" d="M278.51,-143.7C267.04,-134.88 252.94,-124.03 240.52,-114.47"/>
<polygon fill="grey" stroke="grey" stroke-width="2" points="242.3,-111.43 232.24,-108.1 238.03,-116.98 242.3,-111.43"/>
</g>
<!-- 13 -->
<g id="node14" class="node">
<title>13</title>
<path fill="none" stroke="#56b1d8" stroke-width="2" d="M381.5,-252C381.5,-252 240.5,-252 240.5,-252 234.5,-252 228.5,-246 228.5,-240 228.5,-240 228.5,-228 228.5,-228 228.5,-222 234.5,-216 240.5,-216 240.5,-216 381.5,-216 381.5,-216 387.5,-216 393.5,-222 393.5,-228 393.5,-228 393.5,-240 393.5,-240 393.5,-246 387.5,-252 381.5,-252"/>
<text text-anchor="middle" x="311" y="-231.5" font-family="sans" font-size="10.00">profiling_genomecov_gen_bed</text>
</g>
<!-- 13&#45;&gt;12 -->
<g id="edge13" class="edge">
<title>13&#45;&gt;12</title>
<path fill="none" stroke="grey" stroke-width="2" d="M308.53,-215.7C307.43,-207.98 306.1,-198.71 304.87,-190.11"/>
<polygon fill="grey" stroke="grey" stroke-width="2" points="308.32,-189.51 303.44,-180.1 301.39,-190.5 308.32,-189.51"/>
</g>
<!-- 14 -->
<g id="node15" class="node">
<title>14</title>
<path fill="none" stroke="#56d0d8" stroke-width="2" d="M410,-324C410,-324 232,-324 232,-324 226,-324 220,-318 220,-312 220,-312 220,-300 220,-300 220,-294 226,-288 232,-288 232,-288 410,-288 410,-288 416,-288 422,-294 422,-300 422,-300 422,-312 422,-312 422,-318 416,-324 410,-324"/>
<text text-anchor="middle" x="321" y="-303.5" font-family="sans" font-size="10.00">profiling_alignment_bam_postprocess</text>
</g>
<!-- 14&#45;&gt;13 -->
<g id="edge14" class="edge">
<title>14&#45;&gt;13</title>
<path fill="none" stroke="grey" stroke-width="2" d="M318.53,-287.7C317.43,-279.98 316.1,-270.71 314.87,-262.11"/>
<polygon fill="grey" stroke="grey" stroke-width="2" points="318.32,-261.51 313.44,-252.1 311.39,-262.5 318.32,-261.51"/>
</g>
<!-- 15&#45;&gt;14 -->
<g id="edge15" class="edge">
<title>15&#45;&gt;14</title>
<path fill="none" stroke="grey" stroke-width="2" d="M321,-359.7C321,-351.98 321,-342.71 321,-334.11"/>
<polygon fill="grey" stroke="grey" stroke-width="2" points="324.5,-334.1 321,-324.1 317.5,-334.1 324.5,-334.1"/>
</g>
</g>
</svg>
