<?xml version="1.0" encoding="UTF-8" standalone="no"?>
<!DOCTYPE svg PUBLIC "-//W3C//DTD SVG 1.1//EN"
 "http://www.w3.org/Graphics/SVG/1.1/DTD/svg11.dtd">
<!-- Generated by graphviz version 3.0.0 (20220315.2325)
 -->
<!-- Title: snakemake_dag Pages: 1 -->
<svg width="571pt" height="381pt"
 viewBox="0.00 0.00 822.50 548.00" xmlns="http://www.w3.org/2000/svg" xmlns:xlink="http://www.w3.org/1999/xlink">
<g id="graph0" class="graph" transform="scale(0.694444 0.694444) rotate(0) translate(4 544)">
<title>snakemake_dag</title>
<polygon fill="white" stroke="transparent" points="-4,4 -4,-544 818.5,-544 818.5,4 -4,4"/>
<!-- 0 -->
<g id="node1" class="node">
<title>0</title>
<path fill="none" stroke="#9fd856" stroke-width="2" d="M106.5,-396C106.5,-396 24.5,-396 24.5,-396 18.5,-396 12.5,-390 12.5,-384 12.5,-384 12.5,-372 12.5,-372 12.5,-366 18.5,-360 24.5,-360 24.5,-360 106.5,-360 106.5,-360 112.5,-360 118.5,-366 118.5,-372 118.5,-372 118.5,-384 118.5,-384 118.5,-390 112.5,-396 106.5,-396"/>
<text text-anchor="middle" x="65.5" y="-375.5" font-family="sans" font-size="10.00">raw_report_merge</text>
</g>
<!-- 16 -->
<g id="node17" class="node">
<title>16</title>
<path fill="none" stroke="#97d856" stroke-width="2" d="M312,-180C312,-180 227,-180 227,-180 221,-180 215,-174 215,-168 215,-168 215,-156 215,-156 215,-150 221,-144 227,-144 227,-144 312,-144 312,-144 318,-144 324,-150 324,-156 324,-156 324,-168 324,-168 324,-174 318,-180 312,-180"/>
<text text-anchor="middle" x="269.5" y="-159.5" font-family="sans" font-size="10.00">qcreport_summary</text>
</g>
<!-- 0&#45;&gt;16 -->
<g id="edge19" class="edge">
<title>0&#45;&gt;16</title>
<path fill="none" stroke="grey" stroke-width="2" d="M71.39,-359.76C78.36,-340.92 91.23,-310.44 108.5,-288 142.13,-244.32 194.46,-207.51 230.27,-185.38"/>
<polygon fill="grey" stroke="grey" stroke-width="2" points="232.27,-188.26 239,-180.08 228.63,-182.28 232.27,-188.26"/>
</g>
<!-- 1 -->
<g id="node2" class="node">
<title>1</title>
<path fill="none" stroke="#59d856" stroke-width="2" d="M144,-468C144,-468 99,-468 99,-468 93,-468 87,-462 87,-456 87,-456 87,-444 87,-444 87,-438 93,-432 99,-432 99,-432 144,-432 144,-432 150,-432 156,-438 156,-444 156,-444 156,-456 156,-456 156,-462 150,-468 144,-468"/>
<text text-anchor="middle" x="121.5" y="-447.5" font-family="sans" font-size="10.00">raw_report</text>
</g>
<!-- 1&#45;&gt;0 -->
<g id="edge1" class="edge">
<title>1&#45;&gt;0</title>
<path fill="none" stroke="grey" stroke-width="2" d="M107.66,-431.7C101.01,-423.39 92.92,-413.28 85.61,-404.14"/>
<polygon fill="grey" stroke="grey" stroke-width="2" points="88.16,-401.73 79.18,-396.1 82.7,-406.1 88.16,-401.73"/>
</g>
<!-- 2 -->
<g id="node3" class="node">
<title>2</title>
<path fill="none" stroke="#d8bc56" stroke-width="2" stroke-dasharray="5,2" d="M335.5,-540C335.5,-540 243.5,-540 243.5,-540 237.5,-540 231.5,-534 231.5,-528 231.5,-528 231.5,-516 231.5,-516 231.5,-510 237.5,-504 243.5,-504 243.5,-504 335.5,-504 335.5,-504 341.5,-504 347.5,-510 347.5,-516 347.5,-516 347.5,-528 347.5,-528 347.5,-534 341.5,-540 335.5,-540"/>
<text text-anchor="middle" x="289.5" y="-525" font-family="sans" font-size="10.00">prepare_short_reads</text>
<text text-anchor="middle" x="289.5" y="-514" font-family="sans" font-size="10.00">sample: bg1_ag1_s1</text>
</g>
<!-- 2&#45;&gt;1 -->
<g id="edge3" class="edge">
<title>2&#45;&gt;1</title>
<path fill="none" stroke="grey" stroke-width="2" d="M248.4,-503.88C223.34,-493.43 191.3,-480.08 165.69,-469.41"/>
<polygon fill="grey" stroke="grey" stroke-width="2" points="166.8,-466.08 156.22,-465.47 164.1,-472.54 166.8,-466.08"/>
</g>
<!-- 5 -->
<g id="node6" class="node">
<title>5</title>
<path fill="none" stroke="#568ad8" stroke-width="2" d="M364.5,-468C364.5,-468 296.5,-468 296.5,-468 290.5,-468 284.5,-462 284.5,-456 284.5,-456 284.5,-444 284.5,-444 284.5,-438 290.5,-432 296.5,-432 296.5,-432 364.5,-432 364.5,-432 370.5,-432 376.5,-438 376.5,-444 376.5,-444 376.5,-456 376.5,-456 376.5,-462 370.5,-468 364.5,-468"/>
<text text-anchor="middle" x="330.5" y="-447.5" font-family="sans" font-size="10.00">trimming_fastp</text>
</g>
<!-- 2&#45;&gt;5 -->
<g id="edge5" class="edge">
<title>2&#45;&gt;5</title>
<path fill="none" stroke="grey" stroke-width="2" d="M299.63,-503.7C304.35,-495.64 310.06,-485.89 315.28,-476.98"/>
<polygon fill="grey" stroke="grey" stroke-width="2" points="318.45,-478.5 320.48,-468.1 312.41,-474.96 318.45,-478.5"/>
</g>
<!-- 3 -->
<g id="node4" class="node">
<title>3</title>
<path fill="none" stroke="#59d856" stroke-width="2" d="M57,-468C57,-468 12,-468 12,-468 6,-468 0,-462 0,-456 0,-456 0,-444 0,-444 0,-438 6,-432 12,-432 12,-432 57,-432 57,-432 63,-432 69,-438 69,-444 69,-444 69,-456 69,-456 69,-462 63,-468 57,-468"/>
<text text-anchor="middle" x="34.5" y="-447.5" font-family="sans" font-size="10.00">raw_report</text>
</g>
<!-- 3&#45;&gt;0 -->
<g id="edge2" class="edge">
<title>3&#45;&gt;0</title>
<path fill="none" stroke="grey" stroke-width="2" d="M42.16,-431.7C45.69,-423.73 49.96,-414.1 53.87,-405.26"/>
<polygon fill="grey" stroke="grey" stroke-width="2" points="57.08,-406.67 57.93,-396.1 50.68,-403.83 57.08,-406.67"/>
</g>
<!-- 4 -->
<g id="node5" class="node">
<title>4</title>
<path fill="none" stroke="#d8bc56" stroke-width="2" stroke-dasharray="5,2" d="M161.5,-540C161.5,-540 69.5,-540 69.5,-540 63.5,-540 57.5,-534 57.5,-528 57.5,-528 57.5,-516 57.5,-516 57.5,-510 63.5,-504 69.5,-504 69.5,-504 161.5,-504 161.5,-504 167.5,-504 173.5,-510 173.5,-516 173.5,-516 173.5,-528 173.5,-528 173.5,-534 167.5,-540 161.5,-540"/>
<text text-anchor="middle" x="115.5" y="-525" font-family="sans" font-size="10.00">prepare_short_reads</text>
<text text-anchor="middle" x="115.5" y="-514" font-family="sans" font-size="10.00">sample: bg1_ag1_s2</text>
</g>
<!-- 4&#45;&gt;3 -->
<g id="edge4" class="edge">
<title>4&#45;&gt;3</title>
<path fill="none" stroke="grey" stroke-width="2" d="M95.48,-503.7C85.37,-494.97 72.96,-484.24 61.98,-474.75"/>
<polygon fill="grey" stroke="grey" stroke-width="2" points="64.15,-471.99 54.29,-468.1 59.57,-477.29 64.15,-471.99"/>
</g>
<!-- 6 -->
<g id="node7" class="node">
<title>6</title>
<path fill="none" stroke="#568ad8" stroke-width="2" d="M254.5,-468C254.5,-468 186.5,-468 186.5,-468 180.5,-468 174.5,-462 174.5,-456 174.5,-456 174.5,-444 174.5,-444 174.5,-438 180.5,-432 186.5,-432 186.5,-432 254.5,-432 254.5,-432 260.5,-432 266.5,-438 266.5,-444 266.5,-444 266.5,-456 266.5,-456 266.5,-462 260.5,-468 254.5,-468"/>
<text text-anchor="middle" x="220.5" y="-447.5" font-family="sans" font-size="10.00">trimming_fastp</text>
</g>
<!-- 4&#45;&gt;6 -->
<g id="edge6" class="edge">
<title>4&#45;&gt;6</title>
<path fill="none" stroke="grey" stroke-width="2" d="M141.19,-503.88C154.79,-494.81 171.67,-483.55 186.36,-473.76"/>
<polygon fill="grey" stroke="grey" stroke-width="2" points="188.34,-476.65 194.72,-468.19 184.45,-470.82 188.34,-476.65"/>
</g>
<!-- 8 -->
<g id="node9" class="node">
<title>8</title>
<path fill="none" stroke="#d89c56" stroke-width="2" d="M334.5,-396C334.5,-396 262.5,-396 262.5,-396 256.5,-396 250.5,-390 250.5,-384 250.5,-384 250.5,-372 250.5,-372 250.5,-366 256.5,-360 262.5,-360 262.5,-360 334.5,-360 334.5,-360 340.5,-360 346.5,-366 346.5,-372 346.5,-372 346.5,-384 346.5,-384 346.5,-390 340.5,-396 334.5,-396"/>
<text text-anchor="middle" x="298.5" y="-375.5" font-family="sans" font-size="10.00">trimming_report</text>
</g>
<!-- 5&#45;&gt;8 -->
<g id="edge9" class="edge">
<title>5&#45;&gt;8</title>
<path fill="none" stroke="grey" stroke-width="2" d="M322.59,-431.7C318.95,-423.73 314.55,-414.1 310.51,-405.26"/>
<polygon fill="grey" stroke="grey" stroke-width="2" points="313.66,-403.74 306.32,-396.1 307.29,-406.65 313.66,-403.74"/>
</g>
<!-- 10 -->
<g id="node11" class="node">
<title>10</title>
<path fill="none" stroke="#56d89a" stroke-width="2" d="M561,-396C561,-396 490,-396 490,-396 484,-396 478,-390 478,-384 478,-384 478,-372 478,-372 478,-366 484,-360 490,-360 490,-360 561,-360 561,-360 567,-360 573,-366 573,-372 573,-372 573,-384 573,-384 573,-390 567,-396 561,-396"/>
<text text-anchor="middle" x="525.5" y="-375.5" font-family="sans" font-size="10.00">rmhost_bowtie2</text>
</g>
<!-- 5&#45;&gt;10 -->
<g id="edge11" class="edge">
<title>5&#45;&gt;10</title>
<path fill="none" stroke="grey" stroke-width="2" d="M376.71,-432.41C404.13,-422.57 439.12,-410.01 468.28,-399.54"/>
<polygon fill="grey" stroke="grey" stroke-width="2" points="469.69,-402.75 477.92,-396.08 467.33,-396.16 469.69,-402.75"/>
</g>
<!-- 9 -->
<g id="node10" class="node">
<title>9</title>
<path fill="none" stroke="#d89c56" stroke-width="2" d="M220.5,-396C220.5,-396 148.5,-396 148.5,-396 142.5,-396 136.5,-390 136.5,-384 136.5,-384 136.5,-372 136.5,-372 136.5,-366 142.5,-360 148.5,-360 148.5,-360 220.5,-360 220.5,-360 226.5,-360 232.5,-366 232.5,-372 232.5,-372 232.5,-384 232.5,-384 232.5,-390 226.5,-396 220.5,-396"/>
<text text-anchor="middle" x="184.5" y="-375.5" font-family="sans" font-size="10.00">trimming_report</text>
</g>
<!-- 6&#45;&gt;9 -->
<g id="edge10" class="edge">
<title>6&#45;&gt;9</title>
<path fill="none" stroke="grey" stroke-width="2" d="M211.6,-431.7C207.5,-423.73 202.55,-414.1 198.01,-405.26"/>
<polygon fill="grey" stroke="grey" stroke-width="2" points="200.98,-403.4 193.3,-396.1 194.76,-406.6 200.98,-403.4"/>
</g>
<!-- 12 -->
<g id="node13" class="node">
<title>12</title>
<path fill="none" stroke="#56d89a" stroke-width="2" d="M448,-396C448,-396 377,-396 377,-396 371,-396 365,-390 365,-384 365,-384 365,-372 365,-372 365,-366 371,-360 377,-360 377,-360 448,-360 448,-360 454,-360 460,-366 460,-372 460,-372 460,-384 460,-384 460,-390 454,-396 448,-396"/>
<text text-anchor="middle" x="412.5" y="-375.5" font-family="sans" font-size="10.00">rmhost_bowtie2</text>
</g>
<!-- 6&#45;&gt;12 -->
<g id="edge13" class="edge">
<title>6&#45;&gt;12</title>
<path fill="none" stroke="grey" stroke-width="2" d="M266.98,-432.05C293.9,-422.24 327.98,-409.82 356.39,-399.46"/>
<polygon fill="grey" stroke="grey" stroke-width="2" points="357.59,-402.75 365.78,-396.03 355.19,-396.17 357.59,-402.75"/>
</g>
<!-- 7 -->
<g id="node8" class="node">
<title>7</title>
<path fill="none" stroke="#d89556" stroke-width="2" d="M239,-324C239,-324 130,-324 130,-324 124,-324 118,-318 118,-312 118,-312 118,-300 118,-300 118,-294 124,-288 130,-288 130,-288 239,-288 239,-288 245,-288 251,-294 251,-300 251,-300 251,-312 251,-312 251,-318 245,-324 239,-324"/>
<text text-anchor="middle" x="184.5" y="-303.5" font-family="sans" font-size="10.00">trimming_report_merge</text>
</g>
<!-- 7&#45;&gt;16 -->
<g id="edge20" class="edge">
<title>7&#45;&gt;16</title>
<path fill="none" stroke="grey" stroke-width="2" d="M186.92,-287.8C190.18,-269 197.29,-238.54 211.5,-216 218.38,-205.09 228.08,-195.01 237.59,-186.64"/>
<polygon fill="grey" stroke="grey" stroke-width="2" points="240.06,-189.14 245.47,-180.02 235.56,-183.78 240.06,-189.14"/>
</g>
<!-- 8&#45;&gt;7 -->
<g id="edge7" class="edge">
<title>8&#45;&gt;7</title>
<path fill="none" stroke="grey" stroke-width="2" d="M270.61,-359.88C255.71,-350.72 237.17,-339.34 221.12,-329.48"/>
<polygon fill="grey" stroke="grey" stroke-width="2" points="222.85,-326.44 212.49,-324.19 219.19,-332.41 222.85,-326.44"/>
</g>
<!-- 9&#45;&gt;7 -->
<g id="edge8" class="edge">
<title>9&#45;&gt;7</title>
<path fill="none" stroke="grey" stroke-width="2" d="M184.5,-359.7C184.5,-351.98 184.5,-342.71 184.5,-334.11"/>
<polygon fill="grey" stroke="grey" stroke-width="2" points="188,-334.1 184.5,-324.1 181,-334.1 188,-334.1"/>
</g>
<!-- 14 -->
<g id="node15" class="node">
<title>14</title>
<path fill="none" stroke="#56d8a9" stroke-width="2" d="M447.5,-324C447.5,-324 385.5,-324 385.5,-324 379.5,-324 373.5,-318 373.5,-312 373.5,-312 373.5,-300 373.5,-300 373.5,-294 379.5,-288 385.5,-288 385.5,-288 447.5,-288 447.5,-288 453.5,-288 459.5,-294 459.5,-300 459.5,-300 459.5,-312 459.5,-312 459.5,-318 453.5,-324 447.5,-324"/>
<text text-anchor="middle" x="416.5" y="-303.5" font-family="sans" font-size="10.00">rmhost_report</text>
</g>
<!-- 10&#45;&gt;14 -->
<g id="edge17" class="edge">
<title>10&#45;&gt;14</title>
<path fill="none" stroke="grey" stroke-width="2" d="M498.84,-359.88C484.72,-350.81 467.19,-339.55 451.94,-329.76"/>
<polygon fill="grey" stroke="grey" stroke-width="2" points="453.57,-326.65 443.27,-324.19 449.79,-332.54 453.57,-326.65"/>
</g>
<!-- 18 -->
<g id="node19" class="node">
<title>18</title>
<path fill="none" stroke="#d87556" stroke-width="2" d="M686,-324C686,-324 609,-324 609,-324 603,-324 597,-318 597,-312 597,-312 597,-300 597,-300 597,-294 603,-288 609,-288 609,-288 686,-288 686,-288 692,-288 698,-294 698,-300 698,-300 698,-312 698,-312 698,-318 692,-324 686,-324"/>
<text text-anchor="middle" x="647.5" y="-303.5" font-family="sans" font-size="10.00">profiling_kraken2</text>
</g>
<!-- 10&#45;&gt;18 -->
<g id="edge23" class="edge">
<title>10&#45;&gt;18</title>
<path fill="none" stroke="grey" stroke-width="2" d="M555.34,-359.88C571.44,-350.64 591.5,-339.13 608.79,-329.21"/>
<polygon fill="grey" stroke="grey" stroke-width="2" points="610.61,-332.2 617.54,-324.19 607.13,-326.13 610.61,-332.2"/>
</g>
<!-- 11 -->
<g id="node12" class="node">
<title>11</title>
<path fill="none" stroke="#70d856" stroke-width="2" stroke-dasharray="5,2" d="M543.5,-468C543.5,-468 439.5,-468 439.5,-468 433.5,-468 427.5,-462 427.5,-456 427.5,-456 427.5,-444 427.5,-444 427.5,-438 433.5,-432 439.5,-432 439.5,-432 543.5,-432 543.5,-432 549.5,-432 555.5,-438 555.5,-444 555.5,-444 555.5,-456 555.5,-456 555.5,-462 549.5,-468 543.5,-468"/>
<text text-anchor="middle" x="491.5" y="-447.5" font-family="sans" font-size="10.00">rmhost_bowtie2_index</text>
</g>
<!-- 11&#45;&gt;10 -->
<g id="edge12" class="edge">
<title>11&#45;&gt;10</title>
<path fill="none" stroke="grey" stroke-width="2" d="M499.9,-431.7C503.77,-423.73 508.45,-414.1 512.74,-405.26"/>
<polygon fill="grey" stroke="grey" stroke-width="2" points="515.97,-406.63 517.19,-396.1 509.67,-403.57 515.97,-406.63"/>
</g>
<!-- 11&#45;&gt;12 -->
<g id="edge14" class="edge">
<title>11&#45;&gt;12</title>
<path fill="none" stroke="grey" stroke-width="2" d="M471.97,-431.7C462.12,-422.97 450.01,-412.24 439.3,-402.75"/>
<polygon fill="grey" stroke="grey" stroke-width="2" points="441.61,-400.12 431.8,-396.1 436.97,-405.36 441.61,-400.12"/>
</g>
<!-- 15 -->
<g id="node16" class="node">
<title>15</title>
<path fill="none" stroke="#56d8a9" stroke-width="2" d="M343.5,-324C343.5,-324 281.5,-324 281.5,-324 275.5,-324 269.5,-318 269.5,-312 269.5,-312 269.5,-300 269.5,-300 269.5,-294 275.5,-288 281.5,-288 281.5,-288 343.5,-288 343.5,-288 349.5,-288 355.5,-294 355.5,-300 355.5,-300 355.5,-312 355.5,-312 355.5,-318 349.5,-324 343.5,-324"/>
<text text-anchor="middle" x="312.5" y="-303.5" font-family="sans" font-size="10.00">rmhost_report</text>
</g>
<!-- 12&#45;&gt;15 -->
<g id="edge18" class="edge">
<title>12&#45;&gt;15</title>
<path fill="none" stroke="grey" stroke-width="2" d="M388.04,-359.88C375.2,-350.89 359.3,-339.76 345.41,-330.03"/>
<polygon fill="grey" stroke="grey" stroke-width="2" points="347.26,-327.06 337.06,-324.19 343.24,-332.79 347.26,-327.06"/>
</g>
<!-- 19 -->
<g id="node20" class="node">
<title>19</title>
<path fill="none" stroke="#d87556" stroke-width="2" d="M567,-324C567,-324 490,-324 490,-324 484,-324 478,-318 478,-312 478,-312 478,-300 478,-300 478,-294 484,-288 490,-288 490,-288 567,-288 567,-288 573,-288 579,-294 579,-300 579,-300 579,-312 579,-312 579,-318 573,-324 567,-324"/>
<text text-anchor="middle" x="528.5" y="-303.5" font-family="sans" font-size="10.00">profiling_kraken2</text>
</g>
<!-- 12&#45;&gt;19 -->
<g id="edge24" class="edge">
<title>12&#45;&gt;19</title>
<path fill="none" stroke="grey" stroke-width="2" d="M440.88,-359.88C456.04,-350.72 474.91,-339.34 491.24,-329.48"/>
<polygon fill="grey" stroke="grey" stroke-width="2" points="493.26,-332.35 500.01,-324.19 489.64,-326.36 493.26,-332.35"/>
</g>
<!-- 13 -->
<g id="node14" class="node">
<title>13</title>
<path fill="none" stroke="#56b1d8" stroke-width="2" d="M330.5,-252C330.5,-252 232.5,-252 232.5,-252 226.5,-252 220.5,-246 220.5,-240 220.5,-240 220.5,-228 220.5,-228 220.5,-222 226.5,-216 232.5,-216 232.5,-216 330.5,-216 330.5,-216 336.5,-216 342.5,-222 342.5,-228 342.5,-228 342.5,-240 342.5,-240 342.5,-246 336.5,-252 330.5,-252"/>
<text text-anchor="middle" x="281.5" y="-231.5" font-family="sans" font-size="10.00">rmhost_report_merge</text>
</g>
<!-- 13&#45;&gt;16 -->
<g id="edge21" class="edge">
<title>13&#45;&gt;16</title>
<path fill="none" stroke="grey" stroke-width="2" d="M278.53,-215.7C277.21,-207.98 275.62,-198.71 274.15,-190.11"/>
<polygon fill="grey" stroke="grey" stroke-width="2" points="277.57,-189.37 272.43,-180.1 270.67,-190.55 277.57,-189.37"/>
</g>
<!-- 14&#45;&gt;13 -->
<g id="edge15" class="edge">
<title>14&#45;&gt;13</title>
<path fill="none" stroke="grey" stroke-width="2" d="M383.48,-287.88C365.42,-278.51 342.85,-266.81 323.55,-256.8"/>
<polygon fill="grey" stroke="grey" stroke-width="2" points="325.14,-253.69 314.65,-252.19 321.92,-259.9 325.14,-253.69"/>
</g>
<!-- 15&#45;&gt;13 -->
<g id="edge16" class="edge">
<title>15&#45;&gt;13</title>
<path fill="none" stroke="grey" stroke-width="2" d="M304.84,-287.7C301.31,-279.73 297.04,-270.1 293.13,-261.26"/>
<polygon fill="grey" stroke="grey" stroke-width="2" points="296.32,-259.83 289.07,-252.1 289.92,-262.67 296.32,-259.83"/>
</g>
<!-- 17 -->
<g id="node18" class="node">
<title>17</title>
<path fill="none" stroke="#c6d856" stroke-width="2" d="M369,-108C369,-108 312,-108 312,-108 306,-108 300,-102 300,-96 300,-96 300,-84 300,-84 300,-78 306,-72 312,-72 312,-72 369,-72 369,-72 375,-72 381,-78 381,-84 381,-84 381,-96 381,-96 381,-102 375,-108 369,-108"/>
<text text-anchor="middle" x="340.5" y="-87.5" font-family="sans" font-size="10.00">qcreport_plot</text>
</g>
<!-- 16&#45;&gt;17 -->
<g id="edge22" class="edge">
<title>16&#45;&gt;17</title>
<path fill="none" stroke="grey" stroke-width="2" d="M287.05,-143.7C295.73,-135.14 306.36,-124.66 315.85,-115.3"/>
<polygon fill="grey" stroke="grey" stroke-width="2" points="318.49,-117.62 323.15,-108.1 313.57,-112.63 318.49,-117.62"/>
</g>
<!-- 26 -->
<g id="node27" class="node">
<title>26</title>
<path fill="none" stroke="#ced856" stroke-width="2" d="M421,-36C421,-36 328,-36 328,-36 322,-36 316,-30 316,-24 316,-24 316,-12 316,-12 316,-6 322,0 328,0 328,0 421,0 421,0 427,0 433,-6 433,-12 433,-12 433,-24 433,-24 433,-30 427,-36 421,-36"/>
<text text-anchor="middle" x="374.5" y="-15.5" font-family="sans" font-size="10.00">profiling_bracken_all</text>
</g>
<!-- 16&#45;&gt;26 -->
<g id="edge35" class="edge">
<title>16&#45;&gt;26</title>
<path fill="none" stroke="grey" stroke-width="2" d="M269.79,-143.69C270.91,-124.5 275.19,-93.45 290.5,-72 299.37,-59.57 312.16,-49.4 325.09,-41.41"/>
<polygon fill="grey" stroke="grey" stroke-width="2" points="327.13,-44.27 334.02,-36.22 323.61,-38.22 327.13,-44.27"/>
</g>
<!-- 17&#45;&gt;26 -->
<g id="edge36" class="edge">
<title>17&#45;&gt;26</title>
<path fill="none" stroke="grey" stroke-width="2" d="M348.9,-71.7C352.77,-63.73 357.45,-54.1 361.74,-45.26"/>
<polygon fill="grey" stroke="grey" stroke-width="2" points="364.97,-46.63 366.19,-36.1 358.67,-43.57 364.97,-46.63"/>
</g>
<!-- 21 -->
<g id="node22" class="node">
<title>21</title>
<path fill="none" stroke="#56d8b1" stroke-width="2" d="M802.5,-252C802.5,-252 726.5,-252 726.5,-252 720.5,-252 714.5,-246 714.5,-240 714.5,-240 714.5,-228 714.5,-228 714.5,-222 720.5,-216 726.5,-216 726.5,-216 802.5,-216 802.5,-216 808.5,-216 814.5,-222 814.5,-228 814.5,-228 814.5,-240 814.5,-240 814.5,-246 808.5,-252 802.5,-252"/>
<text text-anchor="middle" x="764.5" y="-237" font-family="sans" font-size="10.00">profiling_bracken</text>
<text text-anchor="middle" x="764.5" y="-226" font-family="sans" font-size="10.00">level: G</text>
</g>
<!-- 18&#45;&gt;21 -->
<g id="edge27" class="edge">
<title>18&#45;&gt;21</title>
<path fill="none" stroke="grey" stroke-width="2" d="M676.12,-287.88C691.42,-278.72 710.44,-267.34 726.92,-257.48"/>
<polygon fill="grey" stroke="grey" stroke-width="2" points="728.98,-260.33 735.77,-252.19 725.39,-254.32 728.98,-260.33"/>
</g>
<!-- 24 -->
<g id="node25" class="node">
<title>24</title>
<path fill="none" stroke="#56d8b1" stroke-width="2" d="M684.5,-252C684.5,-252 608.5,-252 608.5,-252 602.5,-252 596.5,-246 596.5,-240 596.5,-240 596.5,-228 596.5,-228 596.5,-222 602.5,-216 608.5,-216 608.5,-216 684.5,-216 684.5,-216 690.5,-216 696.5,-222 696.5,-228 696.5,-228 696.5,-240 696.5,-240 696.5,-246 690.5,-252 684.5,-252"/>
<text text-anchor="middle" x="646.5" y="-237" font-family="sans" font-size="10.00">profiling_bracken</text>
<text text-anchor="middle" x="646.5" y="-226" font-family="sans" font-size="10.00">level: S</text>
</g>
<!-- 18&#45;&gt;24 -->
<g id="edge31" class="edge">
<title>18&#45;&gt;24</title>
<path fill="none" stroke="grey" stroke-width="2" d="M647.25,-287.7C647.14,-279.98 647.01,-270.71 646.89,-262.11"/>
<polygon fill="grey" stroke="grey" stroke-width="2" points="650.39,-262.05 646.74,-252.1 643.39,-262.15 650.39,-262.05"/>
</g>
<!-- 22 -->
<g id="node23" class="node">
<title>22</title>
<path fill="none" stroke="#56d8b1" stroke-width="2" d="M566.5,-252C566.5,-252 490.5,-252 490.5,-252 484.5,-252 478.5,-246 478.5,-240 478.5,-240 478.5,-228 478.5,-228 478.5,-222 484.5,-216 490.5,-216 490.5,-216 566.5,-216 566.5,-216 572.5,-216 578.5,-222 578.5,-228 578.5,-228 578.5,-240 578.5,-240 578.5,-246 572.5,-252 566.5,-252"/>
<text text-anchor="middle" x="528.5" y="-237" font-family="sans" font-size="10.00">profiling_bracken</text>
<text text-anchor="middle" x="528.5" y="-226" font-family="sans" font-size="10.00">level: G</text>
</g>
<!-- 19&#45;&gt;22 -->
<g id="edge28" class="edge">
<title>19&#45;&gt;22</title>
<path fill="none" stroke="grey" stroke-width="2" d="M528.5,-287.7C528.5,-279.98 528.5,-270.71 528.5,-262.11"/>
<polygon fill="grey" stroke="grey" stroke-width="2" points="532,-262.1 528.5,-252.1 525,-262.1 532,-262.1"/>
</g>
<!-- 25 -->
<g id="node26" class="node">
<title>25</title>
<path fill="none" stroke="#56d8b1" stroke-width="2" d="M448.5,-252C448.5,-252 372.5,-252 372.5,-252 366.5,-252 360.5,-246 360.5,-240 360.5,-240 360.5,-228 360.5,-228 360.5,-222 366.5,-216 372.5,-216 372.5,-216 448.5,-216 448.5,-216 454.5,-216 460.5,-222 460.5,-228 460.5,-228 460.5,-240 460.5,-240 460.5,-246 454.5,-252 448.5,-252"/>
<text text-anchor="middle" x="410.5" y="-237" font-family="sans" font-size="10.00">profiling_bracken</text>
<text text-anchor="middle" x="410.5" y="-226" font-family="sans" font-size="10.00">level: S</text>
</g>
<!-- 19&#45;&gt;25 -->
<g id="edge32" class="edge">
<title>19&#45;&gt;25</title>
<path fill="none" stroke="grey" stroke-width="2" d="M499.63,-287.88C484.21,-278.72 465.02,-267.34 448.4,-257.48"/>
<polygon fill="grey" stroke="grey" stroke-width="2" points="449.86,-254.28 439.48,-252.19 446.29,-260.3 449.86,-254.28"/>
</g>
<!-- 20 -->
<g id="node21" class="node">
<title>20</title>
<path fill="none" stroke="#56d8b9" stroke-width="2" d="M622,-180C622,-180 509,-180 509,-180 503,-180 497,-174 497,-168 497,-168 497,-156 497,-156 497,-150 503,-144 509,-144 509,-144 622,-144 622,-144 628,-144 634,-150 634,-156 634,-156 634,-168 634,-168 634,-174 628,-180 622,-180"/>
<text text-anchor="middle" x="565.5" y="-159.5" font-family="sans" font-size="10.00">profiling_bracken_merge</text>
</g>
<!-- 20&#45;&gt;26 -->
<g id="edge33" class="edge">
<title>20&#45;&gt;26</title>
<path fill="none" stroke="grey" stroke-width="2" d="M542.46,-143.87C508.33,-118.5 444.25,-70.85 405.86,-42.32"/>
<polygon fill="grey" stroke="grey" stroke-width="2" points="407.73,-39.35 397.62,-36.19 403.56,-44.96 407.73,-39.35"/>
</g>
<!-- 21&#45;&gt;20 -->
<g id="edge25" class="edge">
<title>21&#45;&gt;20</title>
<path fill="none" stroke="grey" stroke-width="2" d="M716.07,-215.97C688.27,-206.19 653.16,-193.84 623.85,-183.52"/>
<polygon fill="grey" stroke="grey" stroke-width="2" points="624.74,-180.13 614.14,-180.11 622.42,-186.73 624.74,-180.13"/>
</g>
<!-- 22&#45;&gt;20 -->
<g id="edge26" class="edge">
<title>22&#45;&gt;20</title>
<path fill="none" stroke="grey" stroke-width="2" d="M537.65,-215.7C541.9,-207.64 547.06,-197.89 551.77,-188.98"/>
<polygon fill="grey" stroke="grey" stroke-width="2" points="554.88,-190.58 556.46,-180.1 548.69,-187.31 554.88,-190.58"/>
</g>
<!-- 23 -->
<g id="node24" class="node">
<title>23</title>
<path fill="none" stroke="#56d8b9" stroke-width="2" d="M467,-180C467,-180 354,-180 354,-180 348,-180 342,-174 342,-168 342,-168 342,-156 342,-156 342,-150 348,-144 354,-144 354,-144 467,-144 467,-144 473,-144 479,-150 479,-156 479,-156 479,-168 479,-168 479,-174 473,-180 467,-180"/>
<text text-anchor="middle" x="410.5" y="-159.5" font-family="sans" font-size="10.00">profiling_bracken_merge</text>
</g>
<!-- 23&#45;&gt;26 -->
<g id="edge34" class="edge">
<title>23&#45;&gt;26</title>
<path fill="none" stroke="grey" stroke-width="2" d="M406.7,-143.88C402.65,-125.92 395.96,-96.89 389.5,-72 387.28,-63.44 384.71,-54.16 382.33,-45.79"/>
<polygon fill="grey" stroke="grey" stroke-width="2" points="385.68,-44.78 379.56,-36.13 378.95,-46.71 385.68,-44.78"/>
</g>
<!-- 24&#45;&gt;23 -->
<g id="edge29" class="edge">
<title>24&#45;&gt;23</title>
<path fill="none" stroke="grey" stroke-width="2" d="M596.45,-218.15C561.92,-207.91 515.62,-194.18 477.85,-182.98"/>
<polygon fill="grey" stroke="grey" stroke-width="2" points="478.53,-179.53 467.95,-180.04 476.54,-186.24 478.53,-179.53"/>
</g>
<!-- 25&#45;&gt;23 -->
<g id="edge30" class="edge">
<title>25&#45;&gt;23</title>
<path fill="none" stroke="grey" stroke-width="2" d="M410.5,-215.7C410.5,-207.98 410.5,-198.71 410.5,-190.11"/>
<polygon fill="grey" stroke="grey" stroke-width="2" points="414,-190.1 410.5,-180.1 407,-190.1 414,-190.1"/>
</g>
</g>
</svg>
