<?xml version="1.0" encoding="UTF-8" standalone="no"?>
<!DOCTYPE svg PUBLIC "-//W3C//DTD SVG 1.1//EN"
 "http://www.w3.org/Graphics/SVG/1.1/DTD/svg11.dtd">
<!-- Generated by graphviz version 3.0.0 (20220315.2325)
 -->
<!-- Title: snakemake_dag Pages: 1 -->
<svg width="502pt" height="381pt"
 viewBox="0.00 0.00 722.50 548.00" xmlns="http://www.w3.org/2000/svg" xmlns:xlink="http://www.w3.org/1999/xlink">
<g id="graph0" class="graph" transform="scale(0.694444 0.694444) rotate(0) translate(4 544)">
<title>snakemake_dag</title>
<polygon fill="white" stroke="transparent" points="-4,4 -4,-544 718.5,-544 718.5,4 -4,4"/>
<!-- 0 -->
<g id="node1" class="node">
<title>0</title>
<path fill="none" stroke="#5673d8" stroke-width="2" d="M106.5,-396C106.5,-396 24.5,-396 24.5,-396 18.5,-396 12.5,-390 12.5,-384 12.5,-384 12.5,-372 12.5,-372 12.5,-366 18.5,-360 24.5,-360 24.5,-360 106.5,-360 106.5,-360 112.5,-360 118.5,-366 118.5,-372 118.5,-372 118.5,-384 118.5,-384 118.5,-390 112.5,-396 106.5,-396"/>
<text text-anchor="middle" x="65.5" y="-375.5" font-family="sans" font-size="10.00">raw_report_merge</text>
</g>
<!-- 16 -->
<g id="node17" class="node">
<title>16</title>
<path fill="none" stroke="#56b1d8" stroke-width="2" d="M244,-180C244,-180 159,-180 159,-180 153,-180 147,-174 147,-168 147,-168 147,-156 147,-156 147,-150 153,-144 159,-144 159,-144 244,-144 244,-144 250,-144 256,-150 256,-156 256,-156 256,-168 256,-168 256,-174 250,-180 244,-180"/>
<text text-anchor="middle" x="201.5" y="-159.5" font-family="sans" font-size="10.00">qcreport_summary</text>
</g>
<!-- 0&#45;&gt;16 -->
<g id="edge19" class="edge">
<title>0&#45;&gt;16</title>
<path fill="none" stroke="grey" stroke-width="2" d="M67.21,-359.7C69.63,-341.07 75.2,-311.02 87.5,-288 109.08,-247.62 146.65,-210.07 172.73,-186.88"/>
<polygon fill="grey" stroke="grey" stroke-width="2" points="175.2,-189.37 180.42,-180.15 170.59,-184.1 175.2,-189.37"/>
</g>
<!-- 1 -->
<g id="node2" class="node">
<title>1</title>
<path fill="none" stroke="#569ad8" stroke-width="2" d="M57,-468C57,-468 12,-468 12,-468 6,-468 0,-462 0,-456 0,-456 0,-444 0,-444 0,-438 6,-432 12,-432 12,-432 57,-432 57,-432 63,-432 69,-438 69,-444 69,-444 69,-456 69,-456 69,-462 63,-468 57,-468"/>
<text text-anchor="middle" x="34.5" y="-447.5" font-family="sans" font-size="10.00">raw_report</text>
</g>
<!-- 1&#45;&gt;0 -->
<g id="edge1" class="edge">
<title>1&#45;&gt;0</title>
<path fill="none" stroke="grey" stroke-width="2" d="M42.16,-431.7C45.69,-423.73 49.96,-414.1 53.87,-405.26"/>
<polygon fill="grey" stroke="grey" stroke-width="2" points="57.08,-406.67 57.93,-396.1 50.68,-403.83 57.08,-406.67"/>
</g>
<!-- 2 -->
<g id="node3" class="node">
<title>2</title>
<path fill="none" stroke="#56d8b1" stroke-width="2" stroke-dasharray="5,2" d="M161.5,-540C161.5,-540 69.5,-540 69.5,-540 63.5,-540 57.5,-534 57.5,-528 57.5,-528 57.5,-516 57.5,-516 57.5,-510 63.5,-504 69.5,-504 69.5,-504 161.5,-504 161.5,-504 167.5,-504 173.5,-510 173.5,-516 173.5,-516 173.5,-528 173.5,-528 173.5,-534 167.5,-540 161.5,-540"/>
<text text-anchor="middle" x="115.5" y="-525" font-family="sans" font-size="10.00">prepare_short_reads</text>
<text text-anchor="middle" x="115.5" y="-514" font-family="sans" font-size="10.00">sample: bg1_ag1_s1</text>
</g>
<!-- 2&#45;&gt;1 -->
<g id="edge3" class="edge">
<title>2&#45;&gt;1</title>
<path fill="none" stroke="grey" stroke-width="2" d="M95.48,-503.7C85.37,-494.97 72.96,-484.24 61.98,-474.75"/>
<polygon fill="grey" stroke="grey" stroke-width="2" points="64.15,-471.99 54.29,-468.1 59.57,-477.29 64.15,-471.99"/>
</g>
<!-- 5 -->
<g id="node6" class="node">
<title>5</title>
<path fill="none" stroke="#d87556" stroke-width="2" d="M254.5,-468C254.5,-468 186.5,-468 186.5,-468 180.5,-468 174.5,-462 174.5,-456 174.5,-456 174.5,-444 174.5,-444 174.5,-438 180.5,-432 186.5,-432 186.5,-432 254.5,-432 254.5,-432 260.5,-432 266.5,-438 266.5,-444 266.5,-444 266.5,-456 266.5,-456 266.5,-462 260.5,-468 254.5,-468"/>
<text text-anchor="middle" x="220.5" y="-447.5" font-family="sans" font-size="10.00">trimming_fastp</text>
</g>
<!-- 2&#45;&gt;5 -->
<g id="edge5" class="edge">
<title>2&#45;&gt;5</title>
<path fill="none" stroke="grey" stroke-width="2" d="M141.19,-503.88C154.79,-494.81 171.67,-483.55 186.36,-473.76"/>
<polygon fill="grey" stroke="grey" stroke-width="2" points="188.34,-476.65 194.72,-468.19 184.45,-470.82 188.34,-476.65"/>
</g>
<!-- 3 -->
<g id="node4" class="node">
<title>3</title>
<path fill="none" stroke="#569ad8" stroke-width="2" d="M144,-468C144,-468 99,-468 99,-468 93,-468 87,-462 87,-456 87,-456 87,-444 87,-444 87,-438 93,-432 99,-432 99,-432 144,-432 144,-432 150,-432 156,-438 156,-444 156,-444 156,-456 156,-456 156,-462 150,-468 144,-468"/>
<text text-anchor="middle" x="121.5" y="-447.5" font-family="sans" font-size="10.00">raw_report</text>
</g>
<!-- 3&#45;&gt;0 -->
<g id="edge2" class="edge">
<title>3&#45;&gt;0</title>
<path fill="none" stroke="grey" stroke-width="2" d="M107.66,-431.7C101.01,-423.39 92.92,-413.28 85.61,-404.14"/>
<polygon fill="grey" stroke="grey" stroke-width="2" points="88.16,-401.73 79.18,-396.1 82.7,-406.1 88.16,-401.73"/>
</g>
<!-- 4 -->
<g id="node5" class="node">
<title>4</title>
<path fill="none" stroke="#56d8b1" stroke-width="2" stroke-dasharray="5,2" d="M335.5,-540C335.5,-540 243.5,-540 243.5,-540 237.5,-540 231.5,-534 231.5,-528 231.5,-528 231.5,-516 231.5,-516 231.5,-510 237.5,-504 243.5,-504 243.5,-504 335.5,-504 335.5,-504 341.5,-504 347.5,-510 347.5,-516 347.5,-516 347.5,-528 347.5,-528 347.5,-534 341.5,-540 335.5,-540"/>
<text text-anchor="middle" x="289.5" y="-525" font-family="sans" font-size="10.00">prepare_short_reads</text>
<text text-anchor="middle" x="289.5" y="-514" font-family="sans" font-size="10.00">sample: bg1_ag1_s2</text>
</g>
<!-- 4&#45;&gt;3 -->
<g id="edge4" class="edge">
<title>4&#45;&gt;3</title>
<path fill="none" stroke="grey" stroke-width="2" d="M248.4,-503.88C223.34,-493.43 191.3,-480.08 165.69,-469.41"/>
<polygon fill="grey" stroke="grey" stroke-width="2" points="166.8,-466.08 156.22,-465.47 164.1,-472.54 166.8,-466.08"/>
</g>
<!-- 6 -->
<g id="node7" class="node">
<title>6</title>
<path fill="none" stroke="#d87556" stroke-width="2" d="M364.5,-468C364.5,-468 296.5,-468 296.5,-468 290.5,-468 284.5,-462 284.5,-456 284.5,-456 284.5,-444 284.5,-444 284.5,-438 290.5,-432 296.5,-432 296.5,-432 364.5,-432 364.5,-432 370.5,-432 376.5,-438 376.5,-444 376.5,-444 376.5,-456 376.5,-456 376.5,-462 370.5,-468 364.5,-468"/>
<text text-anchor="middle" x="330.5" y="-447.5" font-family="sans" font-size="10.00">trimming_fastp</text>
</g>
<!-- 4&#45;&gt;6 -->
<g id="edge6" class="edge">
<title>4&#45;&gt;6</title>
<path fill="none" stroke="grey" stroke-width="2" d="M299.63,-503.7C304.35,-495.64 310.06,-485.89 315.28,-476.98"/>
<polygon fill="grey" stroke="grey" stroke-width="2" points="318.45,-478.5 320.48,-468.1 312.41,-474.96 318.45,-478.5"/>
</g>
<!-- 8 -->
<g id="node9" class="node">
<title>8</title>
<path fill="none" stroke="#56d8d8" stroke-width="2" d="M220.5,-396C220.5,-396 148.5,-396 148.5,-396 142.5,-396 136.5,-390 136.5,-384 136.5,-384 136.5,-372 136.5,-372 136.5,-366 142.5,-360 148.5,-360 148.5,-360 220.5,-360 220.5,-360 226.5,-360 232.5,-366 232.5,-372 232.5,-372 232.5,-384 232.5,-384 232.5,-390 226.5,-396 220.5,-396"/>
<text text-anchor="middle" x="184.5" y="-375.5" font-family="sans" font-size="10.00">trimming_report</text>
</g>
<!-- 5&#45;&gt;8 -->
<g id="edge9" class="edge">
<title>5&#45;&gt;8</title>
<path fill="none" stroke="grey" stroke-width="2" d="M211.6,-431.7C207.5,-423.73 202.55,-414.1 198.01,-405.26"/>
<polygon fill="grey" stroke="grey" stroke-width="2" points="200.98,-403.4 193.3,-396.1 194.76,-406.6 200.98,-403.4"/>
</g>
<!-- 10 -->
<g id="node11" class="node">
<title>10</title>
<path fill="none" stroke="#566bd8" stroke-width="2" d="M448,-396C448,-396 377,-396 377,-396 371,-396 365,-390 365,-384 365,-384 365,-372 365,-372 365,-366 371,-360 377,-360 377,-360 448,-360 448,-360 454,-360 460,-366 460,-372 460,-372 460,-384 460,-384 460,-390 454,-396 448,-396"/>
<text text-anchor="middle" x="412.5" y="-375.5" font-family="sans" font-size="10.00">rmhost_bowtie2</text>
</g>
<!-- 5&#45;&gt;10 -->
<g id="edge11" class="edge">
<title>5&#45;&gt;10</title>
<path fill="none" stroke="grey" stroke-width="2" d="M266.98,-432.05C293.9,-422.24 327.98,-409.82 356.39,-399.46"/>
<polygon fill="grey" stroke="grey" stroke-width="2" points="357.59,-402.75 365.78,-396.03 355.19,-396.17 357.59,-402.75"/>
</g>
<!-- 9 -->
<g id="node10" class="node">
<title>9</title>
<path fill="none" stroke="#56d8d8" stroke-width="2" d="M334.5,-396C334.5,-396 262.5,-396 262.5,-396 256.5,-396 250.5,-390 250.5,-384 250.5,-384 250.5,-372 250.5,-372 250.5,-366 256.5,-360 262.5,-360 262.5,-360 334.5,-360 334.5,-360 340.5,-360 346.5,-366 346.5,-372 346.5,-372 346.5,-384 346.5,-384 346.5,-390 340.5,-396 334.5,-396"/>
<text text-anchor="middle" x="298.5" y="-375.5" font-family="sans" font-size="10.00">trimming_report</text>
</g>
<!-- 6&#45;&gt;9 -->
<g id="edge10" class="edge">
<title>6&#45;&gt;9</title>
<path fill="none" stroke="grey" stroke-width="2" d="M322.59,-431.7C318.95,-423.73 314.55,-414.1 310.51,-405.26"/>
<polygon fill="grey" stroke="grey" stroke-width="2" points="313.66,-403.74 306.32,-396.1 307.29,-406.65 313.66,-403.74"/>
</g>
<!-- 12 -->
<g id="node13" class="node">
<title>12</title>
<path fill="none" stroke="#566bd8" stroke-width="2" d="M565,-396C565,-396 494,-396 494,-396 488,-396 482,-390 482,-384 482,-384 482,-372 482,-372 482,-366 488,-360 494,-360 494,-360 565,-360 565,-360 571,-360 577,-366 577,-372 577,-372 577,-384 577,-384 577,-390 571,-396 565,-396"/>
<text text-anchor="middle" x="529.5" y="-375.5" font-family="sans" font-size="10.00">rmhost_bowtie2</text>
</g>
<!-- 6&#45;&gt;12 -->
<g id="edge13" class="edge">
<title>6&#45;&gt;12</title>
<path fill="none" stroke="grey" stroke-width="2" d="M376.65,-432.76C405.15,-422.74 441.92,-409.81 472.26,-399.13"/>
<polygon fill="grey" stroke="grey" stroke-width="2" points="473.59,-402.38 481.87,-395.76 471.27,-395.77 473.59,-402.38"/>
</g>
<!-- 7 -->
<g id="node8" class="node">
<title>7</title>
<path fill="none" stroke="#56b9d8" stroke-width="2" d="M218,-324C218,-324 109,-324 109,-324 103,-324 97,-318 97,-312 97,-312 97,-300 97,-300 97,-294 103,-288 109,-288 109,-288 218,-288 218,-288 224,-288 230,-294 230,-300 230,-300 230,-312 230,-312 230,-318 224,-324 218,-324"/>
<text text-anchor="middle" x="163.5" y="-303.5" font-family="sans" font-size="10.00">trimming_report_merge</text>
</g>
<!-- 7&#45;&gt;16 -->
<g id="edge20" class="edge">
<title>7&#45;&gt;16</title>
<path fill="none" stroke="grey" stroke-width="2" d="M168.08,-287.87C174.59,-263.56 186.56,-218.82 194.27,-190.01"/>
<polygon fill="grey" stroke="grey" stroke-width="2" points="197.7,-190.75 196.9,-180.19 190.93,-188.94 197.7,-190.75"/>
</g>
<!-- 8&#45;&gt;7 -->
<g id="edge7" class="edge">
<title>8&#45;&gt;7</title>
<path fill="none" stroke="grey" stroke-width="2" d="M179.31,-359.7C176.97,-351.9 174.15,-342.51 171.55,-333.83"/>
<polygon fill="grey" stroke="grey" stroke-width="2" points="174.86,-332.68 168.63,-324.1 168.15,-334.69 174.86,-332.68"/>
</g>
<!-- 9&#45;&gt;7 -->
<g id="edge8" class="edge">
<title>9&#45;&gt;7</title>
<path fill="none" stroke="grey" stroke-width="2" d="M265.48,-359.88C247.42,-350.51 224.85,-338.81 205.55,-328.8"/>
<polygon fill="grey" stroke="grey" stroke-width="2" points="207.14,-325.69 196.65,-324.19 203.92,-331.9 207.14,-325.69"/>
</g>
<!-- 14 -->
<g id="node15" class="node">
<title>14</title>
<path fill="none" stroke="#56d8c1" stroke-width="2" d="M322.5,-324C322.5,-324 260.5,-324 260.5,-324 254.5,-324 248.5,-318 248.5,-312 248.5,-312 248.5,-300 248.5,-300 248.5,-294 254.5,-288 260.5,-288 260.5,-288 322.5,-288 322.5,-288 328.5,-288 334.5,-294 334.5,-300 334.5,-300 334.5,-312 334.5,-312 334.5,-318 328.5,-324 322.5,-324"/>
<text text-anchor="middle" x="291.5" y="-303.5" font-family="sans" font-size="10.00">rmhost_report</text>
</g>
<!-- 10&#45;&gt;14 -->
<g id="edge17" class="edge">
<title>10&#45;&gt;14</title>
<path fill="none" stroke="grey" stroke-width="2" d="M382.9,-359.88C366.93,-350.64 347.04,-339.13 329.89,-329.21"/>
<polygon fill="grey" stroke="grey" stroke-width="2" points="331.62,-326.17 321.21,-324.19 328.12,-332.23 331.62,-326.17"/>
</g>
<!-- 19 -->
<g id="node20" class="node">
<title>19</title>
<path fill="none" stroke="#56d873" stroke-width="2" d="M460.5,-324C460.5,-324 364.5,-324 364.5,-324 358.5,-324 352.5,-318 352.5,-312 352.5,-312 352.5,-300 352.5,-300 352.5,-294 358.5,-288 364.5,-288 364.5,-288 460.5,-288 460.5,-288 466.5,-288 472.5,-294 472.5,-300 472.5,-300 472.5,-312 472.5,-312 472.5,-318 466.5,-324 460.5,-324"/>
<text text-anchor="middle" x="412.5" y="-303.5" font-family="sans" font-size="10.00">profiling_metaphlan3</text>
</g>
<!-- 10&#45;&gt;19 -->
<g id="edge25" class="edge">
<title>10&#45;&gt;19</title>
<path fill="none" stroke="grey" stroke-width="2" d="M412.5,-359.7C412.5,-351.98 412.5,-342.71 412.5,-334.11"/>
<polygon fill="grey" stroke="grey" stroke-width="2" points="416,-334.1 412.5,-324.1 409,-334.1 416,-334.1"/>
</g>
<!-- 11 -->
<g id="node12" class="node">
<title>11</title>
<path fill="none" stroke="#d8c356" stroke-width="2" stroke-dasharray="5,2" d="M543.5,-468C543.5,-468 439.5,-468 439.5,-468 433.5,-468 427.5,-462 427.5,-456 427.5,-456 427.5,-444 427.5,-444 427.5,-438 433.5,-432 439.5,-432 439.5,-432 543.5,-432 543.5,-432 549.5,-432 555.5,-438 555.5,-444 555.5,-444 555.5,-456 555.5,-456 555.5,-462 549.5,-468 543.5,-468"/>
<text text-anchor="middle" x="491.5" y="-447.5" font-family="sans" font-size="10.00">rmhost_bowtie2_index</text>
</g>
<!-- 11&#45;&gt;10 -->
<g id="edge12" class="edge">
<title>11&#45;&gt;10</title>
<path fill="none" stroke="grey" stroke-width="2" d="M471.97,-431.7C462.12,-422.97 450.01,-412.24 439.3,-402.75"/>
<polygon fill="grey" stroke="grey" stroke-width="2" points="441.61,-400.12 431.8,-396.1 436.97,-405.36 441.61,-400.12"/>
</g>
<!-- 11&#45;&gt;12 -->
<g id="edge14" class="edge">
<title>11&#45;&gt;12</title>
<path fill="none" stroke="grey" stroke-width="2" d="M500.89,-431.7C505.26,-423.64 510.56,-413.89 515.4,-404.98"/>
<polygon fill="grey" stroke="grey" stroke-width="2" points="518.52,-406.56 520.21,-396.1 512.37,-403.22 518.52,-406.56"/>
</g>
<!-- 15 -->
<g id="node16" class="node">
<title>15</title>
<path fill="none" stroke="#56d8c1" stroke-width="2" d="M564.5,-324C564.5,-324 502.5,-324 502.5,-324 496.5,-324 490.5,-318 490.5,-312 490.5,-312 490.5,-300 490.5,-300 490.5,-294 496.5,-288 502.5,-288 502.5,-288 564.5,-288 564.5,-288 570.5,-288 576.5,-294 576.5,-300 576.5,-300 576.5,-312 576.5,-312 576.5,-318 570.5,-324 564.5,-324"/>
<text text-anchor="middle" x="533.5" y="-303.5" font-family="sans" font-size="10.00">rmhost_report</text>
</g>
<!-- 12&#45;&gt;15 -->
<g id="edge18" class="edge">
<title>12&#45;&gt;15</title>
<path fill="none" stroke="grey" stroke-width="2" d="M530.49,-359.7C530.93,-351.98 531.46,-342.71 531.95,-334.11"/>
<polygon fill="grey" stroke="grey" stroke-width="2" points="535.45,-334.29 532.52,-324.1 528.46,-333.89 535.45,-334.29"/>
</g>
<!-- 20 -->
<g id="node21" class="node">
<title>20</title>
<path fill="none" stroke="#56d873" stroke-width="2" d="M702.5,-324C702.5,-324 606.5,-324 606.5,-324 600.5,-324 594.5,-318 594.5,-312 594.5,-312 594.5,-300 594.5,-300 594.5,-294 600.5,-288 606.5,-288 606.5,-288 702.5,-288 702.5,-288 708.5,-288 714.5,-294 714.5,-300 714.5,-300 714.5,-312 714.5,-312 714.5,-318 708.5,-324 702.5,-324"/>
<text text-anchor="middle" x="654.5" y="-303.5" font-family="sans" font-size="10.00">profiling_metaphlan3</text>
</g>
<!-- 12&#45;&gt;20 -->
<g id="edge26" class="edge">
<title>12&#45;&gt;20</title>
<path fill="none" stroke="grey" stroke-width="2" d="M560.08,-359.88C576.57,-350.64 597.12,-339.13 614.84,-329.21"/>
<polygon fill="grey" stroke="grey" stroke-width="2" points="616.79,-332.13 623.8,-324.19 613.37,-326.02 616.79,-332.13"/>
</g>
<!-- 13 -->
<g id="node14" class="node">
<title>13</title>
<path fill="none" stroke="#80d856" stroke-width="2" d="M321.5,-252C321.5,-252 223.5,-252 223.5,-252 217.5,-252 211.5,-246 211.5,-240 211.5,-240 211.5,-228 211.5,-228 211.5,-222 217.5,-216 223.5,-216 223.5,-216 321.5,-216 321.5,-216 327.5,-216 333.5,-222 333.5,-228 333.5,-228 333.5,-240 333.5,-240 333.5,-246 327.5,-252 321.5,-252"/>
<text text-anchor="middle" x="272.5" y="-231.5" font-family="sans" font-size="10.00">rmhost_report_merge</text>
</g>
<!-- 13&#45;&gt;16 -->
<g id="edge21" class="edge">
<title>13&#45;&gt;16</title>
<path fill="none" stroke="grey" stroke-width="2" d="M254.95,-215.7C246.27,-207.14 235.64,-196.66 226.15,-187.3"/>
<polygon fill="grey" stroke="grey" stroke-width="2" points="228.43,-184.63 218.85,-180.1 223.51,-189.62 228.43,-184.63"/>
</g>
<!-- 14&#45;&gt;13 -->
<g id="edge15" class="edge">
<title>14&#45;&gt;13</title>
<path fill="none" stroke="grey" stroke-width="2" d="M286.8,-287.7C284.69,-279.9 282.14,-270.51 279.78,-261.83"/>
<polygon fill="grey" stroke="grey" stroke-width="2" points="283.14,-260.84 277.14,-252.1 276.38,-262.67 283.14,-260.84"/>
</g>
<!-- 15&#45;&gt;13 -->
<g id="edge16" class="edge">
<title>15&#45;&gt;13</title>
<path fill="none" stroke="grey" stroke-width="2" d="M490.44,-290.67C487.42,-289.75 484.42,-288.85 481.5,-288 455.76,-280.54 393.42,-264.84 343.48,-252.45"/>
<polygon fill="grey" stroke="grey" stroke-width="2" points="344.22,-249.03 333.67,-250.03 342.53,-255.83 344.22,-249.03"/>
</g>
<!-- 17 -->
<g id="node18" class="node">
<title>17</title>
<path fill="none" stroke="#56d892" stroke-width="2" d="M299,-108C299,-108 242,-108 242,-108 236,-108 230,-102 230,-96 230,-96 230,-84 230,-84 230,-78 236,-72 242,-72 242,-72 299,-72 299,-72 305,-72 311,-78 311,-84 311,-84 311,-96 311,-96 311,-102 305,-108 299,-108"/>
<text text-anchor="middle" x="270.5" y="-87.5" font-family="sans" font-size="10.00">qcreport_plot</text>
</g>
<!-- 16&#45;&gt;17 -->
<g id="edge22" class="edge">
<title>16&#45;&gt;17</title>
<path fill="none" stroke="grey" stroke-width="2" d="M218.56,-143.7C227,-135.14 237.32,-124.66 246.54,-115.3"/>
<polygon fill="grey" stroke="grey" stroke-width="2" points="249.11,-117.68 253.64,-108.1 244.13,-112.77 249.11,-117.68"/>
</g>
<!-- 21 -->
<g id="node22" class="node">
<title>21</title>
<path fill="none" stroke="#c6d856" stroke-width="2" d="M327,-36C327,-36 214,-36 214,-36 208,-36 202,-30 202,-24 202,-24 202,-12 202,-12 202,-6 208,0 214,0 214,0 327,0 327,0 333,0 339,-6 339,-12 339,-12 339,-24 339,-24 339,-30 333,-36 327,-36"/>
<text text-anchor="middle" x="270.5" y="-15.5" font-family="sans" font-size="10.00">profiling_metaphlan3_all</text>
</g>
<!-- 16&#45;&gt;21 -->
<g id="edge28" class="edge">
<title>16&#45;&gt;21</title>
<path fill="none" stroke="grey" stroke-width="2" d="M202.43,-143.67C204.05,-125.02 208.46,-94.94 220.5,-72 225.99,-61.54 234.13,-51.65 242.26,-43.32"/>
<polygon fill="grey" stroke="grey" stroke-width="2" points="244.92,-45.61 249.64,-36.13 240.03,-40.6 244.92,-45.61"/>
</g>
<!-- 17&#45;&gt;21 -->
<g id="edge29" class="edge">
<title>17&#45;&gt;21</title>
<path fill="none" stroke="grey" stroke-width="2" d="M270.5,-71.7C270.5,-63.98 270.5,-54.71 270.5,-46.11"/>
<polygon fill="grey" stroke="grey" stroke-width="2" points="274,-46.1 270.5,-36.1 267,-46.1 274,-46.1"/>
</g>
<!-- 18 -->
<g id="node19" class="node">
<title>18</title>
<path fill="none" stroke="#d8bc56" stroke-width="2" d="M497,-252C497,-252 364,-252 364,-252 358,-252 352,-246 352,-240 352,-240 352,-228 352,-228 352,-222 358,-216 364,-216 364,-216 497,-216 497,-216 503,-216 509,-222 509,-228 509,-228 509,-240 509,-240 509,-246 503,-252 497,-252"/>
<text text-anchor="middle" x="430.5" y="-231.5" font-family="sans" font-size="10.00">profiling_metaphlan3_merge</text>
</g>
<!-- 18&#45;&gt;21 -->
<g id="edge27" class="edge">
<title>18&#45;&gt;21</title>
<path fill="none" stroke="grey" stroke-width="2" d="M419.91,-215.98C400.99,-185.98 359.59,-122.1 319.5,-72 311.75,-62.31 302.66,-52.19 294.44,-43.42"/>
<polygon fill="grey" stroke="grey" stroke-width="2" points="296.91,-40.94 287.48,-36.11 291.84,-45.77 296.91,-40.94"/>
</g>
<!-- 19&#45;&gt;18 -->
<g id="edge23" class="edge">
<title>19&#45;&gt;18</title>
<path fill="none" stroke="grey" stroke-width="2" d="M416.95,-287.7C418.95,-279.9 421.37,-270.51 423.6,-261.83"/>
<polygon fill="grey" stroke="grey" stroke-width="2" points="427,-262.66 426.1,-252.1 420.22,-260.92 427,-262.66"/>
</g>
<!-- 20&#45;&gt;18 -->
<g id="edge24" class="edge">
<title>20&#45;&gt;18</title>
<path fill="none" stroke="grey" stroke-width="2" d="M599.99,-287.97C568.28,-278.06 528.14,-265.51 494.89,-255.12"/>
<polygon fill="grey" stroke="grey" stroke-width="2" points="495.84,-251.75 485.25,-252.11 493.76,-258.43 495.84,-251.75"/>
</g>
</g>
</svg>
