<?xml version="1.0" encoding="UTF-8" standalone="no"?>
<!DOCTYPE svg PUBLIC "-//W3C//DTD SVG 1.1//EN"
 "http://www.w3.org/Graphics/SVG/1.1/DTD/svg11.dtd">
<!-- Generated by graphviz version 3.0.0 (20220315.2325)
 -->
<!-- Title: snakemake_dag Pages: 1 -->
<svg width="1492pt" height="381pt"
 viewBox="0.00 0.00 2148.00 548.00" xmlns="http://www.w3.org/2000/svg" xmlns:xlink="http://www.w3.org/1999/xlink">
<g id="graph0" class="graph" transform="scale(0.694444 0.694444) rotate(0) translate(4 544)">
<title>snakemake_dag</title>
<polygon fill="white" stroke="transparent" points="-4,4 -4,-544 2144,-544 2144,4 -4,4"/>
<!-- 0 -->
<g id="node1" class="node">
<title>0</title>
<path fill="none" stroke="#ced856" stroke-width="2" stroke-dasharray="5,2" d="M1030,-540C1030,-540 938,-540 938,-540 932,-540 926,-534 926,-528 926,-528 926,-516 926,-516 926,-510 932,-504 938,-504 938,-504 1030,-504 1030,-504 1036,-504 1042,-510 1042,-516 1042,-516 1042,-528 1042,-528 1042,-534 1036,-540 1030,-540"/>
<text text-anchor="middle" x="984" y="-525" font-family="sans" font-size="10.00">prepare_short_reads</text>
<text text-anchor="middle" x="984" y="-514" font-family="sans" font-size="10.00">sample: bg1_ag1_s1</text>
</g>
<!-- 2 -->
<g id="node3" class="node">
<title>2</title>
<path fill="none" stroke="#56d87b" stroke-width="2" d="M1018,-468C1018,-468 950,-468 950,-468 944,-468 938,-462 938,-456 938,-456 938,-444 938,-444 938,-438 944,-432 950,-432 950,-432 1018,-432 1018,-432 1024,-432 1030,-438 1030,-444 1030,-444 1030,-456 1030,-456 1030,-462 1024,-468 1018,-468"/>
<text text-anchor="middle" x="984" y="-447.5" font-family="sans" font-size="10.00">trimming_fastp</text>
</g>
<!-- 0&#45;&gt;2 -->
<g id="edge1" class="edge">
<title>0&#45;&gt;2</title>
<path fill="none" stroke="grey" stroke-width="2" d="M984,-503.7C984,-495.98 984,-486.71 984,-478.11"/>
<polygon fill="grey" stroke="grey" stroke-width="2" points="987.5,-478.1 984,-468.1 980.5,-478.1 987.5,-478.1"/>
</g>
<!-- 1 -->
<g id="node2" class="node">
<title>1</title>
<path fill="none" stroke="#ced856" stroke-width="2" stroke-dasharray="5,2" d="M1310,-540C1310,-540 1218,-540 1218,-540 1212,-540 1206,-534 1206,-528 1206,-528 1206,-516 1206,-516 1206,-510 1212,-504 1218,-504 1218,-504 1310,-504 1310,-504 1316,-504 1322,-510 1322,-516 1322,-516 1322,-528 1322,-528 1322,-534 1316,-540 1310,-540"/>
<text text-anchor="middle" x="1264" y="-525" font-family="sans" font-size="10.00">prepare_short_reads</text>
<text text-anchor="middle" x="1264" y="-514" font-family="sans" font-size="10.00">sample: bg1_ag1_s2</text>
</g>
<!-- 3 -->
<g id="node4" class="node">
<title>3</title>
<path fill="none" stroke="#56d87b" stroke-width="2" d="M1298,-468C1298,-468 1230,-468 1230,-468 1224,-468 1218,-462 1218,-456 1218,-456 1218,-444 1218,-444 1218,-438 1224,-432 1230,-432 1230,-432 1298,-432 1298,-432 1304,-432 1310,-438 1310,-444 1310,-444 1310,-456 1310,-456 1310,-462 1304,-468 1298,-468"/>
<text text-anchor="middle" x="1264" y="-447.5" font-family="sans" font-size="10.00">trimming_fastp</text>
</g>
<!-- 1&#45;&gt;3 -->
<g id="edge2" class="edge">
<title>1&#45;&gt;3</title>
<path fill="none" stroke="grey" stroke-width="2" d="M1264,-503.7C1264,-495.98 1264,-486.71 1264,-478.11"/>
<polygon fill="grey" stroke="grey" stroke-width="2" points="1267.5,-478.1 1264,-468.1 1260.5,-478.1 1267.5,-478.1"/>
</g>
<!-- 4 -->
<g id="node5" class="node">
<title>4</title>
<path fill="none" stroke="#56d8a2" stroke-width="2" d="M1019.5,-396C1019.5,-396 948.5,-396 948.5,-396 942.5,-396 936.5,-390 936.5,-384 936.5,-384 936.5,-372 936.5,-372 936.5,-366 942.5,-360 948.5,-360 948.5,-360 1019.5,-360 1019.5,-360 1025.5,-360 1031.5,-366 1031.5,-372 1031.5,-372 1031.5,-384 1031.5,-384 1031.5,-390 1025.5,-396 1019.5,-396"/>
<text text-anchor="middle" x="984" y="-375.5" font-family="sans" font-size="10.00">rmhost_bowtie2</text>
</g>
<!-- 2&#45;&gt;4 -->
<g id="edge3" class="edge">
<title>2&#45;&gt;4</title>
<path fill="none" stroke="grey" stroke-width="2" d="M984,-431.7C984,-423.98 984,-414.71 984,-406.11"/>
<polygon fill="grey" stroke="grey" stroke-width="2" points="987.5,-406.1 984,-396.1 980.5,-406.1 987.5,-406.1"/>
</g>
<!-- 6 -->
<g id="node7" class="node">
<title>6</title>
<path fill="none" stroke="#56d8a2" stroke-width="2" d="M1299.5,-396C1299.5,-396 1228.5,-396 1228.5,-396 1222.5,-396 1216.5,-390 1216.5,-384 1216.5,-384 1216.5,-372 1216.5,-372 1216.5,-366 1222.5,-360 1228.5,-360 1228.5,-360 1299.5,-360 1299.5,-360 1305.5,-360 1311.5,-366 1311.5,-372 1311.5,-372 1311.5,-384 1311.5,-384 1311.5,-390 1305.5,-396 1299.5,-396"/>
<text text-anchor="middle" x="1264" y="-375.5" font-family="sans" font-size="10.00">rmhost_bowtie2</text>
</g>
<!-- 3&#45;&gt;6 -->
<g id="edge5" class="edge">
<title>3&#45;&gt;6</title>
<path fill="none" stroke="grey" stroke-width="2" d="M1264,-431.7C1264,-423.98 1264,-414.71 1264,-406.11"/>
<polygon fill="grey" stroke="grey" stroke-width="2" points="1267.5,-406.1 1264,-396.1 1260.5,-406.1 1267.5,-406.1"/>
</g>
<!-- 10 -->
<g id="node11" class="node">
<title>10</title>
<path fill="none" stroke="#56d8b1" stroke-width="2" d="M815,-324C815,-324 713,-324 713,-324 707,-324 701,-318 701,-312 701,-312 701,-300 701,-300 701,-294 707,-288 713,-288 713,-288 815,-288 815,-288 821,-288 827,-294 827,-300 827,-300 827,-312 827,-312 827,-318 821,-324 815,-324"/>
<text text-anchor="middle" x="764" y="-309" font-family="sans" font-size="10.00">profiling_kmcp_search</text>
<text text-anchor="middle" x="764" y="-298" font-family="sans" font-size="10.00">kmcp_db: bacteriome</text>
</g>
<!-- 4&#45;&gt;10 -->
<g id="edge13" class="edge">
<title>4&#45;&gt;10</title>
<path fill="none" stroke="grey" stroke-width="2" d="M936.26,-361.81C904.27,-351.63 861.79,-338.11 827.02,-327.05"/>
<polygon fill="grey" stroke="grey" stroke-width="2" points="828.02,-323.7 817.43,-324 825.9,-330.37 828.02,-323.7"/>
</g>
<!-- 11 -->
<g id="node12" class="node">
<title>11</title>
<path fill="none" stroke="#56d8b1" stroke-width="2" d="M959,-324C959,-324 857,-324 857,-324 851,-324 845,-318 845,-312 845,-312 845,-300 845,-300 845,-294 851,-288 857,-288 857,-288 959,-288 959,-288 965,-288 971,-294 971,-300 971,-300 971,-312 971,-312 971,-318 965,-324 959,-324"/>
<text text-anchor="middle" x="908" y="-309" font-family="sans" font-size="10.00">profiling_kmcp_search</text>
<text text-anchor="middle" x="908" y="-298" font-family="sans" font-size="10.00">kmcp_db: mycobiome</text>
</g>
<!-- 4&#45;&gt;11 -->
<g id="edge14" class="edge">
<title>4&#45;&gt;11</title>
<path fill="none" stroke="grey" stroke-width="2" d="M965.21,-359.7C955.83,-351.05 944.32,-340.45 934.09,-331.03"/>
<polygon fill="grey" stroke="grey" stroke-width="2" points="936.3,-328.3 926.57,-324.1 931.55,-333.45 936.3,-328.3"/>
</g>
<!-- 12 -->
<g id="node13" class="node">
<title>12</title>
<path fill="none" stroke="#56d8b1" stroke-width="2" d="M1103,-324C1103,-324 1001,-324 1001,-324 995,-324 989,-318 989,-312 989,-312 989,-300 989,-300 989,-294 995,-288 1001,-288 1001,-288 1103,-288 1103,-288 1109,-288 1115,-294 1115,-300 1115,-300 1115,-312 1115,-312 1115,-318 1109,-324 1103,-324"/>
<text text-anchor="middle" x="1052" y="-309" font-family="sans" font-size="10.00">profiling_kmcp_search</text>
<text text-anchor="middle" x="1052" y="-298" font-family="sans" font-size="10.00">kmcp_db: virome</text>
</g>
<!-- 4&#45;&gt;12 -->
<g id="edge15" class="edge">
<title>4&#45;&gt;12</title>
<path fill="none" stroke="grey" stroke-width="2" d="M1000.81,-359.7C1009.13,-351.14 1019.31,-340.66 1028.39,-331.3"/>
<polygon fill="grey" stroke="grey" stroke-width="2" points="1030.93,-333.72 1035.38,-324.1 1025.91,-328.84 1030.93,-333.72"/>
</g>
<!-- 5 -->
<g id="node6" class="node">
<title>5</title>
<path fill="none" stroke="#d87d56" stroke-width="2" stroke-dasharray="5,2" d="M1180,-468C1180,-468 1076,-468 1076,-468 1070,-468 1064,-462 1064,-456 1064,-456 1064,-444 1064,-444 1064,-438 1070,-432 1076,-432 1076,-432 1180,-432 1180,-432 1186,-432 1192,-438 1192,-444 1192,-444 1192,-456 1192,-456 1192,-462 1186,-468 1180,-468"/>
<text text-anchor="middle" x="1128" y="-447.5" font-family="sans" font-size="10.00">rmhost_bowtie2_index</text>
</g>
<!-- 5&#45;&gt;4 -->
<g id="edge4" class="edge">
<title>5&#45;&gt;4</title>
<path fill="none" stroke="grey" stroke-width="2" d="M1092.77,-431.88C1073.42,-422.47 1049.23,-410.71 1028.57,-400.67"/>
<polygon fill="grey" stroke="grey" stroke-width="2" points="1029.89,-397.41 1019.36,-396.19 1026.83,-403.71 1029.89,-397.41"/>
</g>
<!-- 5&#45;&gt;6 -->
<g id="edge6" class="edge">
<title>5&#45;&gt;6</title>
<path fill="none" stroke="grey" stroke-width="2" d="M1161.27,-431.88C1179.46,-422.51 1202.19,-410.81 1221.64,-400.8"/>
<polygon fill="grey" stroke="grey" stroke-width="2" points="1223.31,-403.88 1230.6,-396.19 1220.11,-397.65 1223.31,-403.88"/>
</g>
<!-- 15 -->
<g id="node16" class="node">
<title>15</title>
<path fill="none" stroke="#56d8b1" stroke-width="2" d="M1247,-324C1247,-324 1145,-324 1145,-324 1139,-324 1133,-318 1133,-312 1133,-312 1133,-300 1133,-300 1133,-294 1139,-288 1145,-288 1145,-288 1247,-288 1247,-288 1253,-288 1259,-294 1259,-300 1259,-300 1259,-312 1259,-312 1259,-318 1253,-324 1247,-324"/>
<text text-anchor="middle" x="1196" y="-309" font-family="sans" font-size="10.00">profiling_kmcp_search</text>
<text text-anchor="middle" x="1196" y="-298" font-family="sans" font-size="10.00">kmcp_db: bacteriome</text>
</g>
<!-- 6&#45;&gt;15 -->
<g id="edge20" class="edge">
<title>6&#45;&gt;15</title>
<path fill="none" stroke="grey" stroke-width="2" d="M1247.19,-359.7C1238.87,-351.14 1228.69,-340.66 1219.61,-331.3"/>
<polygon fill="grey" stroke="grey" stroke-width="2" points="1222.09,-328.84 1212.62,-324.1 1217.07,-333.72 1222.09,-328.84"/>
</g>
<!-- 16 -->
<g id="node17" class="node">
<title>16</title>
<path fill="none" stroke="#56d8b1" stroke-width="2" d="M1391,-324C1391,-324 1289,-324 1289,-324 1283,-324 1277,-318 1277,-312 1277,-312 1277,-300 1277,-300 1277,-294 1283,-288 1289,-288 1289,-288 1391,-288 1391,-288 1397,-288 1403,-294 1403,-300 1403,-300 1403,-312 1403,-312 1403,-318 1397,-324 1391,-324"/>
<text text-anchor="middle" x="1340" y="-309" font-family="sans" font-size="10.00">profiling_kmcp_search</text>
<text text-anchor="middle" x="1340" y="-298" font-family="sans" font-size="10.00">kmcp_db: mycobiome</text>
</g>
<!-- 6&#45;&gt;16 -->
<g id="edge21" class="edge">
<title>6&#45;&gt;16</title>
<path fill="none" stroke="grey" stroke-width="2" d="M1282.79,-359.7C1292.17,-351.05 1303.68,-340.45 1313.91,-331.03"/>
<polygon fill="grey" stroke="grey" stroke-width="2" points="1316.45,-333.45 1321.43,-324.1 1311.7,-328.3 1316.45,-333.45"/>
</g>
<!-- 17 -->
<g id="node18" class="node">
<title>17</title>
<path fill="none" stroke="#56d8b1" stroke-width="2" d="M1535,-324C1535,-324 1433,-324 1433,-324 1427,-324 1421,-318 1421,-312 1421,-312 1421,-300 1421,-300 1421,-294 1427,-288 1433,-288 1433,-288 1535,-288 1535,-288 1541,-288 1547,-294 1547,-300 1547,-300 1547,-312 1547,-312 1547,-318 1541,-324 1535,-324"/>
<text text-anchor="middle" x="1484" y="-309" font-family="sans" font-size="10.00">profiling_kmcp_search</text>
<text text-anchor="middle" x="1484" y="-298" font-family="sans" font-size="10.00">kmcp_db: virome</text>
</g>
<!-- 6&#45;&gt;17 -->
<g id="edge22" class="edge">
<title>6&#45;&gt;17</title>
<path fill="none" stroke="grey" stroke-width="2" d="M1311.74,-361.81C1343.73,-351.63 1386.21,-338.11 1420.98,-327.05"/>
<polygon fill="grey" stroke="grey" stroke-width="2" points="1422.1,-330.37 1430.57,-324 1419.98,-323.7 1422.1,-330.37"/>
</g>
<!-- 7 -->
<g id="node8" class="node">
<title>7</title>
<path fill="none" stroke="#70d856" stroke-width="2" d="M558.5,-108C558.5,-108 421.5,-108 421.5,-108 415.5,-108 409.5,-102 409.5,-96 409.5,-96 409.5,-84 409.5,-84 409.5,-78 415.5,-72 421.5,-72 421.5,-72 558.5,-72 558.5,-72 564.5,-72 570.5,-78 570.5,-84 570.5,-84 570.5,-96 570.5,-96 570.5,-102 564.5,-108 558.5,-108"/>
<text text-anchor="middle" x="490" y="-87.5" font-family="sans" font-size="10.00">profiling_kmcp_profile_merge</text>
</g>
<!-- 33 -->
<g id="node34" class="node">
<title>33</title>
<path fill="none" stroke="#565bd8" stroke-width="2" d="M1158,-36C1158,-36 1076,-36 1076,-36 1070,-36 1064,-30 1064,-24 1064,-24 1064,-12 1064,-12 1064,-6 1070,0 1076,0 1076,0 1158,0 1158,0 1164,0 1170,-6 1170,-12 1170,-12 1170,-24 1170,-24 1170,-30 1164,-36 1158,-36"/>
<text text-anchor="middle" x="1117" y="-15.5" font-family="sans" font-size="10.00">profiling_kmcp_all</text>
</g>
<!-- 7&#45;&gt;33 -->
<g id="edge43" class="edge">
<title>7&#45;&gt;33</title>
<path fill="none" stroke="grey" stroke-width="2" d="M570.69,-79.99C697.02,-65.89 938.92,-38.88 1053.64,-26.07"/>
<polygon fill="grey" stroke="grey" stroke-width="2" points="1054.12,-29.54 1063.67,-24.95 1053.34,-22.59 1054.12,-29.54"/>
</g>
<!-- 8 -->
<g id="node9" class="node">
<title>8</title>
<path fill="none" stroke="#56d892" stroke-width="2" d="M180,-180C180,-180 12,-180 12,-180 6,-180 0,-174 0,-168 0,-168 0,-156 0,-156 0,-150 6,-144 12,-144 12,-144 180,-144 180,-144 186,-144 192,-150 192,-156 192,-156 192,-168 192,-168 192,-174 186,-180 180,-180"/>
<text text-anchor="middle" x="96" y="-165" font-family="sans" font-size="10.00">profiling_kmcp_profile</text>
<text text-anchor="middle" x="96" y="-154" font-family="sans" font-size="10.00">profiling_mode: pathogen_detection</text>
</g>
<!-- 8&#45;&gt;7 -->
<g id="edge7" class="edge">
<title>8&#45;&gt;7</title>
<path fill="none" stroke="grey" stroke-width="2" d="M191.88,-143.97C254.99,-132.75 337.1,-118.16 399.17,-107.14"/>
<polygon fill="grey" stroke="grey" stroke-width="2" points="400.11,-110.53 409.34,-105.33 398.88,-103.63 400.11,-110.53"/>
</g>
<!-- 9 -->
<g id="node10" class="node">
<title>9</title>
<path fill="none" stroke="#56d863" stroke-width="2" d="M977.5,-252C977.5,-252 838.5,-252 838.5,-252 832.5,-252 826.5,-246 826.5,-240 826.5,-240 826.5,-228 826.5,-228 826.5,-222 832.5,-216 838.5,-216 838.5,-216 977.5,-216 977.5,-216 983.5,-216 989.5,-222 989.5,-228 989.5,-228 989.5,-240 989.5,-240 989.5,-246 983.5,-252 977.5,-252"/>
<text text-anchor="middle" x="908" y="-231.5" font-family="sans" font-size="10.00">profiling_kmcp_search_merge</text>
</g>
<!-- 9&#45;&gt;8 -->
<g id="edge9" class="edge">
<title>9&#45;&gt;8</title>
<path fill="none" stroke="grey" stroke-width="2" d="M826.4,-229.16C696.43,-222.54 434.24,-207.12 202.07,-180.07"/>
<polygon fill="grey" stroke="grey" stroke-width="2" points="202.42,-176.59 192.08,-178.89 201.61,-183.54 202.42,-176.59"/>
</g>
<!-- 19 -->
<g id="node20" class="node">
<title>19</title>
<path fill="none" stroke="#56d892" stroke-width="2" d="M750,-180C750,-180 616,-180 616,-180 610,-180 604,-174 604,-168 604,-168 604,-156 604,-156 604,-150 610,-144 616,-144 616,-144 750,-144 750,-144 756,-144 762,-150 762,-156 762,-156 762,-168 762,-168 762,-174 756,-180 750,-180"/>
<text text-anchor="middle" x="683" y="-165" font-family="sans" font-size="10.00">profiling_kmcp_profile</text>
<text text-anchor="middle" x="683" y="-154" font-family="sans" font-size="10.00">profiling_mode: higher_recall</text>
</g>
<!-- 9&#45;&gt;19 -->
<g id="edge25" class="edge">
<title>9&#45;&gt;19</title>
<path fill="none" stroke="grey" stroke-width="2" d="M853.25,-215.97C821.4,-206.06 781.08,-193.51 747.67,-183.12"/>
<polygon fill="grey" stroke="grey" stroke-width="2" points="748.59,-179.74 738,-180.11 746.51,-186.42 748.59,-179.74"/>
</g>
<!-- 22 -->
<g id="node23" class="node">
<title>22</title>
<path fill="none" stroke="#56d892" stroke-width="2" d="M1101.5,-180C1101.5,-180 976.5,-180 976.5,-180 970.5,-180 964.5,-174 964.5,-168 964.5,-168 964.5,-156 964.5,-156 964.5,-150 970.5,-144 976.5,-144 976.5,-144 1101.5,-144 1101.5,-144 1107.5,-144 1113.5,-150 1113.5,-156 1113.5,-156 1113.5,-168 1113.5,-168 1113.5,-174 1107.5,-180 1101.5,-180"/>
<text text-anchor="middle" x="1039" y="-165" font-family="sans" font-size="10.00">profiling_kmcp_profile</text>
<text text-anchor="middle" x="1039" y="-154" font-family="sans" font-size="10.00">profiling_mode: high_recall</text>
</g>
<!-- 9&#45;&gt;22 -->
<g id="edge29" class="edge">
<title>9&#45;&gt;22</title>
<path fill="none" stroke="grey" stroke-width="2" d="M940.05,-215.88C957.49,-206.55 979.27,-194.92 997.94,-184.94"/>
<polygon fill="grey" stroke="grey" stroke-width="2" points="999.66,-187.99 1006.83,-180.19 996.36,-181.82 999.66,-187.99"/>
</g>
<!-- 25 -->
<g id="node26" class="node">
<title>25</title>
<path fill="none" stroke="#56d892" stroke-width="2" d="M1425,-180C1425,-180 1319,-180 1319,-180 1313,-180 1307,-174 1307,-168 1307,-168 1307,-156 1307,-156 1307,-150 1313,-144 1319,-144 1319,-144 1425,-144 1425,-144 1431,-144 1437,-150 1437,-156 1437,-156 1437,-168 1437,-168 1437,-174 1431,-180 1425,-180"/>
<text text-anchor="middle" x="1372" y="-165" font-family="sans" font-size="10.00">profiling_kmcp_profile</text>
<text text-anchor="middle" x="1372" y="-154" font-family="sans" font-size="10.00">profiling_mode: default</text>
</g>
<!-- 9&#45;&gt;25 -->
<g id="edge33" class="edge">
<title>9&#45;&gt;25</title>
<path fill="none" stroke="grey" stroke-width="2" d="M989.76,-224.08C1066.59,-215.19 1184.94,-200.22 1296.61,-180.17"/>
<polygon fill="grey" stroke="grey" stroke-width="2" points="1297.48,-183.57 1306.7,-178.34 1296.23,-176.68 1297.48,-183.57"/>
</g>
<!-- 28 -->
<g id="node29" class="node">
<title>28</title>
<path fill="none" stroke="#56d892" stroke-width="2" d="M364,-180C364,-180 222,-180 222,-180 216,-180 210,-174 210,-168 210,-168 210,-156 210,-156 210,-150 216,-144 222,-144 222,-144 364,-144 364,-144 370,-144 376,-150 376,-156 376,-156 376,-168 376,-168 376,-174 370,-180 364,-180"/>
<text text-anchor="middle" x="293" y="-165" font-family="sans" font-size="10.00">profiling_kmcp_profile</text>
<text text-anchor="middle" x="293" y="-154" font-family="sans" font-size="10.00">profiling_mode: high_precision</text>
</g>
<!-- 9&#45;&gt;28 -->
<g id="edge37" class="edge">
<title>9&#45;&gt;28</title>
<path fill="none" stroke="grey" stroke-width="2" d="M826.22,-226.79C725.18,-218.66 547.86,-202.86 386.32,-180.12"/>
<polygon fill="grey" stroke="grey" stroke-width="2" points="386.59,-176.63 376.19,-178.69 385.6,-183.56 386.59,-176.63"/>
</g>
<!-- 31 -->
<g id="node32" class="node">
<title>31</title>
<path fill="none" stroke="#56d892" stroke-width="2" d="M1786,-180C1786,-180 1634,-180 1634,-180 1628,-180 1622,-174 1622,-168 1622,-168 1622,-156 1622,-156 1622,-150 1628,-144 1634,-144 1634,-144 1786,-144 1786,-144 1792,-144 1798,-150 1798,-156 1798,-156 1798,-168 1798,-168 1798,-174 1792,-180 1786,-180"/>
<text text-anchor="middle" x="1710" y="-165" font-family="sans" font-size="10.00">profiling_kmcp_profile</text>
<text text-anchor="middle" x="1710" y="-154" font-family="sans" font-size="10.00">profiling_mode: higher_precision</text>
</g>
<!-- 9&#45;&gt;31 -->
<g id="edge41" class="edge">
<title>9&#45;&gt;31</title>
<path fill="none" stroke="grey" stroke-width="2" d="M989.53,-229.54C1119.32,-223.45 1381.03,-208.75 1611.64,-180.23"/>
<polygon fill="grey" stroke="grey" stroke-width="2" points="1612.42,-183.67 1621.91,-178.95 1611.55,-176.72 1612.42,-183.67"/>
</g>
<!-- 10&#45;&gt;9 -->
<g id="edge10" class="edge">
<title>10&#45;&gt;9</title>
<path fill="none" stroke="grey" stroke-width="2" d="M799.23,-287.88C818.58,-278.47 842.77,-266.71 863.43,-256.67"/>
<polygon fill="grey" stroke="grey" stroke-width="2" points="865.17,-259.71 872.64,-252.19 862.11,-253.41 865.17,-259.71"/>
</g>
<!-- 11&#45;&gt;9 -->
<g id="edge11" class="edge">
<title>11&#45;&gt;9</title>
<path fill="none" stroke="grey" stroke-width="2" d="M908,-287.7C908,-279.98 908,-270.71 908,-262.11"/>
<polygon fill="grey" stroke="grey" stroke-width="2" points="911.5,-262.1 908,-252.1 904.5,-262.1 911.5,-262.1"/>
</g>
<!-- 12&#45;&gt;9 -->
<g id="edge12" class="edge">
<title>12&#45;&gt;9</title>
<path fill="none" stroke="grey" stroke-width="2" d="M1016.77,-287.88C997.42,-278.47 973.23,-266.71 952.57,-256.67"/>
<polygon fill="grey" stroke="grey" stroke-width="2" points="953.89,-253.41 943.36,-252.19 950.83,-259.71 953.89,-253.41"/>
</g>
<!-- 13 -->
<g id="node14" class="node">
<title>13</title>
<path fill="none" stroke="#56d892" stroke-width="2" d="M574,-180C574,-180 406,-180 406,-180 400,-180 394,-174 394,-168 394,-168 394,-156 394,-156 394,-150 400,-144 406,-144 406,-144 574,-144 574,-144 580,-144 586,-150 586,-156 586,-156 586,-168 586,-168 586,-174 580,-180 574,-180"/>
<text text-anchor="middle" x="490" y="-165" font-family="sans" font-size="10.00">profiling_kmcp_profile</text>
<text text-anchor="middle" x="490" y="-154" font-family="sans" font-size="10.00">profiling_mode: pathogen_detection</text>
</g>
<!-- 13&#45;&gt;7 -->
<g id="edge8" class="edge">
<title>13&#45;&gt;7</title>
<path fill="none" stroke="grey" stroke-width="2" d="M490,-143.7C490,-135.98 490,-126.71 490,-118.11"/>
<polygon fill="grey" stroke="grey" stroke-width="2" points="493.5,-118.1 490,-108.1 486.5,-118.1 493.5,-118.1"/>
</g>
<!-- 14 -->
<g id="node15" class="node">
<title>14</title>
<path fill="none" stroke="#56d863" stroke-width="2" d="M1409.5,-252C1409.5,-252 1270.5,-252 1270.5,-252 1264.5,-252 1258.5,-246 1258.5,-240 1258.5,-240 1258.5,-228 1258.5,-228 1258.5,-222 1264.5,-216 1270.5,-216 1270.5,-216 1409.5,-216 1409.5,-216 1415.5,-216 1421.5,-222 1421.5,-228 1421.5,-228 1421.5,-240 1421.5,-240 1421.5,-246 1415.5,-252 1409.5,-252"/>
<text text-anchor="middle" x="1340" y="-231.5" font-family="sans" font-size="10.00">profiling_kmcp_search_merge</text>
</g>
<!-- 14&#45;&gt;13 -->
<g id="edge16" class="edge">
<title>14&#45;&gt;13</title>
<path fill="none" stroke="grey" stroke-width="2" d="M1258.48,-229.59C1123.08,-223.4 843.16,-208.37 596.33,-180.09"/>
<polygon fill="grey" stroke="grey" stroke-width="2" points="596.42,-176.58 586.08,-178.91 595.61,-183.53 596.42,-176.58"/>
</g>
<!-- 20 -->
<g id="node21" class="node">
<title>20</title>
<path fill="none" stroke="#56d892" stroke-width="2" d="M1277,-180C1277,-180 1143,-180 1143,-180 1137,-180 1131,-174 1131,-168 1131,-168 1131,-156 1131,-156 1131,-150 1137,-144 1143,-144 1143,-144 1277,-144 1277,-144 1283,-144 1289,-150 1289,-156 1289,-156 1289,-168 1289,-168 1289,-174 1283,-180 1277,-180"/>
<text text-anchor="middle" x="1210" y="-165" font-family="sans" font-size="10.00">profiling_kmcp_profile</text>
<text text-anchor="middle" x="1210" y="-154" font-family="sans" font-size="10.00">profiling_mode: higher_recall</text>
</g>
<!-- 14&#45;&gt;20 -->
<g id="edge26" class="edge">
<title>14&#45;&gt;20</title>
<path fill="none" stroke="grey" stroke-width="2" d="M1308.2,-215.88C1290.89,-206.55 1269.28,-194.92 1250.74,-184.94"/>
<polygon fill="grey" stroke="grey" stroke-width="2" points="1252.39,-181.85 1241.92,-180.19 1249.07,-188.01 1252.39,-181.85"/>
</g>
<!-- 23 -->
<g id="node24" class="node">
<title>23</title>
<path fill="none" stroke="#56d892" stroke-width="2" d="M1592.5,-180C1592.5,-180 1467.5,-180 1467.5,-180 1461.5,-180 1455.5,-174 1455.5,-168 1455.5,-168 1455.5,-156 1455.5,-156 1455.5,-150 1461.5,-144 1467.5,-144 1467.5,-144 1592.5,-144 1592.5,-144 1598.5,-144 1604.5,-150 1604.5,-156 1604.5,-156 1604.5,-168 1604.5,-168 1604.5,-174 1598.5,-180 1592.5,-180"/>
<text text-anchor="middle" x="1530" y="-165" font-family="sans" font-size="10.00">profiling_kmcp_profile</text>
<text text-anchor="middle" x="1530" y="-154" font-family="sans" font-size="10.00">profiling_mode: high_recall</text>
</g>
<!-- 14&#45;&gt;23 -->
<g id="edge30" class="edge">
<title>14&#45;&gt;23</title>
<path fill="none" stroke="grey" stroke-width="2" d="M1386.48,-215.88C1412.92,-206.14 1446.2,-193.87 1474.06,-183.61"/>
<polygon fill="grey" stroke="grey" stroke-width="2" points="1475.5,-186.81 1483.67,-180.07 1473.08,-180.24 1475.5,-186.81"/>
</g>
<!-- 26 -->
<g id="node27" class="node">
<title>26</title>
<path fill="none" stroke="#56d892" stroke-width="2" d="M1934,-180C1934,-180 1828,-180 1828,-180 1822,-180 1816,-174 1816,-168 1816,-168 1816,-156 1816,-156 1816,-150 1822,-144 1828,-144 1828,-144 1934,-144 1934,-144 1940,-144 1946,-150 1946,-156 1946,-156 1946,-168 1946,-168 1946,-174 1940,-180 1934,-180"/>
<text text-anchor="middle" x="1881" y="-165" font-family="sans" font-size="10.00">profiling_kmcp_profile</text>
<text text-anchor="middle" x="1881" y="-154" font-family="sans" font-size="10.00">profiling_mode: default</text>
</g>
<!-- 14&#45;&gt;26 -->
<g id="edge34" class="edge">
<title>14&#45;&gt;26</title>
<path fill="none" stroke="grey" stroke-width="2" d="M1421.8,-226.53C1513.16,-218.67 1665.54,-203.66 1805.64,-180.13"/>
<polygon fill="grey" stroke="grey" stroke-width="2" points="1806.44,-183.54 1815.71,-178.42 1805.27,-176.64 1806.44,-183.54"/>
</g>
<!-- 29 -->
<g id="node30" class="node">
<title>29</title>
<path fill="none" stroke="#56d892" stroke-width="2" d="M934,-180C934,-180 792,-180 792,-180 786,-180 780,-174 780,-168 780,-168 780,-156 780,-156 780,-150 786,-144 792,-144 792,-144 934,-144 934,-144 940,-144 946,-150 946,-156 946,-156 946,-168 946,-168 946,-174 940,-180 934,-180"/>
<text text-anchor="middle" x="863" y="-165" font-family="sans" font-size="10.00">profiling_kmcp_profile</text>
<text text-anchor="middle" x="863" y="-154" font-family="sans" font-size="10.00">profiling_mode: high_precision</text>
</g>
<!-- 14&#45;&gt;29 -->
<g id="edge38" class="edge">
<title>14&#45;&gt;29</title>
<path fill="none" stroke="grey" stroke-width="2" d="M1258.2,-222.76C1180.35,-212.77 1059.99,-196.67 956,-180 955.9,-179.98 955.8,-179.97 955.7,-179.95"/>
<polygon fill="grey" stroke="grey" stroke-width="2" points="956.56,-176.55 946.12,-178.38 955.42,-183.45 956.56,-176.55"/>
</g>
<!-- 32 -->
<g id="node33" class="node">
<title>32</title>
<path fill="none" stroke="#56d892" stroke-width="2" d="M2128,-180C2128,-180 1976,-180 1976,-180 1970,-180 1964,-174 1964,-168 1964,-168 1964,-156 1964,-156 1964,-150 1970,-144 1976,-144 1976,-144 2128,-144 2128,-144 2134,-144 2140,-150 2140,-156 2140,-156 2140,-168 2140,-168 2140,-174 2134,-180 2128,-180"/>
<text text-anchor="middle" x="2052" y="-165" font-family="sans" font-size="10.00">profiling_kmcp_profile</text>
<text text-anchor="middle" x="2052" y="-154" font-family="sans" font-size="10.00">profiling_mode: higher_precision</text>
</g>
<!-- 14&#45;&gt;32 -->
<g id="edge42" class="edge">
<title>14&#45;&gt;32</title>
<path fill="none" stroke="grey" stroke-width="2" d="M1421.82,-228.24C1537.94,-220.96 1757.35,-205.35 1953.83,-180.09"/>
<polygon fill="grey" stroke="grey" stroke-width="2" points="1954.3,-183.56 1963.76,-178.8 1953.4,-176.62 1954.3,-183.56"/>
</g>
<!-- 15&#45;&gt;14 -->
<g id="edge17" class="edge">
<title>15&#45;&gt;14</title>
<path fill="none" stroke="grey" stroke-width="2" d="M1231.23,-287.88C1250.58,-278.47 1274.77,-266.71 1295.43,-256.67"/>
<polygon fill="grey" stroke="grey" stroke-width="2" points="1297.17,-259.71 1304.64,-252.19 1294.11,-253.41 1297.17,-259.71"/>
</g>
<!-- 16&#45;&gt;14 -->
<g id="edge18" class="edge">
<title>16&#45;&gt;14</title>
<path fill="none" stroke="grey" stroke-width="2" d="M1340,-287.7C1340,-279.98 1340,-270.71 1340,-262.11"/>
<polygon fill="grey" stroke="grey" stroke-width="2" points="1343.5,-262.1 1340,-252.1 1336.5,-262.1 1343.5,-262.1"/>
</g>
<!-- 17&#45;&gt;14 -->
<g id="edge19" class="edge">
<title>17&#45;&gt;14</title>
<path fill="none" stroke="grey" stroke-width="2" d="M1448.77,-287.88C1429.42,-278.47 1405.23,-266.71 1384.57,-256.67"/>
<polygon fill="grey" stroke="grey" stroke-width="2" points="1385.89,-253.41 1375.36,-252.19 1382.83,-259.71 1385.89,-253.41"/>
</g>
<!-- 18 -->
<g id="node19" class="node">
<title>18</title>
<path fill="none" stroke="#70d856" stroke-width="2" d="M1096.5,-108C1096.5,-108 959.5,-108 959.5,-108 953.5,-108 947.5,-102 947.5,-96 947.5,-96 947.5,-84 947.5,-84 947.5,-78 953.5,-72 959.5,-72 959.5,-72 1096.5,-72 1096.5,-72 1102.5,-72 1108.5,-78 1108.5,-84 1108.5,-84 1108.5,-96 1108.5,-96 1108.5,-102 1102.5,-108 1096.5,-108"/>
<text text-anchor="middle" x="1028" y="-87.5" font-family="sans" font-size="10.00">profiling_kmcp_profile_merge</text>
</g>
<!-- 18&#45;&gt;33 -->
<g id="edge44" class="edge">
<title>18&#45;&gt;33</title>
<path fill="none" stroke="grey" stroke-width="2" d="M1050,-71.7C1061.21,-62.88 1075,-52.03 1087.15,-42.47"/>
<polygon fill="grey" stroke="grey" stroke-width="2" points="1089.56,-45.04 1095.25,-36.1 1085.23,-39.54 1089.56,-45.04"/>
</g>
<!-- 19&#45;&gt;18 -->
<g id="edge23" class="edge">
<title>19&#45;&gt;18</title>
<path fill="none" stroke="grey" stroke-width="2" d="M762.15,-144.94C814.4,-134.34 883.01,-120.42 937.43,-109.38"/>
<polygon fill="grey" stroke="grey" stroke-width="2" points="938.32,-112.77 947.42,-107.35 936.93,-105.91 938.32,-112.77"/>
</g>
<!-- 20&#45;&gt;18 -->
<g id="edge24" class="edge">
<title>20&#45;&gt;18</title>
<path fill="none" stroke="grey" stroke-width="2" d="M1165.48,-143.88C1140.27,-134.18 1108.55,-121.98 1081.93,-111.74"/>
<polygon fill="grey" stroke="grey" stroke-width="2" points="1082.97,-108.39 1072.38,-108.07 1080.45,-114.92 1082.97,-108.39"/>
</g>
<!-- 21 -->
<g id="node22" class="node">
<title>21</title>
<path fill="none" stroke="#70d856" stroke-width="2" d="M1275.5,-108C1275.5,-108 1138.5,-108 1138.5,-108 1132.5,-108 1126.5,-102 1126.5,-96 1126.5,-96 1126.5,-84 1126.5,-84 1126.5,-78 1132.5,-72 1138.5,-72 1138.5,-72 1275.5,-72 1275.5,-72 1281.5,-72 1287.5,-78 1287.5,-84 1287.5,-84 1287.5,-96 1287.5,-96 1287.5,-102 1281.5,-108 1275.5,-108"/>
<text text-anchor="middle" x="1207" y="-87.5" font-family="sans" font-size="10.00">profiling_kmcp_profile_merge</text>
</g>
<!-- 21&#45;&gt;33 -->
<g id="edge45" class="edge">
<title>21&#45;&gt;33</title>
<path fill="none" stroke="grey" stroke-width="2" d="M1184.75,-71.7C1173.42,-62.88 1159.47,-52.03 1147.18,-42.47"/>
<polygon fill="grey" stroke="grey" stroke-width="2" points="1149.03,-39.48 1138.99,-36.1 1144.74,-45.01 1149.03,-39.48"/>
</g>
<!-- 22&#45;&gt;21 -->
<g id="edge27" class="edge">
<title>22&#45;&gt;21</title>
<path fill="none" stroke="grey" stroke-width="2" d="M1080.1,-143.88C1103.17,-134.26 1132.14,-122.19 1156.57,-112.01"/>
<polygon fill="grey" stroke="grey" stroke-width="2" points="1158.15,-115.15 1166.04,-108.07 1155.46,-108.68 1158.15,-115.15"/>
</g>
<!-- 23&#45;&gt;21 -->
<g id="edge28" class="edge">
<title>23&#45;&gt;21</title>
<path fill="none" stroke="grey" stroke-width="2" d="M1455.49,-144.85C1407.81,-134.52 1345.7,-121.06 1295.51,-110.18"/>
<polygon fill="grey" stroke="grey" stroke-width="2" points="1296.15,-106.74 1285.64,-108.04 1294.67,-113.58 1296.15,-106.74"/>
</g>
<!-- 24 -->
<g id="node25" class="node">
<title>24</title>
<path fill="none" stroke="#70d856" stroke-width="2" d="M1454.5,-108C1454.5,-108 1317.5,-108 1317.5,-108 1311.5,-108 1305.5,-102 1305.5,-96 1305.5,-96 1305.5,-84 1305.5,-84 1305.5,-78 1311.5,-72 1317.5,-72 1317.5,-72 1454.5,-72 1454.5,-72 1460.5,-72 1466.5,-78 1466.5,-84 1466.5,-84 1466.5,-96 1466.5,-96 1466.5,-102 1460.5,-108 1454.5,-108"/>
<text text-anchor="middle" x="1386" y="-87.5" font-family="sans" font-size="10.00">profiling_kmcp_profile_merge</text>
</g>
<!-- 24&#45;&gt;33 -->
<g id="edge46" class="edge">
<title>24&#45;&gt;33</title>
<path fill="none" stroke="grey" stroke-width="2" d="M1320.54,-71.97C1277.78,-60.84 1222.25,-46.39 1179.99,-35.39"/>
<polygon fill="grey" stroke="grey" stroke-width="2" points="1180.66,-31.95 1170.1,-32.82 1178.89,-38.72 1180.66,-31.95"/>
</g>
<!-- 25&#45;&gt;24 -->
<g id="edge31" class="edge">
<title>25&#45;&gt;24</title>
<path fill="none" stroke="grey" stroke-width="2" d="M1375.46,-143.7C1377,-135.98 1378.86,-126.71 1380.58,-118.11"/>
<polygon fill="grey" stroke="grey" stroke-width="2" points="1384.05,-118.6 1382.58,-108.1 1377.19,-117.22 1384.05,-118.6"/>
</g>
<!-- 26&#45;&gt;24 -->
<g id="edge32" class="edge">
<title>26&#45;&gt;24</title>
<path fill="none" stroke="grey" stroke-width="2" d="M1815.7,-145.62C1812.77,-145.05 1809.86,-144.51 1807,-144 1693.91,-123.94 1562.41,-108.66 1476.88,-99.77"/>
<polygon fill="grey" stroke="grey" stroke-width="2" points="1476.99,-96.26 1466.68,-98.72 1476.27,-103.23 1476.99,-96.26"/>
</g>
<!-- 27 -->
<g id="node28" class="node">
<title>27</title>
<path fill="none" stroke="#70d856" stroke-width="2" d="M917.5,-108C917.5,-108 780.5,-108 780.5,-108 774.5,-108 768.5,-102 768.5,-96 768.5,-96 768.5,-84 768.5,-84 768.5,-78 774.5,-72 780.5,-72 780.5,-72 917.5,-72 917.5,-72 923.5,-72 929.5,-78 929.5,-84 929.5,-84 929.5,-96 929.5,-96 929.5,-102 923.5,-108 917.5,-108"/>
<text text-anchor="middle" x="849" y="-87.5" font-family="sans" font-size="10.00">profiling_kmcp_profile_merge</text>
</g>
<!-- 27&#45;&gt;33 -->
<g id="edge47" class="edge">
<title>27&#45;&gt;33</title>
<path fill="none" stroke="grey" stroke-width="2" d="M914.22,-71.97C956.68,-60.88 1011.77,-46.48 1053.82,-35.5"/>
<polygon fill="grey" stroke="grey" stroke-width="2" points="1054.88,-38.84 1063.67,-32.93 1053.11,-32.07 1054.88,-38.84"/>
</g>
<!-- 28&#45;&gt;27 -->
<g id="edge35" class="edge">
<title>28&#45;&gt;27</title>
<path fill="none" stroke="grey" stroke-width="2" d="M376.2,-145.36C379.17,-144.89 382.11,-144.43 385,-144 514.21,-124.71 664.58,-108.7 758.29,-99.49"/>
<polygon fill="grey" stroke="grey" stroke-width="2" points="758.7,-102.97 768.31,-98.51 758.01,-96 758.7,-102.97"/>
</g>
<!-- 29&#45;&gt;27 -->
<g id="edge36" class="edge">
<title>29&#45;&gt;27</title>
<path fill="none" stroke="grey" stroke-width="2" d="M859.54,-143.7C858,-135.98 856.14,-126.71 854.42,-118.11"/>
<polygon fill="grey" stroke="grey" stroke-width="2" points="857.81,-117.22 852.42,-108.1 850.95,-118.6 857.81,-117.22"/>
</g>
<!-- 30 -->
<g id="node31" class="node">
<title>30</title>
<path fill="none" stroke="#70d856" stroke-width="2" d="M1778.5,-108C1778.5,-108 1641.5,-108 1641.5,-108 1635.5,-108 1629.5,-102 1629.5,-96 1629.5,-96 1629.5,-84 1629.5,-84 1629.5,-78 1635.5,-72 1641.5,-72 1641.5,-72 1778.5,-72 1778.5,-72 1784.5,-72 1790.5,-78 1790.5,-84 1790.5,-84 1790.5,-96 1790.5,-96 1790.5,-102 1784.5,-108 1778.5,-108"/>
<text text-anchor="middle" x="1710" y="-87.5" font-family="sans" font-size="10.00">profiling_kmcp_profile_merge</text>
</g>
<!-- 30&#45;&gt;33 -->
<g id="edge48" class="edge">
<title>30&#45;&gt;33</title>
<path fill="none" stroke="grey" stroke-width="2" d="M1629.41,-79.49C1510.07,-65.4 1288.82,-39.28 1180.32,-26.47"/>
<polygon fill="grey" stroke="grey" stroke-width="2" points="1180.52,-22.97 1170.18,-25.28 1179.7,-29.93 1180.52,-22.97"/>
</g>
<!-- 31&#45;&gt;30 -->
<g id="edge39" class="edge">
<title>31&#45;&gt;30</title>
<path fill="none" stroke="grey" stroke-width="2" d="M1710,-143.7C1710,-135.98 1710,-126.71 1710,-118.11"/>
<polygon fill="grey" stroke="grey" stroke-width="2" points="1713.5,-118.1 1710,-108.1 1706.5,-118.1 1713.5,-118.1"/>
</g>
<!-- 32&#45;&gt;30 -->
<g id="edge40" class="edge">
<title>32&#45;&gt;30</title>
<path fill="none" stroke="grey" stroke-width="2" d="M1968.77,-143.97C1917.88,-133.55 1852.75,-120.22 1800.57,-109.54"/>
<polygon fill="grey" stroke="grey" stroke-width="2" points="1801.14,-106.08 1790.64,-107.51 1799.74,-112.94 1801.14,-106.08"/>
</g>
</g>
</svg>
