<?xml version="1.0" encoding="UTF-8" standalone="no"?>
<!DOCTYPE svg PUBLIC "-//W3C//DTD SVG 1.1//EN"
 "http://www.w3.org/Graphics/SVG/1.1/DTD/svg11.dtd">
<!-- Generated by graphviz version 3.0.0 (20220315.2325)
 -->
<!-- Title: snakemake_dag Pages: 1 -->
<svg width="576pt" height="86pt"
 viewBox="0.00 0.00 576.00 85.58" xmlns="http://www.w3.org/2000/svg" xmlns:xlink="http://www.w3.org/1999/xlink">
<g id="graph0" class="graph" transform="scale(0.138038 0.138038) rotate(0) translate(4 616)">
<title>snakemake_dag</title>
<polygon fill="white" stroke="transparent" points="-4,4 -4,-616 4168.78,-616 4168.78,4 -4,4"/>
<!-- 0 -->
<g id="node1" class="node">
<title>0</title>
<path fill="none" stroke="#56d873" stroke-width="2" d="M489.28,-468C489.28,-468 407.28,-468 407.28,-468 401.28,-468 395.28,-462 395.28,-456 395.28,-456 395.28,-444 395.28,-444 395.28,-438 401.28,-432 407.28,-432 407.28,-432 489.28,-432 489.28,-432 495.28,-432 501.28,-438 501.28,-444 501.28,-444 501.28,-456 501.28,-456 501.28,-462 495.28,-468 489.28,-468"/>
<text text-anchor="middle" x="448.28" y="-447.5" font-family="sans" font-size="10.00">raw_report_merge</text>
</g>
<!-- 16 -->
<g id="node17" class="node">
<title>16</title>
<path fill="none" stroke="#56d8a2" stroke-width="2" d="M490.78,-252C490.78,-252 405.78,-252 405.78,-252 399.78,-252 393.78,-246 393.78,-240 393.78,-240 393.78,-228 393.78,-228 393.78,-222 399.78,-216 405.78,-216 405.78,-216 490.78,-216 490.78,-216 496.78,-216 502.78,-222 502.78,-228 502.78,-228 502.78,-240 502.78,-240 502.78,-246 496.78,-252 490.78,-252"/>
<text text-anchor="middle" x="448.28" y="-231.5" font-family="sans" font-size="10.00">qcreport_summary</text>
</g>
<!-- 0&#45;&gt;16 -->
<g id="edge19" class="edge">
<title>0&#45;&gt;16</title>
<path fill="none" stroke="grey" stroke-width="2" d="M448.28,-431.85C448.28,-394.83 448.28,-307.18 448.28,-262.39"/>
<polygon fill="grey" stroke="grey" stroke-width="2" points="451.78,-262.23 448.28,-252.23 444.78,-262.23 451.78,-262.23"/>
</g>
<!-- 1 -->
<g id="node2" class="node">
<title>1</title>
<path fill="none" stroke="#9fd856" stroke-width="2" d="M439.78,-540C439.78,-540 394.78,-540 394.78,-540 388.78,-540 382.78,-534 382.78,-528 382.78,-528 382.78,-516 382.78,-516 382.78,-510 388.78,-504 394.78,-504 394.78,-504 439.78,-504 439.78,-504 445.78,-504 451.78,-510 451.78,-516 451.78,-516 451.78,-528 451.78,-528 451.78,-534 445.78,-540 439.78,-540"/>
<text text-anchor="middle" x="417.28" y="-519.5" font-family="sans" font-size="10.00">raw_report</text>
</g>
<!-- 1&#45;&gt;0 -->
<g id="edge1" class="edge">
<title>1&#45;&gt;0</title>
<path fill="none" stroke="grey" stroke-width="2" d="M424.94,-503.7C428.47,-495.73 432.73,-486.1 436.65,-477.26"/>
<polygon fill="grey" stroke="grey" stroke-width="2" points="439.85,-478.67 440.7,-468.1 433.45,-475.83 439.85,-478.67"/>
</g>
<!-- 2 -->
<g id="node3" class="node">
<title>2</title>
<path fill="none" stroke="#56d89a" stroke-width="2" stroke-dasharray="5,2" d="M544.28,-612C544.28,-612 452.28,-612 452.28,-612 446.28,-612 440.28,-606 440.28,-600 440.28,-600 440.28,-588 440.28,-588 440.28,-582 446.28,-576 452.28,-576 452.28,-576 544.28,-576 544.28,-576 550.28,-576 556.28,-582 556.28,-588 556.28,-588 556.28,-600 556.28,-600 556.28,-606 550.28,-612 544.28,-612"/>
<text text-anchor="middle" x="498.28" y="-597" font-family="sans" font-size="10.00">prepare_short_reads</text>
<text text-anchor="middle" x="498.28" y="-586" font-family="sans" font-size="10.00">sample: bg1_ag1_s1</text>
</g>
<!-- 2&#45;&gt;1 -->
<g id="edge3" class="edge">
<title>2&#45;&gt;1</title>
<path fill="none" stroke="grey" stroke-width="2" d="M478.25,-575.7C468.15,-566.97 455.74,-556.24 444.76,-546.75"/>
<polygon fill="grey" stroke="grey" stroke-width="2" points="446.92,-543.99 437.07,-540.1 442.35,-549.29 446.92,-543.99"/>
</g>
<!-- 5 -->
<g id="node6" class="node">
<title>5</title>
<path fill="none" stroke="#569ad8" stroke-width="2" d="M637.28,-540C637.28,-540 569.28,-540 569.28,-540 563.28,-540 557.28,-534 557.28,-528 557.28,-528 557.28,-516 557.28,-516 557.28,-510 563.28,-504 569.28,-504 569.28,-504 637.28,-504 637.28,-504 643.28,-504 649.28,-510 649.28,-516 649.28,-516 649.28,-528 649.28,-528 649.28,-534 643.28,-540 637.28,-540"/>
<text text-anchor="middle" x="603.28" y="-519.5" font-family="sans" font-size="10.00">trimming_fastp</text>
</g>
<!-- 2&#45;&gt;5 -->
<g id="edge5" class="edge">
<title>2&#45;&gt;5</title>
<path fill="none" stroke="grey" stroke-width="2" d="M523.96,-575.88C537.56,-566.81 554.45,-555.55 569.14,-545.76"/>
<polygon fill="grey" stroke="grey" stroke-width="2" points="571.11,-548.65 577.49,-540.19 567.23,-542.82 571.11,-548.65"/>
</g>
<!-- 3 -->
<g id="node4" class="node">
<title>3</title>
<path fill="none" stroke="#9fd856" stroke-width="2" d="M526.78,-540C526.78,-540 481.78,-540 481.78,-540 475.78,-540 469.78,-534 469.78,-528 469.78,-528 469.78,-516 469.78,-516 469.78,-510 475.78,-504 481.78,-504 481.78,-504 526.78,-504 526.78,-504 532.78,-504 538.78,-510 538.78,-516 538.78,-516 538.78,-528 538.78,-528 538.78,-534 532.78,-540 526.78,-540"/>
<text text-anchor="middle" x="504.28" y="-519.5" font-family="sans" font-size="10.00">raw_report</text>
</g>
<!-- 3&#45;&gt;0 -->
<g id="edge2" class="edge">
<title>3&#45;&gt;0</title>
<path fill="none" stroke="grey" stroke-width="2" d="M490.43,-503.7C483.79,-495.39 475.7,-485.28 468.39,-476.14"/>
<polygon fill="grey" stroke="grey" stroke-width="2" points="470.94,-473.73 461.96,-468.1 465.47,-478.1 470.94,-473.73"/>
</g>
<!-- 4 -->
<g id="node5" class="node">
<title>4</title>
<path fill="none" stroke="#56d89a" stroke-width="2" stroke-dasharray="5,2" d="M718.28,-612C718.28,-612 626.28,-612 626.28,-612 620.28,-612 614.28,-606 614.28,-600 614.28,-600 614.28,-588 614.28,-588 614.28,-582 620.28,-576 626.28,-576 626.28,-576 718.28,-576 718.28,-576 724.28,-576 730.28,-582 730.28,-588 730.28,-588 730.28,-600 730.28,-600 730.28,-606 724.28,-612 718.28,-612"/>
<text text-anchor="middle" x="672.28" y="-597" font-family="sans" font-size="10.00">prepare_short_reads</text>
<text text-anchor="middle" x="672.28" y="-586" font-family="sans" font-size="10.00">sample: bg1_ag1_s2</text>
</g>
<!-- 4&#45;&gt;3 -->
<g id="edge4" class="edge">
<title>4&#45;&gt;3</title>
<path fill="none" stroke="grey" stroke-width="2" d="M631.18,-575.88C606.11,-565.43 574.08,-552.08 548.47,-541.41"/>
<polygon fill="grey" stroke="grey" stroke-width="2" points="549.57,-538.08 539,-537.47 546.88,-544.54 549.57,-538.08"/>
</g>
<!-- 6 -->
<g id="node7" class="node">
<title>6</title>
<path fill="none" stroke="#569ad8" stroke-width="2" d="M747.28,-540C747.28,-540 679.28,-540 679.28,-540 673.28,-540 667.28,-534 667.28,-528 667.28,-528 667.28,-516 667.28,-516 667.28,-510 673.28,-504 679.28,-504 679.28,-504 747.28,-504 747.28,-504 753.28,-504 759.28,-510 759.28,-516 759.28,-516 759.28,-528 759.28,-528 759.28,-534 753.28,-540 747.28,-540"/>
<text text-anchor="middle" x="713.28" y="-519.5" font-family="sans" font-size="10.00">trimming_fastp</text>
</g>
<!-- 4&#45;&gt;6 -->
<g id="edge6" class="edge">
<title>4&#45;&gt;6</title>
<path fill="none" stroke="grey" stroke-width="2" d="M682.41,-575.7C687.13,-567.64 692.84,-557.89 698.06,-548.98"/>
<polygon fill="grey" stroke="grey" stroke-width="2" points="701.23,-550.5 703.26,-540.1 695.18,-546.96 701.23,-550.5"/>
</g>
<!-- 8 -->
<g id="node9" class="node">
<title>8</title>
<path fill="none" stroke="#d8b456" stroke-width="2" d="M614.28,-468C614.28,-468 542.28,-468 542.28,-468 536.28,-468 530.28,-462 530.28,-456 530.28,-456 530.28,-444 530.28,-444 530.28,-438 536.28,-432 542.28,-432 542.28,-432 614.28,-432 614.28,-432 620.28,-432 626.28,-438 626.28,-444 626.28,-444 626.28,-456 626.28,-456 626.28,-462 620.28,-468 614.28,-468"/>
<text text-anchor="middle" x="578.28" y="-447.5" font-family="sans" font-size="10.00">trimming_report</text>
</g>
<!-- 5&#45;&gt;8 -->
<g id="edge9" class="edge">
<title>5&#45;&gt;8</title>
<path fill="none" stroke="grey" stroke-width="2" d="M597.1,-503.7C594.28,-495.81 590.89,-486.3 587.76,-477.55"/>
<polygon fill="grey" stroke="grey" stroke-width="2" points="591.05,-476.34 584.39,-468.1 584.45,-478.7 591.05,-476.34"/>
</g>
<!-- 10 -->
<g id="node11" class="node">
<title>10</title>
<path fill="none" stroke="#56d88a" stroke-width="2" d="M1249.78,-468C1249.78,-468 1178.78,-468 1178.78,-468 1172.78,-468 1166.78,-462 1166.78,-456 1166.78,-456 1166.78,-444 1166.78,-444 1166.78,-438 1172.78,-432 1178.78,-432 1178.78,-432 1249.78,-432 1249.78,-432 1255.78,-432 1261.78,-438 1261.78,-444 1261.78,-444 1261.78,-456 1261.78,-456 1261.78,-462 1255.78,-468 1249.78,-468"/>
<text text-anchor="middle" x="1214.28" y="-447.5" font-family="sans" font-size="10.00">rmhost_bowtie2</text>
</g>
<!-- 5&#45;&gt;10 -->
<g id="edge11" class="edge">
<title>5&#45;&gt;10</title>
<path fill="none" stroke="grey" stroke-width="2" d="M649.31,-506.02C652.33,-505.27 655.34,-504.59 658.28,-504 837.76,-468.1 1054.86,-456.33 1156.51,-452.62"/>
<polygon fill="grey" stroke="grey" stroke-width="2" points="1156.7,-456.11 1166.57,-452.26 1156.45,-449.12 1156.7,-456.11"/>
</g>
<!-- 9 -->
<g id="node10" class="node">
<title>9</title>
<path fill="none" stroke="#d8b456" stroke-width="2" d="M742.28,-468C742.28,-468 670.28,-468 670.28,-468 664.28,-468 658.28,-462 658.28,-456 658.28,-456 658.28,-444 658.28,-444 658.28,-438 664.28,-432 670.28,-432 670.28,-432 742.28,-432 742.28,-432 748.28,-432 754.28,-438 754.28,-444 754.28,-444 754.28,-456 754.28,-456 754.28,-462 748.28,-468 742.28,-468"/>
<text text-anchor="middle" x="706.28" y="-447.5" font-family="sans" font-size="10.00">trimming_report</text>
</g>
<!-- 6&#45;&gt;9 -->
<g id="edge10" class="edge">
<title>6&#45;&gt;9</title>
<path fill="none" stroke="grey" stroke-width="2" d="M711.55,-503.7C710.78,-495.98 709.85,-486.71 708.99,-478.11"/>
<polygon fill="grey" stroke="grey" stroke-width="2" points="712.47,-477.71 707.99,-468.1 705.5,-478.4 712.47,-477.71"/>
</g>
<!-- 12 -->
<g id="node13" class="node">
<title>12</title>
<path fill="none" stroke="#56d88a" stroke-width="2" d="M1393.78,-468C1393.78,-468 1322.78,-468 1322.78,-468 1316.78,-468 1310.78,-462 1310.78,-456 1310.78,-456 1310.78,-444 1310.78,-444 1310.78,-438 1316.78,-432 1322.78,-432 1322.78,-432 1393.78,-432 1393.78,-432 1399.78,-432 1405.78,-438 1405.78,-444 1405.78,-444 1405.78,-456 1405.78,-456 1405.78,-462 1399.78,-468 1393.78,-468"/>
<text text-anchor="middle" x="1358.28" y="-447.5" font-family="sans" font-size="10.00">rmhost_bowtie2</text>
</g>
<!-- 6&#45;&gt;12 -->
<g id="edge13" class="edge">
<title>6&#45;&gt;12</title>
<path fill="none" stroke="grey" stroke-width="2" d="M759.39,-518.16C855.13,-511.92 1082.28,-495.37 1271.28,-468 1280.77,-466.62 1290.8,-464.91 1300.54,-463.11"/>
<polygon fill="grey" stroke="grey" stroke-width="2" points="1301.39,-466.51 1310.56,-461.2 1300.08,-459.63 1301.39,-466.51"/>
</g>
<!-- 7 -->
<g id="node8" class="node">
<title>7</title>
<path fill="none" stroke="#b6d856" stroke-width="2" d="M625.78,-396C625.78,-396 516.78,-396 516.78,-396 510.78,-396 504.78,-390 504.78,-384 504.78,-384 504.78,-372 504.78,-372 504.78,-366 510.78,-360 516.78,-360 516.78,-360 625.78,-360 625.78,-360 631.78,-360 637.78,-366 637.78,-372 637.78,-372 637.78,-384 637.78,-384 637.78,-390 631.78,-396 625.78,-396"/>
<text text-anchor="middle" x="571.28" y="-375.5" font-family="sans" font-size="10.00">trimming_report_merge</text>
</g>
<!-- 7&#45;&gt;16 -->
<g id="edge20" class="edge">
<title>7&#45;&gt;16</title>
<path fill="none" stroke="grey" stroke-width="2" d="M556.44,-359.87C534.83,-334.92 494.58,-288.45 469.74,-259.77"/>
<polygon fill="grey" stroke="grey" stroke-width="2" points="472.36,-257.46 463.17,-252.19 467.07,-262.04 472.36,-257.46"/>
</g>
<!-- 8&#45;&gt;7 -->
<g id="edge7" class="edge">
<title>8&#45;&gt;7</title>
<path fill="none" stroke="grey" stroke-width="2" d="M576.55,-431.7C575.78,-423.98 574.85,-414.71 573.99,-406.11"/>
<polygon fill="grey" stroke="grey" stroke-width="2" points="577.47,-405.71 572.99,-396.1 570.5,-406.4 577.47,-405.71"/>
</g>
<!-- 9&#45;&gt;7 -->
<g id="edge8" class="edge">
<title>9&#45;&gt;7</title>
<path fill="none" stroke="grey" stroke-width="2" d="M673.25,-431.88C655.19,-422.51 632.63,-410.81 613.33,-400.8"/>
<polygon fill="grey" stroke="grey" stroke-width="2" points="614.92,-397.69 604.43,-396.19 611.7,-403.9 614.92,-397.69"/>
</g>
<!-- 14 -->
<g id="node15" class="node">
<title>14</title>
<path fill="none" stroke="#566bd8" stroke-width="2" d="M730.28,-396C730.28,-396 668.28,-396 668.28,-396 662.28,-396 656.28,-390 656.28,-384 656.28,-384 656.28,-372 656.28,-372 656.28,-366 662.28,-360 668.28,-360 668.28,-360 730.28,-360 730.28,-360 736.28,-360 742.28,-366 742.28,-372 742.28,-372 742.28,-384 742.28,-384 742.28,-390 736.28,-396 730.28,-396"/>
<text text-anchor="middle" x="699.28" y="-375.5" font-family="sans" font-size="10.00">rmhost_report</text>
</g>
<!-- 10&#45;&gt;14 -->
<g id="edge17" class="edge">
<title>10&#45;&gt;14</title>
<path fill="none" stroke="grey" stroke-width="2" d="M1166.7,-446.24C1083.01,-440.78 904.27,-426.39 756.28,-396 755,-395.74 753.7,-395.46 752.4,-395.17"/>
<polygon fill="grey" stroke="grey" stroke-width="2" points="752.88,-391.68 742.34,-392.7 751.22,-398.48 752.88,-391.68"/>
</g>
<!-- 18 -->
<g id="node19" class="node">
<title>18</title>
<path fill="none" stroke="#56d86b" stroke-width="2" d="M658.78,-252C658.78,-252 581.78,-252 581.78,-252 575.78,-252 569.78,-246 569.78,-240 569.78,-240 569.78,-228 569.78,-228 569.78,-222 575.78,-216 581.78,-216 581.78,-216 658.78,-216 658.78,-216 664.78,-216 670.78,-222 670.78,-228 670.78,-228 670.78,-240 670.78,-240 670.78,-246 664.78,-252 658.78,-252"/>
<text text-anchor="middle" x="620.28" y="-231.5" font-family="sans" font-size="10.00">profiling_kraken2</text>
</g>
<!-- 10&#45;&gt;18 -->
<g id="edge23" class="edge">
<title>10&#45;&gt;18</title>
<path fill="none" stroke="grey" stroke-width="2" d="M1166.42,-449.18C1067.8,-448.58 846.38,-442.01 789.28,-396 749.66,-364.07 786.42,-324.8 751.28,-288 732.43,-268.26 705.23,-255.67 680.49,-247.74"/>
<polygon fill="grey" stroke="grey" stroke-width="2" points="681.38,-244.35 670.8,-244.83 679.36,-251.06 681.38,-244.35"/>
</g>
<!-- 30 -->
<g id="node31" class="node">
<title>30</title>
<path fill="none" stroke="#d89556" stroke-width="2" d="M1246.28,-396C1246.28,-396 1150.28,-396 1150.28,-396 1144.28,-396 1138.28,-390 1138.28,-384 1138.28,-384 1138.28,-372 1138.28,-372 1138.28,-366 1144.28,-360 1150.28,-360 1150.28,-360 1246.28,-360 1246.28,-360 1252.28,-360 1258.28,-366 1258.28,-372 1258.28,-372 1258.28,-384 1258.28,-384 1258.28,-390 1252.28,-396 1246.28,-396"/>
<text text-anchor="middle" x="1198.28" y="-375.5" font-family="sans" font-size="10.00">profiling_metaphlan3</text>
</g>
<!-- 10&#45;&gt;30 -->
<g id="edge41" class="edge">
<title>10&#45;&gt;30</title>
<path fill="none" stroke="grey" stroke-width="2" d="M1210.32,-431.7C1208.56,-423.98 1206.44,-414.71 1204.47,-406.11"/>
<polygon fill="grey" stroke="grey" stroke-width="2" points="1207.83,-405.07 1202.19,-396.1 1201,-406.63 1207.83,-405.07"/>
</g>
<!-- 35 -->
<g id="node36" class="node">
<title>35</title>
<path fill="none" stroke="#56a9d8" stroke-width="2" d="M2091.28,-396C2091.28,-396 1989.28,-396 1989.28,-396 1983.28,-396 1977.28,-390 1977.28,-384 1977.28,-384 1977.28,-372 1977.28,-372 1977.28,-366 1983.28,-360 1989.28,-360 1989.28,-360 2091.28,-360 2091.28,-360 2097.28,-360 2103.28,-366 2103.28,-372 2103.28,-372 2103.28,-384 2103.28,-384 2103.28,-390 2097.28,-396 2091.28,-396"/>
<text text-anchor="middle" x="2040.28" y="-381" font-family="sans" font-size="10.00">profiling_kmcp_search</text>
<text text-anchor="middle" x="2040.28" y="-370" font-family="sans" font-size="10.00">kmcp_db: bacteriome</text>
</g>
<!-- 10&#45;&gt;35 -->
<g id="edge49" class="edge">
<title>10&#45;&gt;35</title>
<path fill="none" stroke="grey" stroke-width="2" d="M1262.05,-438.56C1275.04,-436.06 1289.15,-433.63 1302.28,-432 1581.91,-397.2 1655.15,-426.56 1935.28,-396 1945.57,-394.88 1956.39,-393.43 1967.02,-391.86"/>
<polygon fill="grey" stroke="grey" stroke-width="2" points="1967.77,-395.28 1977.12,-390.31 1966.71,-388.36 1967.77,-395.28"/>
</g>
<!-- 36 -->
<g id="node37" class="node">
<title>36</title>
<path fill="none" stroke="#56a9d8" stroke-width="2" d="M2268.28,-396C2268.28,-396 2166.28,-396 2166.28,-396 2160.28,-396 2154.28,-390 2154.28,-384 2154.28,-384 2154.28,-372 2154.28,-372 2154.28,-366 2160.28,-360 2166.28,-360 2166.28,-360 2268.28,-360 2268.28,-360 2274.28,-360 2280.28,-366 2280.28,-372 2280.28,-372 2280.28,-384 2280.28,-384 2280.28,-390 2274.28,-396 2268.28,-396"/>
<text text-anchor="middle" x="2217.28" y="-381" font-family="sans" font-size="10.00">profiling_kmcp_search</text>
<text text-anchor="middle" x="2217.28" y="-370" font-family="sans" font-size="10.00">kmcp_db: mycobiome</text>
</g>
<!-- 10&#45;&gt;36 -->
<g id="edge50" class="edge">
<title>10&#45;&gt;36</title>
<path fill="none" stroke="grey" stroke-width="2" d="M1262.03,-438.46C1275.03,-435.95 1289.14,-433.55 1302.28,-432 1660.14,-389.71 1753.81,-432.86 2112.28,-396 2122.58,-394.94 2133.41,-393.53 2144.03,-391.97"/>
<polygon fill="grey" stroke="grey" stroke-width="2" points="2144.78,-395.4 2154.14,-390.44 2143.73,-388.48 2144.78,-395.4"/>
</g>
<!-- 37 -->
<g id="node38" class="node">
<title>37</title>
<path fill="none" stroke="#56a9d8" stroke-width="2" d="M1740.28,-396C1740.28,-396 1638.28,-396 1638.28,-396 1632.28,-396 1626.28,-390 1626.28,-384 1626.28,-384 1626.28,-372 1626.28,-372 1626.28,-366 1632.28,-360 1638.28,-360 1638.28,-360 1740.28,-360 1740.28,-360 1746.28,-360 1752.28,-366 1752.28,-372 1752.28,-372 1752.28,-384 1752.28,-384 1752.28,-390 1746.28,-396 1740.28,-396"/>
<text text-anchor="middle" x="1689.28" y="-381" font-family="sans" font-size="10.00">profiling_kmcp_search</text>
<text text-anchor="middle" x="1689.28" y="-370" font-family="sans" font-size="10.00">kmcp_db: virome</text>
</g>
<!-- 10&#45;&gt;37 -->
<g id="edge51" class="edge">
<title>10&#45;&gt;37</title>
<path fill="none" stroke="grey" stroke-width="2" d="M1262.12,-439.06C1275.11,-436.56 1289.2,-434.01 1302.28,-432 1438.29,-411.12 1476.68,-419.8 1615.94,-396.11"/>
<polygon fill="grey" stroke="grey" stroke-width="2" points="1616.89,-399.5 1626.15,-394.35 1615.7,-392.6 1616.89,-399.5"/>
</g>
<!-- 62 -->
<g id="node63" class="node">
<title>62</title>
<path fill="none" stroke="#d88556" stroke-width="2" d="M1595.78,-396C1595.78,-396 1464.78,-396 1464.78,-396 1458.78,-396 1452.78,-390 1452.78,-384 1452.78,-384 1452.78,-372 1452.78,-372 1452.78,-366 1458.78,-360 1464.78,-360 1464.78,-360 1595.78,-360 1595.78,-360 1601.78,-360 1607.78,-366 1607.78,-372 1607.78,-372 1607.78,-384 1607.78,-384 1607.78,-390 1601.78,-396 1595.78,-396"/>
<text text-anchor="middle" x="1530.28" y="-375.5" font-family="sans" font-size="10.00">profiling_alignment_bowtie2</text>
</g>
<!-- 10&#45;&gt;62 -->
<g id="edge84" class="edge">
<title>10&#45;&gt;62</title>
<path fill="none" stroke="grey" stroke-width="2" d="M1261.93,-438.44C1309.85,-427.83 1384.81,-411.22 1443.34,-398.26"/>
<polygon fill="grey" stroke="grey" stroke-width="2" points="1444.32,-401.63 1453.33,-396.05 1442.81,-394.79 1444.32,-401.63"/>
</g>
<!-- 71 -->
<g id="node72" class="node">
<title>71</title>
<path fill="none" stroke="#56d863" stroke-width="2" d="M1081.78,-324C1081.78,-324 998.78,-324 998.78,-324 992.78,-324 986.78,-318 986.78,-312 986.78,-312 986.78,-300 986.78,-300 986.78,-294 992.78,-288 998.78,-288 998.78,-288 1081.78,-288 1081.78,-288 1087.78,-288 1093.78,-294 1093.78,-300 1093.78,-300 1093.78,-312 1093.78,-312 1093.78,-318 1087.78,-324 1081.78,-324"/>
<text text-anchor="middle" x="1040.28" y="-303.5" font-family="sans" font-size="10.00">profiling_humann3</text>
</g>
<!-- 10&#45;&gt;71 -->
<g id="edge98" class="edge">
<title>10&#45;&gt;71</title>
<path fill="none" stroke="grey" stroke-width="2" d="M1166.68,-445.63C1102.55,-439.99 993.6,-426.14 969.28,-396 959.23,-383.55 962.11,-374.3 969.28,-360 975.38,-347.84 985.74,-337.75 996.69,-329.76"/>
<polygon fill="grey" stroke="grey" stroke-width="2" points="998.79,-332.56 1005.11,-324.06 994.87,-326.76 998.79,-332.56"/>
</g>
<!-- 11 -->
<g id="node12" class="node">
<title>11</title>
<path fill="none" stroke="#d86656" stroke-width="2" stroke-dasharray="5,2" d="M1322.28,-540C1322.28,-540 1218.28,-540 1218.28,-540 1212.28,-540 1206.28,-534 1206.28,-528 1206.28,-528 1206.28,-516 1206.28,-516 1206.28,-510 1212.28,-504 1218.28,-504 1218.28,-504 1322.28,-504 1322.28,-504 1328.28,-504 1334.28,-510 1334.28,-516 1334.28,-516 1334.28,-528 1334.28,-528 1334.28,-534 1328.28,-540 1322.28,-540"/>
<text text-anchor="middle" x="1270.28" y="-519.5" font-family="sans" font-size="10.00">rmhost_bowtie2_index</text>
</g>
<!-- 11&#45;&gt;10 -->
<g id="edge12" class="edge">
<title>11&#45;&gt;10</title>
<path fill="none" stroke="grey" stroke-width="2" d="M1256.43,-503.7C1249.79,-495.39 1241.7,-485.28 1234.39,-476.14"/>
<polygon fill="grey" stroke="grey" stroke-width="2" points="1236.94,-473.73 1227.96,-468.1 1231.47,-478.1 1236.94,-473.73"/>
</g>
<!-- 11&#45;&gt;12 -->
<g id="edge14" class="edge">
<title>11&#45;&gt;12</title>
<path fill="none" stroke="grey" stroke-width="2" d="M1292.03,-503.7C1303.11,-494.88 1316.75,-484.03 1328.77,-474.47"/>
<polygon fill="grey" stroke="grey" stroke-width="2" points="1331.13,-477.07 1336.77,-468.1 1326.77,-471.59 1331.13,-477.07"/>
</g>
<!-- 15 -->
<g id="node16" class="node">
<title>15</title>
<path fill="none" stroke="#566bd8" stroke-width="2" d="M872.28,-396C872.28,-396 810.28,-396 810.28,-396 804.28,-396 798.28,-390 798.28,-384 798.28,-384 798.28,-372 798.28,-372 798.28,-366 804.28,-360 810.28,-360 810.28,-360 872.28,-360 872.28,-360 878.28,-360 884.28,-366 884.28,-372 884.28,-372 884.28,-384 884.28,-384 884.28,-390 878.28,-396 872.28,-396"/>
<text text-anchor="middle" x="841.28" y="-375.5" font-family="sans" font-size="10.00">rmhost_report</text>
</g>
<!-- 12&#45;&gt;15 -->
<g id="edge18" class="edge">
<title>12&#45;&gt;15</title>
<path fill="none" stroke="grey" stroke-width="2" d="M1310.54,-438.91C1297.82,-436.43 1284.06,-433.93 1271.28,-432 1123.21,-409.62 1084.51,-417.2 936.28,-396 922.8,-394.07 908.3,-391.65 894.79,-389.25"/>
<polygon fill="grey" stroke="grey" stroke-width="2" points="895.15,-385.76 884.68,-387.43 893.9,-392.65 895.15,-385.76"/>
</g>
<!-- 19 -->
<g id="node20" class="node">
<title>19</title>
<path fill="none" stroke="#56d86b" stroke-width="2" d="M810.78,-252C810.78,-252 733.78,-252 733.78,-252 727.78,-252 721.78,-246 721.78,-240 721.78,-240 721.78,-228 721.78,-228 721.78,-222 727.78,-216 733.78,-216 733.78,-216 810.78,-216 810.78,-216 816.78,-216 822.78,-222 822.78,-228 822.78,-228 822.78,-240 822.78,-240 822.78,-246 816.78,-252 810.78,-252"/>
<text text-anchor="middle" x="772.28" y="-231.5" font-family="sans" font-size="10.00">profiling_kraken2</text>
</g>
<!-- 12&#45;&gt;19 -->
<g id="edge24" class="edge">
<title>12&#45;&gt;19</title>
<path fill="none" stroke="grey" stroke-width="2" d="M1310.53,-439.01C1297.81,-436.53 1284.05,-434.01 1271.28,-432 1137.74,-411.02 1093.68,-448.88 969.28,-396 895.39,-364.6 827.12,-296.63 793.73,-259.85"/>
<polygon fill="grey" stroke="grey" stroke-width="2" points="796.05,-257.18 786.77,-252.07 790.83,-261.85 796.05,-257.18"/>
</g>
<!-- 31 -->
<g id="node32" class="node">
<title>31</title>
<path fill="none" stroke="#d89556" stroke-width="2" d="M1422.28,-396C1422.28,-396 1326.28,-396 1326.28,-396 1320.28,-396 1314.28,-390 1314.28,-384 1314.28,-384 1314.28,-372 1314.28,-372 1314.28,-366 1320.28,-360 1326.28,-360 1326.28,-360 1422.28,-360 1422.28,-360 1428.28,-360 1434.28,-366 1434.28,-372 1434.28,-372 1434.28,-384 1434.28,-384 1434.28,-390 1428.28,-396 1422.28,-396"/>
<text text-anchor="middle" x="1374.28" y="-375.5" font-family="sans" font-size="10.00">profiling_metaphlan3</text>
</g>
<!-- 12&#45;&gt;31 -->
<g id="edge42" class="edge">
<title>12&#45;&gt;31</title>
<path fill="none" stroke="grey" stroke-width="2" d="M1362.23,-431.7C1364,-423.98 1366.11,-414.71 1368.08,-406.11"/>
<polygon fill="grey" stroke="grey" stroke-width="2" points="1371.55,-406.63 1370.37,-396.1 1364.73,-405.07 1371.55,-406.63"/>
</g>
<!-- 40 -->
<g id="node41" class="node">
<title>40</title>
<path fill="none" stroke="#56a9d8" stroke-width="2" d="M2673.28,-396C2673.28,-396 2571.28,-396 2571.28,-396 2565.28,-396 2559.28,-390 2559.28,-384 2559.28,-384 2559.28,-372 2559.28,-372 2559.28,-366 2565.28,-360 2571.28,-360 2571.28,-360 2673.28,-360 2673.28,-360 2679.28,-360 2685.28,-366 2685.28,-372 2685.28,-372 2685.28,-384 2685.28,-384 2685.28,-390 2679.28,-396 2673.28,-396"/>
<text text-anchor="middle" x="2622.28" y="-381" font-family="sans" font-size="10.00">profiling_kmcp_search</text>
<text text-anchor="middle" x="2622.28" y="-370" font-family="sans" font-size="10.00">kmcp_db: bacteriome</text>
</g>
<!-- 12&#45;&gt;40 -->
<g id="edge56" class="edge">
<title>12&#45;&gt;40</title>
<path fill="none" stroke="grey" stroke-width="2" d="M1406,-447.63C1559.02,-443.03 2051.08,-426.7 2457.28,-396 2487.33,-393.73 2520.38,-390.47 2548.96,-387.42"/>
<polygon fill="grey" stroke="grey" stroke-width="2" points="2549.71,-390.86 2559.28,-386.3 2548.96,-383.9 2549.71,-390.86"/>
</g>
<!-- 41 -->
<g id="node42" class="node">
<title>41</title>
<path fill="none" stroke="#56a9d8" stroke-width="2" d="M2864.28,-396C2864.28,-396 2762.28,-396 2762.28,-396 2756.28,-396 2750.28,-390 2750.28,-384 2750.28,-384 2750.28,-372 2750.28,-372 2750.28,-366 2756.28,-360 2762.28,-360 2762.28,-360 2864.28,-360 2864.28,-360 2870.28,-360 2876.28,-366 2876.28,-372 2876.28,-372 2876.28,-384 2876.28,-384 2876.28,-390 2870.28,-396 2864.28,-396"/>
<text text-anchor="middle" x="2813.28" y="-381" font-family="sans" font-size="10.00">profiling_kmcp_search</text>
<text text-anchor="middle" x="2813.28" y="-370" font-family="sans" font-size="10.00">kmcp_db: mycobiome</text>
</g>
<!-- 12&#45;&gt;41 -->
<g id="edge57" class="edge">
<title>12&#45;&gt;41</title>
<path fill="none" stroke="grey" stroke-width="2" d="M1406.02,-448.87C1579.38,-448.02 2191.77,-441.74 2694.28,-396 2709.05,-394.66 2724.8,-392.75 2739.84,-390.69"/>
<polygon fill="grey" stroke="grey" stroke-width="2" points="2740.7,-394.1 2750.12,-389.25 2739.73,-387.17 2740.7,-394.1"/>
</g>
<!-- 42 -->
<g id="node43" class="node">
<title>42</title>
<path fill="none" stroke="#56a9d8" stroke-width="2" d="M2436.28,-396C2436.28,-396 2334.28,-396 2334.28,-396 2328.28,-396 2322.28,-390 2322.28,-384 2322.28,-384 2322.28,-372 2322.28,-372 2322.28,-366 2328.28,-360 2334.28,-360 2334.28,-360 2436.28,-360 2436.28,-360 2442.28,-360 2448.28,-366 2448.28,-372 2448.28,-372 2448.28,-384 2448.28,-384 2448.28,-390 2442.28,-396 2436.28,-396"/>
<text text-anchor="middle" x="2385.28" y="-381" font-family="sans" font-size="10.00">profiling_kmcp_search</text>
<text text-anchor="middle" x="2385.28" y="-370" font-family="sans" font-size="10.00">kmcp_db: virome</text>
</g>
<!-- 12&#45;&gt;42 -->
<g id="edge58" class="edge">
<title>12&#45;&gt;42</title>
<path fill="none" stroke="grey" stroke-width="2" d="M1405.92,-448.28C1543.39,-445.76 1952.39,-435.28 2289.28,-396 2296.7,-395.13 2304.42,-394.06 2312.11,-392.88"/>
<polygon fill="grey" stroke="grey" stroke-width="2" points="2312.85,-396.3 2322.18,-391.27 2311.75,-389.39 2312.85,-396.3"/>
</g>
<!-- 66 -->
<g id="node67" class="node">
<title>66</title>
<path fill="none" stroke="#d88556" stroke-width="2" d="M1913.78,-396C1913.78,-396 1782.78,-396 1782.78,-396 1776.78,-396 1770.78,-390 1770.78,-384 1770.78,-384 1770.78,-372 1770.78,-372 1770.78,-366 1776.78,-360 1782.78,-360 1782.78,-360 1913.78,-360 1913.78,-360 1919.78,-360 1925.78,-366 1925.78,-372 1925.78,-372 1925.78,-384 1925.78,-384 1925.78,-390 1919.78,-396 1913.78,-396"/>
<text text-anchor="middle" x="1848.28" y="-375.5" font-family="sans" font-size="10.00">profiling_alignment_bowtie2</text>
</g>
<!-- 12&#45;&gt;66 -->
<g id="edge88" class="edge">
<title>12&#45;&gt;66</title>
<path fill="none" stroke="grey" stroke-width="2" d="M1405.88,-443.71C1479.57,-435.31 1625.93,-417.78 1760.46,-396.08"/>
<polygon fill="grey" stroke="grey" stroke-width="2" points="1761.22,-399.5 1770.53,-394.44 1760.1,-392.59 1761.22,-399.5"/>
</g>
<!-- 73 -->
<g id="node74" class="node">
<title>73</title>
<path fill="none" stroke="#56d863" stroke-width="2" d="M1214.78,-324C1214.78,-324 1131.78,-324 1131.78,-324 1125.78,-324 1119.78,-318 1119.78,-312 1119.78,-312 1119.78,-300 1119.78,-300 1119.78,-294 1125.78,-288 1131.78,-288 1131.78,-288 1214.78,-288 1214.78,-288 1220.78,-288 1226.78,-294 1226.78,-300 1226.78,-300 1226.78,-312 1226.78,-312 1226.78,-318 1220.78,-324 1214.78,-324"/>
<text text-anchor="middle" x="1173.28" y="-303.5" font-family="sans" font-size="10.00">profiling_humann3</text>
</g>
<!-- 12&#45;&gt;73 -->
<g id="edge101" class="edge">
<title>12&#45;&gt;73</title>
<path fill="none" stroke="grey" stroke-width="2" d="M1341.08,-431.7C1316.99,-407.54 1275.23,-365.97 1267.28,-360 1252,-348.53 1233.97,-337.79 1217.82,-329.01"/>
<polygon fill="grey" stroke="grey" stroke-width="2" points="1219.03,-325.69 1208.55,-324.08 1215.74,-331.87 1219.03,-325.69"/>
</g>
<!-- 13 -->
<g id="node14" class="node">
<title>13</title>
<path fill="none" stroke="#d86e56" stroke-width="2" d="M730.28,-324C730.28,-324 632.28,-324 632.28,-324 626.28,-324 620.28,-318 620.28,-312 620.28,-312 620.28,-300 620.28,-300 620.28,-294 626.28,-288 632.28,-288 632.28,-288 730.28,-288 730.28,-288 736.28,-288 742.28,-294 742.28,-300 742.28,-300 742.28,-312 742.28,-312 742.28,-318 736.28,-324 730.28,-324"/>
<text text-anchor="middle" x="681.28" y="-303.5" font-family="sans" font-size="10.00">rmhost_report_merge</text>
</g>
<!-- 13&#45;&gt;16 -->
<g id="edge21" class="edge">
<title>13&#45;&gt;16</title>
<path fill="none" stroke="grey" stroke-width="2" d="M624.58,-287.97C590.72,-277.79 547.61,-264.84 512.5,-254.29"/>
<polygon fill="grey" stroke="grey" stroke-width="2" points="513.4,-250.91 502.82,-251.39 511.39,-257.62 513.4,-250.91"/>
</g>
<!-- 14&#45;&gt;13 -->
<g id="edge15" class="edge">
<title>14&#45;&gt;13</title>
<path fill="none" stroke="grey" stroke-width="2" d="M694.83,-359.7C692.82,-351.9 690.41,-342.51 688.18,-333.83"/>
<polygon fill="grey" stroke="grey" stroke-width="2" points="691.56,-332.92 685.68,-324.1 684.78,-334.66 691.56,-332.92"/>
</g>
<!-- 15&#45;&gt;13 -->
<g id="edge16" class="edge">
<title>15&#45;&gt;13</title>
<path fill="none" stroke="grey" stroke-width="2" d="M802.14,-359.88C780.26,-350.31 752.82,-338.3 729.62,-328.15"/>
<polygon fill="grey" stroke="grey" stroke-width="2" points="730.86,-324.87 720.29,-324.07 728.05,-331.28 730.86,-324.87"/>
</g>
<!-- 17 -->
<g id="node18" class="node">
<title>17</title>
<path fill="none" stroke="#d8d356" stroke-width="2" d="M92.78,-108C92.78,-108 35.78,-108 35.78,-108 29.78,-108 23.78,-102 23.78,-96 23.78,-96 23.78,-84 23.78,-84 23.78,-78 29.78,-72 35.78,-72 35.78,-72 92.78,-72 92.78,-72 98.78,-72 104.78,-78 104.78,-84 104.78,-84 104.78,-96 104.78,-96 104.78,-102 98.78,-108 92.78,-108"/>
<text text-anchor="middle" x="64.28" y="-87.5" font-family="sans" font-size="10.00">qcreport_plot</text>
</g>
<!-- 16&#45;&gt;17 -->
<g id="edge22" class="edge">
<title>16&#45;&gt;17</title>
<path fill="none" stroke="grey" stroke-width="2" d="M393.54,-232.08C304.16,-229.44 132.42,-219.25 88.28,-180 71.04,-164.68 65.61,-138.4 64.15,-118.36"/>
<polygon fill="grey" stroke="grey" stroke-width="2" points="67.64,-118.1 63.7,-108.26 60.65,-118.41 67.64,-118.1"/>
</g>
<!-- 77 -->
<g id="node78" class="node">
<title>77</title>
<path fill="none" stroke="#56d8a9" stroke-width="2" d="M1420.28,-36C1420.28,-36 1370.28,-36 1370.28,-36 1364.28,-36 1358.28,-30 1358.28,-24 1358.28,-24 1358.28,-12 1358.28,-12 1358.28,-6 1364.28,0 1370.28,0 1370.28,0 1420.28,0 1420.28,0 1426.28,0 1432.28,-6 1432.28,-12 1432.28,-12 1432.28,-24 1432.28,-24 1432.28,-30 1426.28,-36 1420.28,-36"/>
<text text-anchor="middle" x="1395.28" y="-15.5" font-family="sans" font-size="10.00">profiling_all</text>
</g>
<!-- 16&#45;&gt;77 -->
<g id="edge111" class="edge">
<title>16&#45;&gt;77</title>
<path fill="none" stroke="grey" stroke-width="2" d="M393.54,-230.81C300.98,-226.23 118.34,-213.18 64.28,-180 19.2,-152.33 -22.4,-110.11 14.28,-72 61.49,-22.94 1110.82,-19.21 1347.95,-19"/>
<polygon fill="grey" stroke="grey" stroke-width="2" points="1347.98,-22.5 1357.98,-18.99 1347.97,-15.5 1347.98,-22.5"/>
</g>
<!-- 17&#45;&gt;77 -->
<g id="edge112" class="edge">
<title>17&#45;&gt;77</title>
<path fill="none" stroke="grey" stroke-width="2" d="M104.84,-75.18C109.66,-73.92 114.55,-72.81 119.28,-72 362.38,-30.11 1146.92,-21 1347.98,-19.33"/>
<polygon fill="grey" stroke="grey" stroke-width="2" points="1348.24,-22.83 1358.21,-19.25 1348.18,-15.83 1348.24,-22.83"/>
</g>
<!-- 20 -->
<g id="node21" class="node">
<title>20</title>
<path fill="none" stroke="#afd856" stroke-width="2" d="M844.28,-180C844.28,-180 700.28,-180 700.28,-180 694.28,-180 688.28,-174 688.28,-168 688.28,-168 688.28,-156 688.28,-156 688.28,-150 694.28,-144 700.28,-144 700.28,-144 844.28,-144 844.28,-144 850.28,-144 856.28,-150 856.28,-156 856.28,-156 856.28,-168 856.28,-168 856.28,-174 850.28,-180 844.28,-180"/>
<text text-anchor="middle" x="772.28" y="-159.5" font-family="sans" font-size="10.00">profiling_kraken2_krona_report</text>
</g>
<!-- 18&#45;&gt;20 -->
<g id="edge25" class="edge">
<title>18&#45;&gt;20</title>
<path fill="none" stroke="grey" stroke-width="2" d="M657.46,-215.88C678.15,-206.35 704.08,-194.41 726.06,-184.28"/>
<polygon fill="grey" stroke="grey" stroke-width="2" points="727.6,-187.43 735.21,-180.07 724.67,-181.07 727.6,-187.43"/>
</g>
<!-- 21 -->
<g id="node22" class="node">
<title>21</title>
<path fill="none" stroke="#59d856" stroke-width="2" d="M306.28,-180C306.28,-180 142.28,-180 142.28,-180 136.28,-180 130.28,-174 130.28,-168 130.28,-168 130.28,-156 130.28,-156 130.28,-150 136.28,-144 142.28,-144 142.28,-144 306.28,-144 306.28,-144 312.28,-144 318.28,-150 318.28,-156 318.28,-156 318.28,-168 318.28,-168 318.28,-174 312.28,-180 306.28,-180"/>
<text text-anchor="middle" x="224.28" y="-159.5" font-family="sans" font-size="10.00">profiling_kraken2_combine_kreport</text>
</g>
<!-- 18&#45;&gt;21 -->
<g id="edge27" class="edge">
<title>18&#45;&gt;21</title>
<path fill="none" stroke="grey" stroke-width="2" d="M569.72,-224.06C509.26,-213.38 406.47,-195.21 328.7,-181.46"/>
<polygon fill="grey" stroke="grey" stroke-width="2" points="328.84,-177.93 318.39,-179.64 327.62,-184.82 328.84,-177.93"/>
</g>
<!-- 22 -->
<g id="node23" class="node">
<title>22</title>
<path fill="none" stroke="#d85656" stroke-width="2" d="M539.78,-180C539.78,-180 348.78,-180 348.78,-180 342.78,-180 336.78,-174 336.78,-168 336.78,-168 336.78,-156 336.78,-156 336.78,-150 342.78,-144 348.78,-144 348.78,-144 539.78,-144 539.78,-144 545.78,-144 551.78,-150 551.78,-156 551.78,-156 551.78,-168 551.78,-168 551.78,-174 545.78,-180 539.78,-180"/>
<text text-anchor="middle" x="444.28" y="-159.5" font-family="sans" font-size="10.00">profiling_kraken2_combine_kreport_mpa</text>
</g>
<!-- 18&#45;&gt;22 -->
<g id="edge29" class="edge">
<title>18&#45;&gt;22</title>
<path fill="none" stroke="grey" stroke-width="2" d="M577.22,-215.88C552.95,-206.22 522.44,-194.09 496.77,-183.88"/>
<polygon fill="grey" stroke="grey" stroke-width="2" points="497.78,-180.51 487.19,-180.07 495.19,-187.02 497.78,-180.51"/>
</g>
<!-- 24 -->
<g id="node25" class="node">
<title>24</title>
<path fill="none" stroke="#56d0d8" stroke-width="2" d="M962.28,-180C962.28,-180 886.28,-180 886.28,-180 880.28,-180 874.28,-174 874.28,-168 874.28,-168 874.28,-156 874.28,-156 874.28,-150 880.28,-144 886.28,-144 886.28,-144 962.28,-144 962.28,-144 968.28,-144 974.28,-150 974.28,-156 974.28,-156 974.28,-168 974.28,-168 974.28,-174 968.28,-180 962.28,-180"/>
<text text-anchor="middle" x="924.28" y="-165" font-family="sans" font-size="10.00">profiling_bracken</text>
<text text-anchor="middle" x="924.28" y="-154" font-family="sans" font-size="10.00">level: G</text>
</g>
<!-- 18&#45;&gt;24 -->
<g id="edge33" class="edge">
<title>18&#45;&gt;24</title>
<path fill="none" stroke="grey" stroke-width="2" d="M671.19,-223.03C718.77,-213.48 791.98,-198.18 864.38,-180.15"/>
<polygon fill="grey" stroke="grey" stroke-width="2" points="865.28,-183.53 874.13,-177.7 863.58,-176.74 865.28,-183.53"/>
</g>
<!-- 27 -->
<g id="node28" class="node">
<title>27</title>
<path fill="none" stroke="#56d0d8" stroke-width="2" d="M658.28,-180C658.28,-180 582.28,-180 582.28,-180 576.28,-180 570.28,-174 570.28,-168 570.28,-168 570.28,-156 570.28,-156 570.28,-150 576.28,-144 582.28,-144 582.28,-144 658.28,-144 658.28,-144 664.28,-144 670.28,-150 670.28,-156 670.28,-156 670.28,-168 670.28,-168 670.28,-174 664.28,-180 658.28,-180"/>
<text text-anchor="middle" x="620.28" y="-165" font-family="sans" font-size="10.00">profiling_bracken</text>
<text text-anchor="middle" x="620.28" y="-154" font-family="sans" font-size="10.00">level: S</text>
</g>
<!-- 18&#45;&gt;27 -->
<g id="edge37" class="edge">
<title>18&#45;&gt;27</title>
<path fill="none" stroke="grey" stroke-width="2" d="M620.28,-215.7C620.28,-207.98 620.28,-198.71 620.28,-190.11"/>
<polygon fill="grey" stroke="grey" stroke-width="2" points="623.78,-190.1 620.28,-180.1 616.78,-190.1 623.78,-190.1"/>
</g>
<!-- 18&#45;&gt;77 -->
<g id="edge106" class="edge">
<title>18&#45;&gt;77</title>
<path fill="none" stroke="grey" stroke-width="2" d="M569.63,-224.42C551.28,-221.5 530.38,-218.37 511.28,-216 468.09,-210.64 150.6,-212.15 121.28,-180 110.5,-168.18 111.22,-156.45 121.28,-144 199.9,-46.68 1125.98,-23.85 1347.77,-19.77"/>
<polygon fill="grey" stroke="grey" stroke-width="2" points="1348.16,-23.26 1358.09,-19.58 1348.03,-16.26 1348.16,-23.26"/>
</g>
<!-- 19&#45;&gt;20 -->
<g id="edge26" class="edge">
<title>19&#45;&gt;20</title>
<path fill="none" stroke="grey" stroke-width="2" d="M772.28,-215.7C772.28,-207.98 772.28,-198.71 772.28,-190.11"/>
<polygon fill="grey" stroke="grey" stroke-width="2" points="775.78,-190.1 772.28,-180.1 768.78,-190.1 775.78,-190.1"/>
</g>
<!-- 19&#45;&gt;21 -->
<g id="edge28" class="edge">
<title>19&#45;&gt;21</title>
<path fill="none" stroke="grey" stroke-width="2" d="M721.72,-223.01C707.98,-220.5 693.09,-217.97 679.28,-216 526.78,-194.3 484.86,-200.54 328.51,-180.12"/>
<polygon fill="grey" stroke="grey" stroke-width="2" points="328.91,-176.64 318.54,-178.8 328,-183.58 328.91,-176.64"/>
</g>
<!-- 19&#45;&gt;22 -->
<g id="edge30" class="edge">
<title>19&#45;&gt;22</title>
<path fill="none" stroke="grey" stroke-width="2" d="M721.75,-222.22C671.87,-211.57 594.53,-195.07 534.16,-182.18"/>
<polygon fill="grey" stroke="grey" stroke-width="2" points="534.75,-178.73 524.24,-180.07 533.29,-185.58 534.75,-178.73"/>
</g>
<!-- 25 -->
<g id="node26" class="node">
<title>25</title>
<path fill="none" stroke="#56d0d8" stroke-width="2" d="M1198.28,-180C1198.28,-180 1122.28,-180 1122.28,-180 1116.28,-180 1110.28,-174 1110.28,-168 1110.28,-168 1110.28,-156 1110.28,-156 1110.28,-150 1116.28,-144 1122.28,-144 1122.28,-144 1198.28,-144 1198.28,-144 1204.28,-144 1210.28,-150 1210.28,-156 1210.28,-156 1210.28,-168 1210.28,-168 1210.28,-174 1204.28,-180 1198.28,-180"/>
<text text-anchor="middle" x="1160.28" y="-165" font-family="sans" font-size="10.00">profiling_bracken</text>
<text text-anchor="middle" x="1160.28" y="-154" font-family="sans" font-size="10.00">level: G</text>
</g>
<!-- 19&#45;&gt;25 -->
<g id="edge34" class="edge">
<title>19&#45;&gt;25</title>
<path fill="none" stroke="grey" stroke-width="2" d="M823.01,-217.87C825.79,-217.2 828.56,-216.57 831.28,-216 946.64,-191.83 980.99,-204.13 1100.31,-180.02"/>
<polygon fill="grey" stroke="grey" stroke-width="2" points="1101.11,-183.43 1110.19,-177.98 1099.69,-176.57 1101.11,-183.43"/>
</g>
<!-- 28 -->
<g id="node29" class="node">
<title>28</title>
<path fill="none" stroke="#56d0d8" stroke-width="2" d="M1080.28,-180C1080.28,-180 1004.28,-180 1004.28,-180 998.28,-180 992.28,-174 992.28,-168 992.28,-168 992.28,-156 992.28,-156 992.28,-150 998.28,-144 1004.28,-144 1004.28,-144 1080.28,-144 1080.28,-144 1086.28,-144 1092.28,-150 1092.28,-156 1092.28,-156 1092.28,-168 1092.28,-168 1092.28,-174 1086.28,-180 1080.28,-180"/>
<text text-anchor="middle" x="1042.28" y="-165" font-family="sans" font-size="10.00">profiling_bracken</text>
<text text-anchor="middle" x="1042.28" y="-154" font-family="sans" font-size="10.00">level: S</text>
</g>
<!-- 19&#45;&gt;28 -->
<g id="edge38" class="edge">
<title>19&#45;&gt;28</title>
<path fill="none" stroke="grey" stroke-width="2" d="M823.08,-218.19C825.85,-217.44 828.6,-216.7 831.28,-216 895.41,-199.18 914.44,-197.72 982.21,-180.21"/>
<polygon fill="grey" stroke="grey" stroke-width="2" points="983.32,-183.54 992.11,-177.63 981.55,-176.77 983.32,-183.54"/>
</g>
<!-- 19&#45;&gt;77 -->
<g id="edge107" class="edge">
<title>19&#45;&gt;77</title>
<path fill="none" stroke="grey" stroke-width="2" d="M822.98,-217.74C825.77,-217.1 828.55,-216.51 831.28,-216 916.37,-199.94 1156.13,-239.25 1219.28,-180 1254.71,-146.75 1204.88,-109.08 1236.28,-72 1263.74,-39.56 1311.64,-26.89 1347.7,-21.98"/>
<polygon fill="grey" stroke="grey" stroke-width="2" points="1348.49,-25.41 1358,-20.74 1347.66,-18.46 1348.49,-25.41"/>
</g>
<!-- 20&#45;&gt;77 -->
<g id="edge108" class="edge">
<title>20&#45;&gt;77</title>
<path fill="none" stroke="grey" stroke-width="2" d="M855.91,-144C916.48,-131.32 989.97,-115.02 1003.28,-108 1024.14,-96.99 1021.01,-82.2 1042.28,-72 1095.46,-46.49 1264.73,-29.61 1348.04,-22.64"/>
<polygon fill="grey" stroke="grey" stroke-width="2" points="1348.57,-26.1 1358.24,-21.79 1347.99,-19.13 1348.57,-26.1"/>
</g>
<!-- 21&#45;&gt;77 -->
<g id="edge109" class="edge">
<title>21&#45;&gt;77</title>
<path fill="none" stroke="grey" stroke-width="2" d="M294.62,-143.98C381.44,-123.63 533.85,-90.07 666.28,-72 921.97,-37.1 1231.46,-24.2 1347.92,-20.37"/>
<polygon fill="grey" stroke="grey" stroke-width="2" points="1348.05,-23.87 1357.93,-20.05 1347.82,-16.88 1348.05,-23.87"/>
</g>
<!-- 22&#45;&gt;77 -->
<g id="edge110" class="edge">
<title>22&#45;&gt;77</title>
<path fill="none" stroke="grey" stroke-width="2" d="M509.94,-143.98C589.5,-123.95 727.86,-91.03 848.28,-72 1031.99,-42.97 1253.1,-27.42 1348.12,-21.65"/>
<polygon fill="grey" stroke="grey" stroke-width="2" points="1348.5,-25.14 1358.27,-21.05 1348.08,-18.15 1348.5,-25.14"/>
</g>
<!-- 23 -->
<g id="node24" class="node">
<title>23</title>
<path fill="none" stroke="#56d85b" stroke-width="2" d="M1176.78,-108C1176.78,-108 1063.78,-108 1063.78,-108 1057.78,-108 1051.78,-102 1051.78,-96 1051.78,-96 1051.78,-84 1051.78,-84 1051.78,-78 1057.78,-72 1063.78,-72 1063.78,-72 1176.78,-72 1176.78,-72 1182.78,-72 1188.78,-78 1188.78,-84 1188.78,-84 1188.78,-96 1188.78,-96 1188.78,-102 1182.78,-108 1176.78,-108"/>
<text text-anchor="middle" x="1120.28" y="-87.5" font-family="sans" font-size="10.00">profiling_bracken_merge</text>
</g>
<!-- 23&#45;&gt;77 -->
<g id="edge113" class="edge">
<title>23&#45;&gt;77</title>
<path fill="none" stroke="grey" stroke-width="2" d="M1187.2,-71.97C1237.05,-59.28 1303.89,-42.26 1348.21,-30.98"/>
<polygon fill="grey" stroke="grey" stroke-width="2" points="1349.31,-34.31 1358.13,-28.45 1347.58,-27.53 1349.31,-34.31"/>
</g>
<!-- 24&#45;&gt;23 -->
<g id="edge31" class="edge">
<title>24&#45;&gt;23</title>
<path fill="none" stroke="grey" stroke-width="2" d="M971.97,-143.97C999.36,-134.19 1033.94,-121.84 1062.81,-111.52"/>
<polygon fill="grey" stroke="grey" stroke-width="2" points="1064.13,-114.77 1072.37,-108.11 1061.77,-108.18 1064.13,-114.77"/>
</g>
<!-- 25&#45;&gt;23 -->
<g id="edge32" class="edge">
<title>25&#45;&gt;23</title>
<path fill="none" stroke="grey" stroke-width="2" d="M1150.39,-143.7C1145.79,-135.64 1140.22,-125.89 1135.12,-116.98"/>
<polygon fill="grey" stroke="grey" stroke-width="2" points="1138.05,-115.05 1130.05,-108.1 1131.97,-118.52 1138.05,-115.05"/>
</g>
<!-- 26 -->
<g id="node27" class="node">
<title>26</title>
<path fill="none" stroke="#56d85b" stroke-width="2" d="M982.78,-108C982.78,-108 869.78,-108 869.78,-108 863.78,-108 857.78,-102 857.78,-96 857.78,-96 857.78,-84 857.78,-84 857.78,-78 863.78,-72 869.78,-72 869.78,-72 982.78,-72 982.78,-72 988.78,-72 994.78,-78 994.78,-84 994.78,-84 994.78,-96 994.78,-96 994.78,-102 988.78,-108 982.78,-108"/>
<text text-anchor="middle" x="926.28" y="-87.5" font-family="sans" font-size="10.00">profiling_bracken_merge</text>
</g>
<!-- 26&#45;&gt;77 -->
<g id="edge114" class="edge">
<title>26&#45;&gt;77</title>
<path fill="none" stroke="grey" stroke-width="2" d="M995.05,-74.55C999.86,-73.65 1004.64,-72.79 1009.28,-72 1130.82,-51.23 1274.98,-33.17 1347.93,-24.49"/>
<polygon fill="grey" stroke="grey" stroke-width="2" points="1348.64,-27.93 1358.16,-23.27 1347.82,-20.98 1348.64,-27.93"/>
</g>
<!-- 27&#45;&gt;26 -->
<g id="edge35" class="edge">
<title>27&#45;&gt;26</title>
<path fill="none" stroke="grey" stroke-width="2" d="M670.43,-146.29C673.41,-145.5 676.38,-144.73 679.28,-144 735.29,-129.94 799.03,-116.32 847.73,-106.41"/>
<polygon fill="grey" stroke="grey" stroke-width="2" points="848.47,-109.83 857.57,-104.41 847.08,-102.97 848.47,-109.83"/>
</g>
<!-- 28&#45;&gt;26 -->
<g id="edge36" class="edge">
<title>28&#45;&gt;26</title>
<path fill="none" stroke="grey" stroke-width="2" d="M1013.9,-143.88C998.73,-134.72 979.87,-123.34 963.54,-113.48"/>
<polygon fill="grey" stroke="grey" stroke-width="2" points="965.13,-110.36 954.76,-108.19 961.52,-116.35 965.13,-110.36"/>
</g>
<!-- 29 -->
<g id="node30" class="node">
<title>29</title>
<path fill="none" stroke="#ced856" stroke-width="2" d="M1389.78,-324C1389.78,-324 1256.78,-324 1256.78,-324 1250.78,-324 1244.78,-318 1244.78,-312 1244.78,-312 1244.78,-300 1244.78,-300 1244.78,-294 1250.78,-288 1256.78,-288 1256.78,-288 1389.78,-288 1389.78,-288 1395.78,-288 1401.78,-294 1401.78,-300 1401.78,-300 1401.78,-312 1401.78,-312 1401.78,-318 1395.78,-324 1389.78,-324"/>
<text text-anchor="middle" x="1323.28" y="-303.5" font-family="sans" font-size="10.00">profiling_metaphlan3_merge</text>
</g>
<!-- 29&#45;&gt;77 -->
<g id="edge115" class="edge">
<title>29&#45;&gt;77</title>
<path fill="none" stroke="grey" stroke-width="2" d="M1318.88,-287.97C1314.97,-268.76 1311.85,-237.41 1326.28,-216 1348.3,-183.33 1377.54,-205.83 1407.28,-180 1435.77,-155.25 1441.87,-144.27 1452.28,-108 1456.69,-92.62 1458.67,-86.67 1452.28,-72 1447.34,-60.68 1438.67,-50.68 1429.55,-42.51"/>
<polygon fill="grey" stroke="grey" stroke-width="2" points="1431.78,-39.81 1421.86,-36.09 1427.29,-45.19 1431.78,-39.81"/>
</g>
<!-- 30&#45;&gt;29 -->
<g id="edge39" class="edge">
<title>30&#45;&gt;29</title>
<path fill="none" stroke="grey" stroke-width="2" d="M1228.86,-359.88C1245.35,-350.64 1265.9,-339.13 1283.61,-329.21"/>
<polygon fill="grey" stroke="grey" stroke-width="2" points="1285.57,-332.13 1292.58,-324.19 1282.15,-326.02 1285.57,-332.13"/>
</g>
<!-- 30&#45;&gt;71 -->
<g id="edge99" class="edge">
<title>30&#45;&gt;71</title>
<path fill="none" stroke="grey" stroke-width="2" d="M1159.63,-359.88C1138.03,-350.31 1110.93,-338.3 1088.01,-328.15"/>
<polygon fill="grey" stroke="grey" stroke-width="2" points="1089.36,-324.92 1078.8,-324.07 1086.53,-331.32 1089.36,-324.92"/>
</g>
<!-- 31&#45;&gt;29 -->
<g id="edge40" class="edge">
<title>31&#45;&gt;29</title>
<path fill="none" stroke="grey" stroke-width="2" d="M1361.67,-359.7C1355.68,-351.47 1348.4,-341.48 1341.8,-332.42"/>
<polygon fill="grey" stroke="grey" stroke-width="2" points="1344.46,-330.13 1335.74,-324.1 1338.8,-334.25 1344.46,-330.13"/>
</g>
<!-- 31&#45;&gt;73 -->
<g id="edge102" class="edge">
<title>31&#45;&gt;73</title>
<path fill="none" stroke="grey" stroke-width="2" d="M1325.36,-359.97C1297.28,-350.19 1261.82,-337.84 1232.21,-327.52"/>
<polygon fill="grey" stroke="grey" stroke-width="2" points="1233,-324.09 1222.41,-324.11 1230.7,-330.71 1233,-324.09"/>
</g>
<!-- 32 -->
<g id="node33" class="node">
<title>32</title>
<path fill="none" stroke="#569ad8" stroke-width="2" d="M3101.78,-180C3101.78,-180 2964.78,-180 2964.78,-180 2958.78,-180 2952.78,-174 2952.78,-168 2952.78,-168 2952.78,-156 2952.78,-156 2952.78,-150 2958.78,-144 2964.78,-144 2964.78,-144 3101.78,-144 3101.78,-144 3107.78,-144 3113.78,-150 3113.78,-156 3113.78,-156 3113.78,-168 3113.78,-168 3113.78,-174 3107.78,-180 3101.78,-180"/>
<text text-anchor="middle" x="3033.28" y="-159.5" font-family="sans" font-size="10.00">profiling_kmcp_profile_merge</text>
</g>
<!-- 32&#45;&gt;77 -->
<g id="edge116" class="edge">
<title>32&#45;&gt;77</title>
<path fill="none" stroke="grey" stroke-width="2" d="M2952.59,-151.82C2799.32,-134.57 2455.44,-96.86 2165.28,-72 1891.88,-48.58 1563.17,-28.72 1442.58,-21.7"/>
<polygon fill="grey" stroke="grey" stroke-width="2" points="1442.76,-18.21 1432.57,-21.12 1442.35,-25.2 1442.76,-18.21"/>
</g>
<!-- 33 -->
<g id="node34" class="node">
<title>33</title>
<path fill="none" stroke="#d6d856" stroke-width="2" d="M3117.28,-252C3117.28,-252 2949.28,-252 2949.28,-252 2943.28,-252 2937.28,-246 2937.28,-240 2937.28,-240 2937.28,-228 2937.28,-228 2937.28,-222 2943.28,-216 2949.28,-216 2949.28,-216 3117.28,-216 3117.28,-216 3123.28,-216 3129.28,-222 3129.28,-228 3129.28,-228 3129.28,-240 3129.28,-240 3129.28,-246 3123.28,-252 3117.28,-252"/>
<text text-anchor="middle" x="3033.28" y="-237" font-family="sans" font-size="10.00">profiling_kmcp_profile</text>
<text text-anchor="middle" x="3033.28" y="-226" font-family="sans" font-size="10.00">profiling_mode: pathogen_detection</text>
</g>
<!-- 33&#45;&gt;32 -->
<g id="edge43" class="edge">
<title>33&#45;&gt;32</title>
<path fill="none" stroke="grey" stroke-width="2" d="M3033.28,-215.7C3033.28,-207.98 3033.28,-198.71 3033.28,-190.11"/>
<polygon fill="grey" stroke="grey" stroke-width="2" points="3036.78,-190.1 3033.28,-180.1 3029.78,-190.1 3036.78,-190.1"/>
</g>
<!-- 34 -->
<g id="node35" class="node">
<title>34</title>
<path fill="none" stroke="#56b9d8" stroke-width="2" d="M2351.78,-324C2351.78,-324 2212.78,-324 2212.78,-324 2206.78,-324 2200.78,-318 2200.78,-312 2200.78,-312 2200.78,-300 2200.78,-300 2200.78,-294 2206.78,-288 2212.78,-288 2212.78,-288 2351.78,-288 2351.78,-288 2357.78,-288 2363.78,-294 2363.78,-300 2363.78,-300 2363.78,-312 2363.78,-312 2363.78,-318 2357.78,-324 2351.78,-324"/>
<text text-anchor="middle" x="2282.28" y="-303.5" font-family="sans" font-size="10.00">profiling_kmcp_search_merge</text>
</g>
<!-- 34&#45;&gt;33 -->
<g id="edge45" class="edge">
<title>34&#45;&gt;33</title>
<path fill="none" stroke="grey" stroke-width="2" d="M2363.81,-300.37C2484.57,-293.06 2718.27,-277.16 2926.96,-252.11"/>
<polygon fill="grey" stroke="grey" stroke-width="2" points="2927.68,-255.54 2937.19,-250.87 2926.84,-248.59 2927.68,-255.54"/>
</g>
<!-- 44 -->
<g id="node45" class="node">
<title>44</title>
<path fill="none" stroke="#d6d856" stroke-width="2" d="M2169.28,-252C2169.28,-252 2035.28,-252 2035.28,-252 2029.28,-252 2023.28,-246 2023.28,-240 2023.28,-240 2023.28,-228 2023.28,-228 2023.28,-222 2029.28,-216 2035.28,-216 2035.28,-216 2169.28,-216 2169.28,-216 2175.28,-216 2181.28,-222 2181.28,-228 2181.28,-228 2181.28,-240 2181.28,-240 2181.28,-246 2175.28,-252 2169.28,-252"/>
<text text-anchor="middle" x="2102.28" y="-237" font-family="sans" font-size="10.00">profiling_kmcp_profile</text>
<text text-anchor="middle" x="2102.28" y="-226" font-family="sans" font-size="10.00">profiling_mode: higher_recall</text>
</g>
<!-- 34&#45;&gt;44 -->
<g id="edge61" class="edge">
<title>34&#45;&gt;44</title>
<path fill="none" stroke="grey" stroke-width="2" d="M2238.24,-287.88C2213.31,-278.18 2181.94,-265.98 2155.62,-255.74"/>
<polygon fill="grey" stroke="grey" stroke-width="2" points="2156.76,-252.43 2146.17,-252.07 2154.22,-258.95 2156.76,-252.43"/>
</g>
<!-- 47 -->
<g id="node48" class="node">
<title>47</title>
<path fill="none" stroke="#d6d856" stroke-width="2" d="M3836.78,-252C3836.78,-252 3711.78,-252 3711.78,-252 3705.78,-252 3699.78,-246 3699.78,-240 3699.78,-240 3699.78,-228 3699.78,-228 3699.78,-222 3705.78,-216 3711.78,-216 3711.78,-216 3836.78,-216 3836.78,-216 3842.78,-216 3848.78,-222 3848.78,-228 3848.78,-228 3848.78,-240 3848.78,-240 3848.78,-246 3842.78,-252 3836.78,-252"/>
<text text-anchor="middle" x="3774.28" y="-237" font-family="sans" font-size="10.00">profiling_kmcp_profile</text>
<text text-anchor="middle" x="3774.28" y="-226" font-family="sans" font-size="10.00">profiling_mode: high_recall</text>
</g>
<!-- 34&#45;&gt;47 -->
<g id="edge65" class="edge">
<title>34&#45;&gt;47</title>
<path fill="none" stroke="grey" stroke-width="2" d="M2364.02,-302.01C2648.06,-291.62 3580.43,-257.4 3689.74,-251.41"/>
<polygon fill="grey" stroke="grey" stroke-width="2" points="3689.98,-254.9 3699.72,-250.74 3689.51,-247.92 3689.98,-254.9"/>
</g>
<!-- 50 -->
<g id="node51" class="node">
<title>50</title>
<path fill="none" stroke="#d6d856" stroke-width="2" d="M3459.28,-252C3459.28,-252 3353.28,-252 3353.28,-252 3347.28,-252 3341.28,-246 3341.28,-240 3341.28,-240 3341.28,-228 3341.28,-228 3341.28,-222 3347.28,-216 3353.28,-216 3353.28,-216 3459.28,-216 3459.28,-216 3465.28,-216 3471.28,-222 3471.28,-228 3471.28,-228 3471.28,-240 3471.28,-240 3471.28,-246 3465.28,-252 3459.28,-252"/>
<text text-anchor="middle" x="3406.28" y="-237" font-family="sans" font-size="10.00">profiling_kmcp_profile</text>
<text text-anchor="middle" x="3406.28" y="-226" font-family="sans" font-size="10.00">profiling_mode: default</text>
</g>
<!-- 34&#45;&gt;50 -->
<g id="edge69" class="edge">
<title>34&#45;&gt;50</title>
<path fill="none" stroke="grey" stroke-width="2" d="M2363.84,-301.71C2587.4,-292.57 3201.41,-266.69 3330.95,-251.91"/>
<polygon fill="grey" stroke="grey" stroke-width="2" points="3331.54,-255.36 3341.02,-250.64 3330.66,-248.42 3331.54,-255.36"/>
</g>
<!-- 53 -->
<g id="node54" class="node">
<title>53</title>
<path fill="none" stroke="#d6d856" stroke-width="2" d="M2353.28,-252C2353.28,-252 2211.28,-252 2211.28,-252 2205.28,-252 2199.28,-246 2199.28,-240 2199.28,-240 2199.28,-228 2199.28,-228 2199.28,-222 2205.28,-216 2211.28,-216 2211.28,-216 2353.28,-216 2353.28,-216 2359.28,-216 2365.28,-222 2365.28,-228 2365.28,-228 2365.28,-240 2365.28,-240 2365.28,-246 2359.28,-252 2353.28,-252"/>
<text text-anchor="middle" x="2282.28" y="-237" font-family="sans" font-size="10.00">profiling_kmcp_profile</text>
<text text-anchor="middle" x="2282.28" y="-226" font-family="sans" font-size="10.00">profiling_mode: high_precision</text>
</g>
<!-- 34&#45;&gt;53 -->
<g id="edge73" class="edge">
<title>34&#45;&gt;53</title>
<path fill="none" stroke="grey" stroke-width="2" d="M2282.28,-287.7C2282.28,-279.98 2282.28,-270.71 2282.28,-262.11"/>
<polygon fill="grey" stroke="grey" stroke-width="2" points="2285.78,-262.1 2282.28,-252.1 2278.78,-262.1 2285.78,-262.1"/>
</g>
<!-- 56 -->
<g id="node57" class="node">
<title>56</title>
<path fill="none" stroke="#d6d856" stroke-width="2" d="M2723.28,-252C2723.28,-252 2571.28,-252 2571.28,-252 2565.28,-252 2559.28,-246 2559.28,-240 2559.28,-240 2559.28,-228 2559.28,-228 2559.28,-222 2565.28,-216 2571.28,-216 2571.28,-216 2723.28,-216 2723.28,-216 2729.28,-216 2735.28,-222 2735.28,-228 2735.28,-228 2735.28,-240 2735.28,-240 2735.28,-246 2729.28,-252 2723.28,-252"/>
<text text-anchor="middle" x="2647.28" y="-237" font-family="sans" font-size="10.00">profiling_kmcp_profile</text>
<text text-anchor="middle" x="2647.28" y="-226" font-family="sans" font-size="10.00">profiling_mode: higher_precision</text>
</g>
<!-- 34&#45;&gt;56 -->
<g id="edge77" class="edge">
<title>34&#45;&gt;56</title>
<path fill="none" stroke="grey" stroke-width="2" d="M2364.19,-289.29C2419.03,-278.77 2491.49,-264.88 2549.37,-253.78"/>
<polygon fill="grey" stroke="grey" stroke-width="2" points="2550.1,-257.2 2559.26,-251.88 2548.78,-250.33 2550.1,-257.2"/>
</g>
<!-- 35&#45;&gt;34 -->
<g id="edge46" class="edge">
<title>35&#45;&gt;34</title>
<path fill="none" stroke="grey" stroke-width="2" d="M2099.17,-359.97C2133.57,-350.01 2177.16,-337.41 2213.18,-326.99"/>
<polygon fill="grey" stroke="grey" stroke-width="2" points="2214.49,-330.25 2223.12,-324.11 2212.54,-323.53 2214.49,-330.25"/>
</g>
<!-- 36&#45;&gt;34 -->
<g id="edge47" class="edge">
<title>36&#45;&gt;34</title>
<path fill="none" stroke="grey" stroke-width="2" d="M2233.34,-359.7C2241.22,-351.22 2250.83,-340.86 2259.45,-331.58"/>
<polygon fill="grey" stroke="grey" stroke-width="2" points="2262.15,-333.81 2266.39,-324.1 2257.03,-329.05 2262.15,-333.81"/>
</g>
<!-- 37&#45;&gt;34 -->
<g id="edge48" class="edge">
<title>37&#45;&gt;34</title>
<path fill="none" stroke="grey" stroke-width="2" d="M1752.49,-361.76C1755.79,-361.13 1759.07,-360.53 1762.28,-360 1911.06,-335.2 2085.85,-320.26 2190.16,-312.83"/>
<polygon fill="grey" stroke="grey" stroke-width="2" points="2190.61,-316.31 2200.34,-312.12 2190.12,-309.33 2190.61,-316.31"/>
</g>
<!-- 38 -->
<g id="node39" class="node">
<title>38</title>
<path fill="none" stroke="#d6d856" stroke-width="2" d="M3669.28,-252C3669.28,-252 3501.28,-252 3501.28,-252 3495.28,-252 3489.28,-246 3489.28,-240 3489.28,-240 3489.28,-228 3489.28,-228 3489.28,-222 3495.28,-216 3501.28,-216 3501.28,-216 3669.28,-216 3669.28,-216 3675.28,-216 3681.28,-222 3681.28,-228 3681.28,-228 3681.28,-240 3681.28,-240 3681.28,-246 3675.28,-252 3669.28,-252"/>
<text text-anchor="middle" x="3585.28" y="-237" font-family="sans" font-size="10.00">profiling_kmcp_profile</text>
<text text-anchor="middle" x="3585.28" y="-226" font-family="sans" font-size="10.00">profiling_mode: pathogen_detection</text>
</g>
<!-- 38&#45;&gt;32 -->
<g id="edge44" class="edge">
<title>38&#45;&gt;32</title>
<path fill="none" stroke="grey" stroke-width="2" d="M3489.17,-217.27C3486.17,-216.84 3483.2,-216.41 3480.28,-216 3357.2,-198.75 3214.53,-182.48 3124.11,-172.63"/>
<polygon fill="grey" stroke="grey" stroke-width="2" points="3124.48,-169.15 3114.16,-171.54 3123.73,-176.1 3124.48,-169.15"/>
</g>
<!-- 39 -->
<g id="node40" class="node">
<title>39</title>
<path fill="none" stroke="#56b9d8" stroke-width="2" d="M2905.78,-324C2905.78,-324 2766.78,-324 2766.78,-324 2760.78,-324 2754.78,-318 2754.78,-312 2754.78,-312 2754.78,-300 2754.78,-300 2754.78,-294 2760.78,-288 2766.78,-288 2766.78,-288 2905.78,-288 2905.78,-288 2911.78,-288 2917.78,-294 2917.78,-300 2917.78,-300 2917.78,-312 2917.78,-312 2917.78,-318 2911.78,-324 2905.78,-324"/>
<text text-anchor="middle" x="2836.28" y="-303.5" font-family="sans" font-size="10.00">profiling_kmcp_search_merge</text>
</g>
<!-- 39&#45;&gt;38 -->
<g id="edge52" class="edge">
<title>39&#45;&gt;38</title>
<path fill="none" stroke="grey" stroke-width="2" d="M2917.81,-300.35C3038.27,-293.01 3271.06,-277.1 3478.99,-252.1"/>
<polygon fill="grey" stroke="grey" stroke-width="2" points="3479.68,-255.54 3489.19,-250.87 3478.84,-248.59 3479.68,-255.54"/>
</g>
<!-- 45 -->
<g id="node46" class="node">
<title>45</title>
<path fill="none" stroke="#d6d856" stroke-width="2" d="M2529.28,-252C2529.28,-252 2395.28,-252 2395.28,-252 2389.28,-252 2383.28,-246 2383.28,-240 2383.28,-240 2383.28,-228 2383.28,-228 2383.28,-222 2389.28,-216 2395.28,-216 2395.28,-216 2529.28,-216 2529.28,-216 2535.28,-216 2541.28,-222 2541.28,-228 2541.28,-228 2541.28,-240 2541.28,-240 2541.28,-246 2535.28,-252 2529.28,-252"/>
<text text-anchor="middle" x="2462.28" y="-237" font-family="sans" font-size="10.00">profiling_kmcp_profile</text>
<text text-anchor="middle" x="2462.28" y="-226" font-family="sans" font-size="10.00">profiling_mode: higher_recall</text>
</g>
<!-- 39&#45;&gt;45 -->
<g id="edge62" class="edge">
<title>39&#45;&gt;45</title>
<path fill="none" stroke="grey" stroke-width="2" d="M2754.57,-290.03C2699.81,-279.96 2625.81,-266.27 2551.44,-252.21"/>
<polygon fill="grey" stroke="grey" stroke-width="2" points="2551.9,-248.74 2541.43,-250.32 2550.6,-255.62 2551.9,-248.74"/>
</g>
<!-- 48 -->
<g id="node49" class="node">
<title>48</title>
<path fill="none" stroke="#d6d856" stroke-width="2" d="M4152.78,-252C4152.78,-252 4027.78,-252 4027.78,-252 4021.78,-252 4015.78,-246 4015.78,-240 4015.78,-240 4015.78,-228 4015.78,-228 4015.78,-222 4021.78,-216 4027.78,-216 4027.78,-216 4152.78,-216 4152.78,-216 4158.78,-216 4164.78,-222 4164.78,-228 4164.78,-228 4164.78,-240 4164.78,-240 4164.78,-246 4158.78,-252 4152.78,-252"/>
<text text-anchor="middle" x="4090.28" y="-237" font-family="sans" font-size="10.00">profiling_kmcp_profile</text>
<text text-anchor="middle" x="4090.28" y="-226" font-family="sans" font-size="10.00">profiling_mode: high_recall</text>
</g>
<!-- 39&#45;&gt;48 -->
<g id="edge66" class="edge">
<title>39&#45;&gt;48</title>
<path fill="none" stroke="grey" stroke-width="2" d="M2917.85,-305.62C3107.34,-306.14 3591.99,-302.09 4005.65,-251.94"/>
<polygon fill="grey" stroke="grey" stroke-width="2" points="4006.22,-255.4 4015.72,-250.71 4005.37,-248.45 4006.22,-255.4"/>
</g>
<!-- 51 -->
<g id="node52" class="node">
<title>51</title>
<path fill="none" stroke="#d6d856" stroke-width="2" d="M3985.28,-252C3985.28,-252 3879.28,-252 3879.28,-252 3873.28,-252 3867.28,-246 3867.28,-240 3867.28,-240 3867.28,-228 3867.28,-228 3867.28,-222 3873.28,-216 3879.28,-216 3879.28,-216 3985.28,-216 3985.28,-216 3991.28,-216 3997.28,-222 3997.28,-228 3997.28,-228 3997.28,-240 3997.28,-240 3997.28,-246 3991.28,-252 3985.28,-252"/>
<text text-anchor="middle" x="3932.28" y="-237" font-family="sans" font-size="10.00">profiling_kmcp_profile</text>
<text text-anchor="middle" x="3932.28" y="-226" font-family="sans" font-size="10.00">profiling_mode: default</text>
</g>
<!-- 39&#45;&gt;51 -->
<g id="edge70" class="edge">
<title>39&#45;&gt;51</title>
<path fill="none" stroke="grey" stroke-width="2" d="M2917.88,-305.57C3090.09,-305.73 3503.22,-300.62 3857.1,-252.02"/>
<polygon fill="grey" stroke="grey" stroke-width="2" points="3857.6,-255.48 3867.02,-250.64 3856.64,-248.55 3857.6,-255.48"/>
</g>
<!-- 54 -->
<g id="node55" class="node">
<title>54</title>
<path fill="none" stroke="#d6d856" stroke-width="2" d="M2907.28,-252C2907.28,-252 2765.28,-252 2765.28,-252 2759.28,-252 2753.28,-246 2753.28,-240 2753.28,-240 2753.28,-228 2753.28,-228 2753.28,-222 2759.28,-216 2765.28,-216 2765.28,-216 2907.28,-216 2907.28,-216 2913.28,-216 2919.28,-222 2919.28,-228 2919.28,-228 2919.28,-240 2919.28,-240 2919.28,-246 2913.28,-252 2907.28,-252"/>
<text text-anchor="middle" x="2836.28" y="-237" font-family="sans" font-size="10.00">profiling_kmcp_profile</text>
<text text-anchor="middle" x="2836.28" y="-226" font-family="sans" font-size="10.00">profiling_mode: high_precision</text>
</g>
<!-- 39&#45;&gt;54 -->
<g id="edge74" class="edge">
<title>39&#45;&gt;54</title>
<path fill="none" stroke="grey" stroke-width="2" d="M2836.28,-287.7C2836.28,-279.98 2836.28,-270.71 2836.28,-262.11"/>
<polygon fill="grey" stroke="grey" stroke-width="2" points="2839.78,-262.1 2836.28,-252.1 2832.78,-262.1 2839.78,-262.1"/>
</g>
<!-- 57 -->
<g id="node58" class="node">
<title>57</title>
<path fill="none" stroke="#d6d856" stroke-width="2" d="M3311.28,-252C3311.28,-252 3159.28,-252 3159.28,-252 3153.28,-252 3147.28,-246 3147.28,-240 3147.28,-240 3147.28,-228 3147.28,-228 3147.28,-222 3153.28,-216 3159.28,-216 3159.28,-216 3311.28,-216 3311.28,-216 3317.28,-216 3323.28,-222 3323.28,-228 3323.28,-228 3323.28,-240 3323.28,-240 3323.28,-246 3317.28,-252 3311.28,-252"/>
<text text-anchor="middle" x="3235.28" y="-237" font-family="sans" font-size="10.00">profiling_kmcp_profile</text>
<text text-anchor="middle" x="3235.28" y="-226" font-family="sans" font-size="10.00">profiling_mode: higher_precision</text>
</g>
<!-- 39&#45;&gt;57 -->
<g id="edge78" class="edge">
<title>39&#45;&gt;57</title>
<path fill="none" stroke="grey" stroke-width="2" d="M2917.98,-290.67C2981.42,-279.54 3069.6,-264.07 3136.91,-252.26"/>
<polygon fill="grey" stroke="grey" stroke-width="2" points="3137.86,-255.65 3147.1,-250.47 3136.65,-248.75 3137.86,-255.65"/>
</g>
<!-- 40&#45;&gt;39 -->
<g id="edge53" class="edge">
<title>40&#45;&gt;39</title>
<path fill="none" stroke="grey" stroke-width="2" d="M2674.35,-359.97C2704.51,-350.1 2742.66,-337.62 2774.35,-327.25"/>
<polygon fill="grey" stroke="grey" stroke-width="2" points="2775.55,-330.55 2783.97,-324.11 2773.37,-323.89 2775.55,-330.55"/>
</g>
<!-- 41&#45;&gt;39 -->
<g id="edge54" class="edge">
<title>41&#45;&gt;39</title>
<path fill="none" stroke="grey" stroke-width="2" d="M2818.96,-359.7C2821.53,-351.9 2824.61,-342.51 2827.46,-333.83"/>
<polygon fill="grey" stroke="grey" stroke-width="2" points="2830.86,-334.7 2830.66,-324.1 2824.21,-332.51 2830.86,-334.7"/>
</g>
<!-- 42&#45;&gt;39 -->
<g id="edge55" class="edge">
<title>42&#45;&gt;39</title>
<path fill="none" stroke="grey" stroke-width="2" d="M2448.46,-367.19C2525.49,-355.24 2656.28,-334.94 2744.43,-321.25"/>
<polygon fill="grey" stroke="grey" stroke-width="2" points="2745.09,-324.7 2754.43,-319.7 2744.01,-317.78 2745.09,-324.7"/>
</g>
<!-- 43 -->
<g id="node44" class="node">
<title>43</title>
<path fill="none" stroke="#569ad8" stroke-width="2" d="M2170.78,-180C2170.78,-180 2033.78,-180 2033.78,-180 2027.78,-180 2021.78,-174 2021.78,-168 2021.78,-168 2021.78,-156 2021.78,-156 2021.78,-150 2027.78,-144 2033.78,-144 2033.78,-144 2170.78,-144 2170.78,-144 2176.78,-144 2182.78,-150 2182.78,-156 2182.78,-156 2182.78,-168 2182.78,-168 2182.78,-174 2176.78,-180 2170.78,-180"/>
<text text-anchor="middle" x="2102.28" y="-159.5" font-family="sans" font-size="10.00">profiling_kmcp_profile_merge</text>
</g>
<!-- 43&#45;&gt;77 -->
<g id="edge117" class="edge">
<title>43&#45;&gt;77</title>
<path fill="none" stroke="grey" stroke-width="2" d="M2061.52,-143.88C2011.32,-123.51 1923.03,-90.01 1844.28,-72 1700.09,-39.02 1524.89,-25.88 1442.46,-21.24"/>
<polygon fill="grey" stroke="grey" stroke-width="2" points="1442.58,-17.74 1432.4,-20.69 1442.19,-24.73 1442.58,-17.74"/>
</g>
<!-- 44&#45;&gt;43 -->
<g id="edge59" class="edge">
<title>44&#45;&gt;43</title>
<path fill="none" stroke="grey" stroke-width="2" d="M2102.28,-215.7C2102.28,-207.98 2102.28,-198.71 2102.28,-190.11"/>
<polygon fill="grey" stroke="grey" stroke-width="2" points="2105.78,-190.1 2102.28,-180.1 2098.78,-190.1 2105.78,-190.1"/>
</g>
<!-- 45&#45;&gt;43 -->
<g id="edge60" class="edge">
<title>45&#45;&gt;43</title>
<path fill="none" stroke="grey" stroke-width="2" d="M2383.27,-217.64C2327.12,-206.72 2251.58,-192.03 2192.96,-180.63"/>
<polygon fill="grey" stroke="grey" stroke-width="2" points="2193.45,-177.16 2182.96,-178.69 2192.11,-184.03 2193.45,-177.16"/>
</g>
<!-- 46 -->
<g id="node47" class="node">
<title>46</title>
<path fill="none" stroke="#569ad8" stroke-width="2" d="M3842.78,-180C3842.78,-180 3705.78,-180 3705.78,-180 3699.78,-180 3693.78,-174 3693.78,-168 3693.78,-168 3693.78,-156 3693.78,-156 3693.78,-150 3699.78,-144 3705.78,-144 3705.78,-144 3842.78,-144 3842.78,-144 3848.78,-144 3854.78,-150 3854.78,-156 3854.78,-156 3854.78,-168 3854.78,-168 3854.78,-174 3848.78,-180 3842.78,-180"/>
<text text-anchor="middle" x="3774.28" y="-159.5" font-family="sans" font-size="10.00">profiling_kmcp_profile_merge</text>
</g>
<!-- 46&#45;&gt;77 -->
<g id="edge118" class="edge">
<title>46&#45;&gt;77</title>
<path fill="none" stroke="grey" stroke-width="2" d="M3693.74,-154.11C3502.12,-137.91 3003.98,-96.88 2587.28,-72 2142.13,-45.42 1602.74,-26.07 1442.39,-20.58"/>
<polygon fill="grey" stroke="grey" stroke-width="2" points="1442.49,-17.08 1432.38,-20.24 1442.25,-24.08 1442.49,-17.08"/>
</g>
<!-- 47&#45;&gt;46 -->
<g id="edge63" class="edge">
<title>47&#45;&gt;46</title>
<path fill="none" stroke="grey" stroke-width="2" d="M3774.28,-215.7C3774.28,-207.98 3774.28,-198.71 3774.28,-190.11"/>
<polygon fill="grey" stroke="grey" stroke-width="2" points="3777.78,-190.1 3774.28,-180.1 3770.78,-190.1 3777.78,-190.1"/>
</g>
<!-- 48&#45;&gt;46 -->
<g id="edge64" class="edge">
<title>48&#45;&gt;46</title>
<path fill="none" stroke="grey" stroke-width="2" d="M4015.39,-216.41C3969.03,-206.14 3909.33,-192.92 3860.93,-182.2"/>
<polygon fill="grey" stroke="grey" stroke-width="2" points="3861.62,-178.76 3851.1,-180.02 3860.1,-185.6 3861.62,-178.76"/>
</g>
<!-- 49 -->
<g id="node50" class="node">
<title>49</title>
<path fill="none" stroke="#569ad8" stroke-width="2" d="M3474.78,-180C3474.78,-180 3337.78,-180 3337.78,-180 3331.78,-180 3325.78,-174 3325.78,-168 3325.78,-168 3325.78,-156 3325.78,-156 3325.78,-150 3331.78,-144 3337.78,-144 3337.78,-144 3474.78,-144 3474.78,-144 3480.78,-144 3486.78,-150 3486.78,-156 3486.78,-156 3486.78,-168 3486.78,-168 3486.78,-174 3480.78,-180 3474.78,-180"/>
<text text-anchor="middle" x="3406.28" y="-159.5" font-family="sans" font-size="10.00">profiling_kmcp_profile_merge</text>
</g>
<!-- 49&#45;&gt;77 -->
<g id="edge119" class="edge">
<title>49&#45;&gt;77</title>
<path fill="none" stroke="grey" stroke-width="2" d="M3325.73,-153.35C3150.01,-136.83 2718.97,-97.3 2357.28,-72 2006.42,-47.46 1582.91,-27.48 1442.81,-21.12"/>
<polygon fill="grey" stroke="grey" stroke-width="2" points="1442.59,-17.61 1432.44,-20.65 1442.28,-24.6 1442.59,-17.61"/>
</g>
<!-- 50&#45;&gt;49 -->
<g id="edge67" class="edge">
<title>50&#45;&gt;49</title>
<path fill="none" stroke="grey" stroke-width="2" d="M3406.28,-215.7C3406.28,-207.98 3406.28,-198.71 3406.28,-190.11"/>
<polygon fill="grey" stroke="grey" stroke-width="2" points="3409.78,-190.1 3406.28,-180.1 3402.78,-190.1 3409.78,-190.1"/>
</g>
<!-- 51&#45;&gt;49 -->
<g id="edge68" class="edge">
<title>51&#45;&gt;49</title>
<path fill="none" stroke="grey" stroke-width="2" d="M3866.99,-217.59C3864.05,-217.03 3861.13,-216.49 3858.28,-216 3733.9,-194.49 3588.72,-179.18 3497.15,-170.72"/>
<polygon fill="grey" stroke="grey" stroke-width="2" points="3497.36,-167.22 3487.08,-169.79 3496.72,-174.19 3497.36,-167.22"/>
</g>
<!-- 52 -->
<g id="node53" class="node">
<title>52</title>
<path fill="none" stroke="#569ad8" stroke-width="2" d="M2350.78,-180C2350.78,-180 2213.78,-180 2213.78,-180 2207.78,-180 2201.78,-174 2201.78,-168 2201.78,-168 2201.78,-156 2201.78,-156 2201.78,-150 2207.78,-144 2213.78,-144 2213.78,-144 2350.78,-144 2350.78,-144 2356.78,-144 2362.78,-150 2362.78,-156 2362.78,-156 2362.78,-168 2362.78,-168 2362.78,-174 2356.78,-180 2350.78,-180"/>
<text text-anchor="middle" x="2282.28" y="-159.5" font-family="sans" font-size="10.00">profiling_kmcp_profile_merge</text>
</g>
<!-- 52&#45;&gt;77 -->
<g id="edge120" class="edge">
<title>52&#45;&gt;77</title>
<path fill="none" stroke="grey" stroke-width="2" d="M2223.54,-143.97C2152.02,-123.85 2027.27,-90.75 1918.28,-72 1744.2,-42.05 1534.41,-27.09 1442.4,-21.58"/>
<polygon fill="grey" stroke="grey" stroke-width="2" points="1442.48,-18.08 1432.29,-20.98 1442.07,-25.06 1442.48,-18.08"/>
</g>
<!-- 53&#45;&gt;52 -->
<g id="edge71" class="edge">
<title>53&#45;&gt;52</title>
<path fill="none" stroke="grey" stroke-width="2" d="M2282.28,-215.7C2282.28,-207.98 2282.28,-198.71 2282.28,-190.11"/>
<polygon fill="grey" stroke="grey" stroke-width="2" points="2285.78,-190.1 2282.28,-180.1 2278.78,-190.1 2285.78,-190.1"/>
</g>
<!-- 54&#45;&gt;52 -->
<g id="edge72" class="edge">
<title>54&#45;&gt;52</title>
<path fill="none" stroke="grey" stroke-width="2" d="M2753.08,-217.36C2750.11,-216.89 2747.17,-216.43 2744.28,-216 2615.81,-196.79 2466.34,-180.79 2373.01,-171.55"/>
<polygon fill="grey" stroke="grey" stroke-width="2" points="2373.33,-168.07 2363.04,-170.57 2372.64,-175.04 2373.33,-168.07"/>
</g>
<!-- 55 -->
<g id="node56" class="node">
<title>55</title>
<path fill="none" stroke="#569ad8" stroke-width="2" d="M2715.78,-180C2715.78,-180 2578.78,-180 2578.78,-180 2572.78,-180 2566.78,-174 2566.78,-168 2566.78,-168 2566.78,-156 2566.78,-156 2566.78,-150 2572.78,-144 2578.78,-144 2578.78,-144 2715.78,-144 2715.78,-144 2721.78,-144 2727.78,-150 2727.78,-156 2727.78,-156 2727.78,-168 2727.78,-168 2727.78,-174 2721.78,-180 2715.78,-180"/>
<text text-anchor="middle" x="2647.28" y="-159.5" font-family="sans" font-size="10.00">profiling_kmcp_profile_merge</text>
</g>
<!-- 55&#45;&gt;77 -->
<g id="edge121" class="edge">
<title>55&#45;&gt;77</title>
<path fill="none" stroke="grey" stroke-width="2" d="M2566.76,-148.3C2446.38,-129.64 2212.22,-94.58 2012.28,-72 1800.28,-48.06 1546.22,-29.39 1442.68,-22.2"/>
<polygon fill="grey" stroke="grey" stroke-width="2" points="1442.77,-18.7 1432.55,-21.5 1442.29,-25.68 1442.77,-18.7"/>
</g>
<!-- 56&#45;&gt;55 -->
<g id="edge75" class="edge">
<title>56&#45;&gt;55</title>
<path fill="none" stroke="grey" stroke-width="2" d="M2647.28,-215.7C2647.28,-207.98 2647.28,-198.71 2647.28,-190.11"/>
<polygon fill="grey" stroke="grey" stroke-width="2" points="2650.78,-190.1 2647.28,-180.1 2643.78,-190.1 2650.78,-190.1"/>
</g>
<!-- 57&#45;&gt;55 -->
<g id="edge76" class="edge">
<title>57&#45;&gt;55</title>
<path fill="none" stroke="grey" stroke-width="2" d="M3147.03,-217.28C3144.08,-216.84 3141.16,-216.41 3138.28,-216 2999.1,-196.31 2836.81,-180.11 2738.09,-170.99"/>
<polygon fill="grey" stroke="grey" stroke-width="2" points="2738.13,-167.48 2727.85,-170.05 2737.49,-174.45 2738.13,-167.48"/>
</g>
<!-- 58 -->
<g id="node59" class="node">
<title>58</title>
<path fill="none" stroke="#8fd856" stroke-width="2" d="M1822.78,-108C1822.78,-108 1645.78,-108 1645.78,-108 1639.78,-108 1633.78,-102 1633.78,-96 1633.78,-96 1633.78,-84 1633.78,-84 1633.78,-78 1639.78,-72 1645.78,-72 1645.78,-72 1822.78,-72 1822.78,-72 1828.78,-72 1834.78,-78 1834.78,-84 1834.78,-84 1834.78,-96 1834.78,-96 1834.78,-102 1828.78,-108 1822.78,-108"/>
<text text-anchor="middle" x="1734.28" y="-87.5" font-family="sans" font-size="10.00">profiling_genomecov_gen_cov_merge</text>
</g>
<!-- 58&#45;&gt;77 -->
<g id="edge122" class="edge">
<title>58&#45;&gt;77</title>
<path fill="none" stroke="grey" stroke-width="2" d="M1651.78,-71.97C1586.05,-58.39 1496.37,-39.87 1442.32,-28.71"/>
<polygon fill="grey" stroke="grey" stroke-width="2" points="1442.83,-25.25 1432.33,-26.65 1441.42,-32.1 1442.83,-25.25"/>
</g>
<!-- 59 -->
<g id="node60" class="node">
<title>59</title>
<path fill="none" stroke="#56a2d8" stroke-width="2" d="M1804.28,-180C1804.28,-180 1664.28,-180 1664.28,-180 1658.28,-180 1652.28,-174 1652.28,-168 1652.28,-168 1652.28,-156 1652.28,-156 1652.28,-150 1658.28,-144 1664.28,-144 1664.28,-144 1804.28,-144 1804.28,-144 1810.28,-144 1816.28,-150 1816.28,-156 1816.28,-156 1816.28,-168 1816.28,-168 1816.28,-174 1810.28,-180 1804.28,-180"/>
<text text-anchor="middle" x="1734.28" y="-159.5" font-family="sans" font-size="10.00">profiling_genomecov_gen_cov</text>
</g>
<!-- 59&#45;&gt;58 -->
<g id="edge79" class="edge">
<title>59&#45;&gt;58</title>
<path fill="none" stroke="grey" stroke-width="2" d="M1734.28,-143.7C1734.28,-135.98 1734.28,-126.71 1734.28,-118.11"/>
<polygon fill="grey" stroke="grey" stroke-width="2" points="1737.78,-118.1 1734.28,-108.1 1730.78,-118.1 1737.78,-118.1"/>
</g>
<!-- 60 -->
<g id="node61" class="node">
<title>60</title>
<path fill="none" stroke="#56d87b" stroke-width="2" d="M1648.78,-252C1648.78,-252 1507.78,-252 1507.78,-252 1501.78,-252 1495.78,-246 1495.78,-240 1495.78,-240 1495.78,-228 1495.78,-228 1495.78,-222 1501.78,-216 1507.78,-216 1507.78,-216 1648.78,-216 1648.78,-216 1654.78,-216 1660.78,-222 1660.78,-228 1660.78,-228 1660.78,-240 1660.78,-240 1660.78,-246 1654.78,-252 1648.78,-252"/>
<text text-anchor="middle" x="1578.28" y="-231.5" font-family="sans" font-size="10.00">profiling_genomecov_gen_bed</text>
</g>
<!-- 60&#45;&gt;59 -->
<g id="edge81" class="edge">
<title>60&#45;&gt;59</title>
<path fill="none" stroke="grey" stroke-width="2" d="M1616.44,-215.88C1637.67,-206.35 1664.28,-194.41 1686.85,-184.28"/>
<polygon fill="grey" stroke="grey" stroke-width="2" points="1688.55,-187.36 1696.24,-180.07 1685.68,-180.97 1688.55,-187.36"/>
</g>
<!-- 61 -->
<g id="node62" class="node">
<title>61</title>
<path fill="none" stroke="#56c9d8" stroke-width="2" d="M1619.28,-324C1619.28,-324 1441.28,-324 1441.28,-324 1435.28,-324 1429.28,-318 1429.28,-312 1429.28,-312 1429.28,-300 1429.28,-300 1429.28,-294 1435.28,-288 1441.28,-288 1441.28,-288 1619.28,-288 1619.28,-288 1625.28,-288 1631.28,-294 1631.28,-300 1631.28,-300 1631.28,-312 1631.28,-312 1631.28,-318 1625.28,-324 1619.28,-324"/>
<text text-anchor="middle" x="1530.28" y="-303.5" font-family="sans" font-size="10.00">profiling_alignment_bam_postprocess</text>
</g>
<!-- 61&#45;&gt;60 -->
<g id="edge82" class="edge">
<title>61&#45;&gt;60</title>
<path fill="none" stroke="grey" stroke-width="2" d="M1542.14,-287.7C1547.78,-279.47 1554.63,-269.48 1560.85,-260.42"/>
<polygon fill="grey" stroke="grey" stroke-width="2" points="1563.78,-262.33 1566.55,-252.1 1558.01,-258.37 1563.78,-262.33"/>
</g>
<!-- 68 -->
<g id="node69" class="node">
<title>68</title>
<path fill="none" stroke="#d8bc56" stroke-width="2" d="M1465.78,-252C1465.78,-252 1346.78,-252 1346.78,-252 1340.78,-252 1334.78,-246 1334.78,-240 1334.78,-240 1334.78,-228 1334.78,-228 1334.78,-222 1340.78,-216 1346.78,-216 1346.78,-216 1465.78,-216 1465.78,-216 1471.78,-216 1477.78,-222 1477.78,-228 1477.78,-228 1477.78,-240 1477.78,-240 1477.78,-246 1471.78,-252 1465.78,-252"/>
<text text-anchor="middle" x="1406.28" y="-231.5" font-family="sans" font-size="10.00">profiling_genome_coverm</text>
</g>
<!-- 61&#45;&gt;68 -->
<g id="edge91" class="edge">
<title>61&#45;&gt;68</title>
<path fill="none" stroke="grey" stroke-width="2" d="M1499.94,-287.88C1483.58,-278.64 1463.19,-267.13 1445.62,-257.21"/>
<polygon fill="grey" stroke="grey" stroke-width="2" points="1447.16,-254.06 1436.73,-252.19 1443.72,-260.15 1447.16,-254.06"/>
</g>
<!-- 62&#45;&gt;61 -->
<g id="edge83" class="edge">
<title>62&#45;&gt;61</title>
<path fill="none" stroke="grey" stroke-width="2" d="M1530.28,-359.7C1530.28,-351.98 1530.28,-342.71 1530.28,-334.11"/>
<polygon fill="grey" stroke="grey" stroke-width="2" points="1533.78,-334.1 1530.28,-324.1 1526.78,-334.1 1533.78,-334.1"/>
</g>
<!-- 63 -->
<g id="node64" class="node">
<title>63</title>
<path fill="none" stroke="#56a2d8" stroke-width="2" d="M1989.28,-180C1989.28,-180 1849.28,-180 1849.28,-180 1843.28,-180 1837.28,-174 1837.28,-168 1837.28,-168 1837.28,-156 1837.28,-156 1837.28,-150 1843.28,-144 1849.28,-144 1849.28,-144 1989.28,-144 1989.28,-144 1995.28,-144 2001.28,-150 2001.28,-156 2001.28,-156 2001.28,-168 2001.28,-168 2001.28,-174 1995.28,-180 1989.28,-180"/>
<text text-anchor="middle" x="1919.28" y="-159.5" font-family="sans" font-size="10.00">profiling_genomecov_gen_cov</text>
</g>
<!-- 63&#45;&gt;58 -->
<g id="edge80" class="edge">
<title>63&#45;&gt;58</title>
<path fill="none" stroke="grey" stroke-width="2" d="M1874.02,-143.88C1848.28,-134.14 1815.87,-121.87 1788.74,-111.61"/>
<polygon fill="grey" stroke="grey" stroke-width="2" points="1789.98,-108.33 1779.39,-108.07 1787.5,-114.88 1789.98,-108.33"/>
</g>
<!-- 64 -->
<g id="node65" class="node">
<title>64</title>
<path fill="none" stroke="#56d87b" stroke-width="2" d="M1992.78,-252C1992.78,-252 1851.78,-252 1851.78,-252 1845.78,-252 1839.78,-246 1839.78,-240 1839.78,-240 1839.78,-228 1839.78,-228 1839.78,-222 1845.78,-216 1851.78,-216 1851.78,-216 1992.78,-216 1992.78,-216 1998.78,-216 2004.78,-222 2004.78,-228 2004.78,-228 2004.78,-240 2004.78,-240 2004.78,-246 1998.78,-252 1992.78,-252"/>
<text text-anchor="middle" x="1922.28" y="-231.5" font-family="sans" font-size="10.00">profiling_genomecov_gen_bed</text>
</g>
<!-- 64&#45;&gt;63 -->
<g id="edge85" class="edge">
<title>64&#45;&gt;63</title>
<path fill="none" stroke="grey" stroke-width="2" d="M1921.54,-215.7C1921.21,-207.98 1920.81,-198.71 1920.44,-190.11"/>
<polygon fill="grey" stroke="grey" stroke-width="2" points="1923.94,-189.95 1920.01,-180.1 1916.94,-190.25 1923.94,-189.95"/>
</g>
<!-- 65 -->
<g id="node66" class="node">
<title>65</title>
<path fill="none" stroke="#56c9d8" stroke-width="2" d="M1937.28,-324C1937.28,-324 1759.28,-324 1759.28,-324 1753.28,-324 1747.28,-318 1747.28,-312 1747.28,-312 1747.28,-300 1747.28,-300 1747.28,-294 1753.28,-288 1759.28,-288 1759.28,-288 1937.28,-288 1937.28,-288 1943.28,-288 1949.28,-294 1949.28,-300 1949.28,-300 1949.28,-312 1949.28,-312 1949.28,-318 1943.28,-324 1937.28,-324"/>
<text text-anchor="middle" x="1848.28" y="-303.5" font-family="sans" font-size="10.00">profiling_alignment_bam_postprocess</text>
</g>
<!-- 65&#45;&gt;64 -->
<g id="edge86" class="edge">
<title>65&#45;&gt;64</title>
<path fill="none" stroke="grey" stroke-width="2" d="M1866.57,-287.7C1875.71,-279.05 1886.92,-268.45 1896.88,-259.03"/>
<polygon fill="grey" stroke="grey" stroke-width="2" points="1899.34,-261.52 1904.2,-252.1 1894.53,-256.43 1899.34,-261.52"/>
</g>
<!-- 69 -->
<g id="node70" class="node">
<title>69</title>
<path fill="none" stroke="#d8bc56" stroke-width="2" d="M1809.78,-252C1809.78,-252 1690.78,-252 1690.78,-252 1684.78,-252 1678.78,-246 1678.78,-240 1678.78,-240 1678.78,-228 1678.78,-228 1678.78,-222 1684.78,-216 1690.78,-216 1690.78,-216 1809.78,-216 1809.78,-216 1815.78,-216 1821.78,-222 1821.78,-228 1821.78,-228 1821.78,-240 1821.78,-240 1821.78,-246 1815.78,-252 1809.78,-252"/>
<text text-anchor="middle" x="1750.28" y="-231.5" font-family="sans" font-size="10.00">profiling_genome_coverm</text>
</g>
<!-- 65&#45;&gt;69 -->
<g id="edge92" class="edge">
<title>65&#45;&gt;69</title>
<path fill="none" stroke="grey" stroke-width="2" d="M1824.3,-287.88C1811.73,-278.89 1796.14,-267.76 1782.53,-258.03"/>
<polygon fill="grey" stroke="grey" stroke-width="2" points="1784.51,-255.15 1774.34,-252.19 1780.45,-260.85 1784.51,-255.15"/>
</g>
<!-- 66&#45;&gt;65 -->
<g id="edge87" class="edge">
<title>66&#45;&gt;65</title>
<path fill="none" stroke="grey" stroke-width="2" d="M1848.28,-359.7C1848.28,-351.98 1848.28,-342.71 1848.28,-334.11"/>
<polygon fill="grey" stroke="grey" stroke-width="2" points="1851.78,-334.1 1848.28,-324.1 1844.78,-334.1 1851.78,-334.1"/>
</g>
<!-- 67 -->
<g id="node68" class="node">
<title>67</title>
<path fill="none" stroke="#97d856" stroke-width="2" d="M1622.28,-180C1622.28,-180 1466.28,-180 1466.28,-180 1460.28,-180 1454.28,-174 1454.28,-168 1454.28,-168 1454.28,-156 1454.28,-156 1454.28,-150 1460.28,-144 1466.28,-144 1466.28,-144 1622.28,-144 1622.28,-144 1628.28,-144 1634.28,-150 1634.28,-156 1634.28,-156 1634.28,-168 1634.28,-168 1634.28,-174 1628.28,-180 1622.28,-180"/>
<text text-anchor="middle" x="1544.28" y="-159.5" font-family="sans" font-size="10.00">profiling_genome_coverm_merge</text>
</g>
<!-- 67&#45;&gt;77 -->
<g id="edge123" class="edge">
<title>67&#45;&gt;77</title>
<path fill="none" stroke="grey" stroke-width="2" d="M1541.04,-143.89C1536.55,-124.32 1526.67,-92.35 1507.28,-72 1489.63,-53.48 1464.21,-40.74 1442.05,-32.39"/>
<polygon fill="grey" stroke="grey" stroke-width="2" points="1443.06,-29.03 1432.46,-28.97 1440.71,-35.63 1443.06,-29.03"/>
</g>
<!-- 68&#45;&gt;67 -->
<g id="edge89" class="edge">
<title>68&#45;&gt;67</title>
<path fill="none" stroke="grey" stroke-width="2" d="M1440.04,-215.88C1458.5,-206.51 1481.56,-194.81 1501.29,-184.8"/>
<polygon fill="grey" stroke="grey" stroke-width="2" points="1503.05,-187.83 1510.39,-180.19 1499.89,-181.59 1503.05,-187.83"/>
</g>
<!-- 69&#45;&gt;67 -->
<g id="edge90" class="edge">
<title>69&#45;&gt;67</title>
<path fill="none" stroke="grey" stroke-width="2" d="M1700.15,-215.97C1671.24,-206.14 1634.71,-193.73 1604.28,-183.39"/>
<polygon fill="grey" stroke="grey" stroke-width="2" points="1605.23,-180.01 1594.63,-180.11 1602.97,-186.64 1605.23,-180.01"/>
</g>
<!-- 70 -->
<g id="node71" class="node">
<title>70</title>
<path fill="none" stroke="#8fd856" stroke-width="2" d="M1385.78,-180C1385.78,-180 1278.78,-180 1278.78,-180 1272.78,-180 1266.78,-174 1266.78,-168 1266.78,-168 1266.78,-156 1266.78,-156 1266.78,-150 1272.78,-144 1278.78,-144 1278.78,-144 1385.78,-144 1385.78,-144 1391.78,-144 1397.78,-150 1397.78,-156 1397.78,-156 1397.78,-168 1397.78,-168 1397.78,-174 1391.78,-180 1385.78,-180"/>
<text text-anchor="middle" x="1332.28" y="-159.5" font-family="sans" font-size="10.00">profiling_humann3_join</text>
</g>
<!-- 76 -->
<g id="node77" class="node">
<title>76</title>
<path fill="none" stroke="#56d873" stroke-width="2" d="M1415.28,-108C1415.28,-108 1257.28,-108 1257.28,-108 1251.28,-108 1245.28,-102 1245.28,-96 1245.28,-96 1245.28,-84 1245.28,-84 1245.28,-78 1251.28,-72 1257.28,-72 1257.28,-72 1415.28,-72 1415.28,-72 1421.28,-72 1427.28,-78 1427.28,-84 1427.28,-84 1427.28,-96 1427.28,-96 1427.28,-102 1421.28,-108 1415.28,-108"/>
<text text-anchor="middle" x="1336.28" y="-87.5" font-family="sans" font-size="10.00">profiling_humann3_split_stratified</text>
</g>
<!-- 70&#45;&gt;76 -->
<g id="edge105" class="edge">
<title>70&#45;&gt;76</title>
<path fill="none" stroke="grey" stroke-width="2" d="M1333.27,-143.7C1333.71,-135.98 1334.24,-126.71 1334.73,-118.11"/>
<polygon fill="grey" stroke="grey" stroke-width="2" points="1338.22,-118.29 1335.3,-108.1 1331.23,-117.89 1338.22,-118.29"/>
</g>
<!-- 70&#45;&gt;77 -->
<g id="edge124" class="edge">
<title>70&#45;&gt;77</title>
<path fill="none" stroke="grey" stroke-width="2" d="M1392.01,-143.96C1409.3,-135.95 1426.22,-124.42 1436.28,-108 1448.92,-87.37 1434.86,-62.19 1419.87,-43.89"/>
<polygon fill="grey" stroke="grey" stroke-width="2" points="1422.21,-41.25 1413,-36 1416.93,-45.85 1422.21,-41.25"/>
</g>
<!-- 71&#45;&gt;70 -->
<g id="edge93" class="edge">
<title>71&#45;&gt;70</title>
<path fill="none" stroke="grey" stroke-width="2" d="M1038.76,-287.96C1037.97,-267.84 1040.04,-234.74 1059.28,-216 1121.77,-155.1 1166.71,-197.07 1252.28,-180 1253.57,-179.74 1254.87,-179.48 1256.19,-179.22"/>
<polygon fill="grey" stroke="grey" stroke-width="2" points="1257.28,-182.56 1266.38,-177.14 1255.89,-175.71 1257.28,-182.56"/>
</g>
<!-- 74 -->
<g id="node75" class="node">
<title>74</title>
<path fill="none" stroke="#56d8c1" stroke-width="2" d="M999.78,-252C999.78,-252 852.78,-252 852.78,-252 846.78,-252 840.78,-246 840.78,-240 840.78,-240 840.78,-228 840.78,-228 840.78,-222 846.78,-216 852.78,-216 852.78,-216 999.78,-216 999.78,-216 1005.78,-216 1011.78,-222 1011.78,-228 1011.78,-228 1011.78,-240 1011.78,-240 1011.78,-246 1005.78,-252 999.78,-252"/>
<text text-anchor="middle" x="926.28" y="-231.5" font-family="sans" font-size="10.00">profiling_humann3_postprocess</text>
</g>
<!-- 71&#45;&gt;74 -->
<g id="edge103" class="edge">
<title>71&#45;&gt;74</title>
<path fill="none" stroke="grey" stroke-width="2" d="M1012.39,-287.88C997.48,-278.72 978.95,-267.34 962.9,-257.48"/>
<polygon fill="grey" stroke="grey" stroke-width="2" points="964.63,-254.44 954.27,-252.19 960.96,-260.41 964.63,-254.44"/>
</g>
<!-- 72 -->
<g id="node73" class="node">
<title>72</title>
<path fill="none" stroke="#d8d356" stroke-width="2" d="M1108.28,-396C1108.28,-396 990.28,-396 990.28,-396 984.28,-396 978.28,-390 978.28,-384 978.28,-384 978.28,-372 978.28,-372 978.28,-366 984.28,-360 990.28,-360 990.28,-360 1108.28,-360 1108.28,-360 1114.28,-360 1120.28,-366 1120.28,-372 1120.28,-372 1120.28,-384 1120.28,-384 1120.28,-390 1114.28,-396 1108.28,-396"/>
<text text-anchor="middle" x="1049.28" y="-375.5" font-family="sans" font-size="10.00">profiling_humann3_config</text>
</g>
<!-- 72&#45;&gt;71 -->
<g id="edge97" class="edge">
<title>72&#45;&gt;71</title>
<path fill="none" stroke="grey" stroke-width="2" d="M1047.05,-359.7C1046.06,-351.98 1044.87,-342.71 1043.76,-334.11"/>
<polygon fill="grey" stroke="grey" stroke-width="2" points="1047.22,-333.58 1042.48,-324.1 1040.28,-334.47 1047.22,-333.58"/>
</g>
<!-- 72&#45;&gt;73 -->
<g id="edge100" class="edge">
<title>72&#45;&gt;73</title>
<path fill="none" stroke="grey" stroke-width="2" d="M1079.61,-359.88C1095.97,-350.64 1116.36,-339.13 1133.93,-329.21"/>
<polygon fill="grey" stroke="grey" stroke-width="2" points="1135.84,-332.15 1142.83,-324.19 1132.4,-326.06 1135.84,-332.15"/>
</g>
<!-- 73&#45;&gt;70 -->
<g id="edge94" class="edge">
<title>73&#45;&gt;70</title>
<path fill="none" stroke="grey" stroke-width="2" d="M1200.68,-287.92C1215.61,-278.12 1234.09,-265.18 1249.28,-252 1272.22,-232.1 1295.56,-206.49 1311.62,-187.86"/>
<polygon fill="grey" stroke="grey" stroke-width="2" points="1314.43,-189.96 1318.25,-180.08 1309.1,-185.42 1314.43,-189.96"/>
</g>
<!-- 75 -->
<g id="node76" class="node">
<title>75</title>
<path fill="none" stroke="#56d8c1" stroke-width="2" d="M1227.78,-252C1227.78,-252 1080.78,-252 1080.78,-252 1074.78,-252 1068.78,-246 1068.78,-240 1068.78,-240 1068.78,-228 1068.78,-228 1068.78,-222 1074.78,-216 1080.78,-216 1080.78,-216 1227.78,-216 1227.78,-216 1233.78,-216 1239.78,-222 1239.78,-228 1239.78,-228 1239.78,-240 1239.78,-240 1239.78,-246 1233.78,-252 1227.78,-252"/>
<text text-anchor="middle" x="1154.28" y="-231.5" font-family="sans" font-size="10.00">profiling_humann3_postprocess</text>
</g>
<!-- 73&#45;&gt;75 -->
<g id="edge104" class="edge">
<title>73&#45;&gt;75</title>
<path fill="none" stroke="grey" stroke-width="2" d="M1168.58,-287.7C1166.46,-279.9 1163.92,-270.51 1161.56,-261.83"/>
<polygon fill="grey" stroke="grey" stroke-width="2" points="1164.92,-260.84 1158.92,-252.1 1158.16,-262.67 1164.92,-260.84"/>
</g>
<!-- 74&#45;&gt;70 -->
<g id="edge95" class="edge">
<title>74&#45;&gt;70</title>
<path fill="none" stroke="grey" stroke-width="2" d="M1011.91,-218.38C1016.77,-217.57 1021.59,-216.77 1026.28,-216 1126.64,-199.48 1152.28,-198.58 1252.28,-180 1253.57,-179.76 1254.88,-179.51 1256.2,-179.26"/>
<polygon fill="grey" stroke="grey" stroke-width="2" points="1257.26,-182.62 1266.41,-177.28 1255.93,-175.75 1257.26,-182.62"/>
</g>
<!-- 75&#45;&gt;70 -->
<g id="edge96" class="edge">
<title>75&#45;&gt;70</title>
<path fill="none" stroke="grey" stroke-width="2" d="M1197.82,-215.88C1222.48,-206.18 1253.5,-193.98 1279.53,-183.74"/>
<polygon fill="grey" stroke="grey" stroke-width="2" points="1280.85,-186.99 1288.87,-180.07 1278.29,-180.47 1280.85,-186.99"/>
</g>
<!-- 76&#45;&gt;77 -->
<g id="edge125" class="edge">
<title>76&#45;&gt;77</title>
<path fill="none" stroke="grey" stroke-width="2" d="M1350.86,-71.7C1357.93,-63.3 1366.56,-53.07 1374.32,-43.86"/>
<polygon fill="grey" stroke="grey" stroke-width="2" points="1377.09,-46.01 1380.86,-36.1 1371.74,-41.49 1377.09,-46.01"/>
</g>
</g>
</svg>
