<?xml version="1.0" encoding="UTF-8" standalone="no"?>
<!DOCTYPE svg PUBLIC "-//W3C//DTD SVG 1.1//EN"
 "http://www.w3.org/Graphics/SVG/1.1/DTD/svg11.dtd">
<!-- Generated by graphviz version 3.0.0 (20220315.2325)
 -->
<!-- Title: snakemake_dag Pages: 1 -->
<svg width="622pt" height="381pt"
 viewBox="0.00 0.00 895.44 548.00" xmlns="http://www.w3.org/2000/svg" xmlns:xlink="http://www.w3.org/1999/xlink">
<g id="graph0" class="graph" transform="scale(0.694444 0.694444) rotate(0) translate(4 544)">
<title>snakemake_dag</title>
<polygon fill="white" stroke="transparent" points="-4,4 -4,-544 891.44,-544 891.44,4 -4,4"/>
<!-- 0 -->
<g id="node1" class="node">
<title>0</title>
<path fill="none" stroke="#56d882" stroke-width="2" d="M106.5,-396C106.5,-396 24.5,-396 24.5,-396 18.5,-396 12.5,-390 12.5,-384 12.5,-384 12.5,-372 12.5,-372 12.5,-366 18.5,-360 24.5,-360 24.5,-360 106.5,-360 106.5,-360 112.5,-360 118.5,-366 118.5,-372 118.5,-372 118.5,-384 118.5,-384 118.5,-390 112.5,-396 106.5,-396"/>
<text text-anchor="middle" x="65.5" y="-375.5" font-family="sans" font-size="10.00">raw_report_merge</text>
</g>
<!-- 16 -->
<g id="node17" class="node">
<title>16</title>
<path fill="none" stroke="#68d856" stroke-width="2" d="M233,-180C233,-180 148,-180 148,-180 142,-180 136,-174 136,-168 136,-168 136,-156 136,-156 136,-150 142,-144 148,-144 148,-144 233,-144 233,-144 239,-144 245,-150 245,-156 245,-156 245,-168 245,-168 245,-174 239,-180 233,-180"/>
<text text-anchor="middle" x="190.5" y="-159.5" font-family="sans" font-size="10.00">qcreport_summary</text>
</g>
<!-- 0&#45;&gt;16 -->
<g id="edge19" class="edge">
<title>0&#45;&gt;16</title>
<path fill="none" stroke="grey" stroke-width="2" d="M74.68,-359.82C84.36,-341.8 100.18,-312.73 114.5,-288 134.56,-253.35 158.73,-213.98 174.35,-188.83"/>
<polygon fill="grey" stroke="grey" stroke-width="2" points="177.38,-190.59 179.69,-180.25 171.43,-186.89 177.38,-190.59"/>
</g>
<!-- 1 -->
<g id="node2" class="node">
<title>1</title>
<path fill="none" stroke="#d88556" stroke-width="2" d="M57,-468C57,-468 12,-468 12,-468 6,-468 0,-462 0,-456 0,-456 0,-444 0,-444 0,-438 6,-432 12,-432 12,-432 57,-432 57,-432 63,-432 69,-438 69,-444 69,-444 69,-456 69,-456 69,-462 63,-468 57,-468"/>
<text text-anchor="middle" x="34.5" y="-447.5" font-family="sans" font-size="10.00">raw_report</text>
</g>
<!-- 1&#45;&gt;0 -->
<g id="edge1" class="edge">
<title>1&#45;&gt;0</title>
<path fill="none" stroke="grey" stroke-width="2" d="M42.16,-431.7C45.69,-423.73 49.96,-414.1 53.87,-405.26"/>
<polygon fill="grey" stroke="grey" stroke-width="2" points="57.08,-406.67 57.93,-396.1 50.68,-403.83 57.08,-406.67"/>
</g>
<!-- 2 -->
<g id="node3" class="node">
<title>2</title>
<path fill="none" stroke="#d89556" stroke-width="2" stroke-dasharray="5,2" d="M161.5,-540C161.5,-540 69.5,-540 69.5,-540 63.5,-540 57.5,-534 57.5,-528 57.5,-528 57.5,-516 57.5,-516 57.5,-510 63.5,-504 69.5,-504 69.5,-504 161.5,-504 161.5,-504 167.5,-504 173.5,-510 173.5,-516 173.5,-516 173.5,-528 173.5,-528 173.5,-534 167.5,-540 161.5,-540"/>
<text text-anchor="middle" x="115.5" y="-525" font-family="sans" font-size="10.00">prepare_short_reads</text>
<text text-anchor="middle" x="115.5" y="-514" font-family="sans" font-size="10.00">sample: bg1_ag1_s1</text>
</g>
<!-- 2&#45;&gt;1 -->
<g id="edge3" class="edge">
<title>2&#45;&gt;1</title>
<path fill="none" stroke="grey" stroke-width="2" d="M95.48,-503.7C85.37,-494.97 72.96,-484.24 61.98,-474.75"/>
<polygon fill="grey" stroke="grey" stroke-width="2" points="64.15,-471.99 54.29,-468.1 59.57,-477.29 64.15,-471.99"/>
</g>
<!-- 5 -->
<g id="node6" class="node">
<title>5</title>
<path fill="none" stroke="#569ad8" stroke-width="2" d="M254.5,-468C254.5,-468 186.5,-468 186.5,-468 180.5,-468 174.5,-462 174.5,-456 174.5,-456 174.5,-444 174.5,-444 174.5,-438 180.5,-432 186.5,-432 186.5,-432 254.5,-432 254.5,-432 260.5,-432 266.5,-438 266.5,-444 266.5,-444 266.5,-456 266.5,-456 266.5,-462 260.5,-468 254.5,-468"/>
<text text-anchor="middle" x="220.5" y="-447.5" font-family="sans" font-size="10.00">trimming_fastp</text>
</g>
<!-- 2&#45;&gt;5 -->
<g id="edge5" class="edge">
<title>2&#45;&gt;5</title>
<path fill="none" stroke="grey" stroke-width="2" d="M141.19,-503.88C154.79,-494.81 171.67,-483.55 186.36,-473.76"/>
<polygon fill="grey" stroke="grey" stroke-width="2" points="188.34,-476.65 194.72,-468.19 184.45,-470.82 188.34,-476.65"/>
</g>
<!-- 3 -->
<g id="node4" class="node">
<title>3</title>
<path fill="none" stroke="#d88556" stroke-width="2" d="M144,-468C144,-468 99,-468 99,-468 93,-468 87,-462 87,-456 87,-456 87,-444 87,-444 87,-438 93,-432 99,-432 99,-432 144,-432 144,-432 150,-432 156,-438 156,-444 156,-444 156,-456 156,-456 156,-462 150,-468 144,-468"/>
<text text-anchor="middle" x="121.5" y="-447.5" font-family="sans" font-size="10.00">raw_report</text>
</g>
<!-- 3&#45;&gt;0 -->
<g id="edge2" class="edge">
<title>3&#45;&gt;0</title>
<path fill="none" stroke="grey" stroke-width="2" d="M107.66,-431.7C101.01,-423.39 92.92,-413.28 85.61,-404.14"/>
<polygon fill="grey" stroke="grey" stroke-width="2" points="88.16,-401.73 79.18,-396.1 82.7,-406.1 88.16,-401.73"/>
</g>
<!-- 4 -->
<g id="node5" class="node">
<title>4</title>
<path fill="none" stroke="#d89556" stroke-width="2" stroke-dasharray="5,2" d="M335.5,-540C335.5,-540 243.5,-540 243.5,-540 237.5,-540 231.5,-534 231.5,-528 231.5,-528 231.5,-516 231.5,-516 231.5,-510 237.5,-504 243.5,-504 243.5,-504 335.5,-504 335.5,-504 341.5,-504 347.5,-510 347.5,-516 347.5,-516 347.5,-528 347.5,-528 347.5,-534 341.5,-540 335.5,-540"/>
<text text-anchor="middle" x="289.5" y="-525" font-family="sans" font-size="10.00">prepare_short_reads</text>
<text text-anchor="middle" x="289.5" y="-514" font-family="sans" font-size="10.00">sample: bg1_ag1_s2</text>
</g>
<!-- 4&#45;&gt;3 -->
<g id="edge4" class="edge">
<title>4&#45;&gt;3</title>
<path fill="none" stroke="grey" stroke-width="2" d="M248.4,-503.88C223.34,-493.43 191.3,-480.08 165.69,-469.41"/>
<polygon fill="grey" stroke="grey" stroke-width="2" points="166.8,-466.08 156.22,-465.47 164.1,-472.54 166.8,-466.08"/>
</g>
<!-- 6 -->
<g id="node7" class="node">
<title>6</title>
<path fill="none" stroke="#569ad8" stroke-width="2" d="M364.5,-468C364.5,-468 296.5,-468 296.5,-468 290.5,-468 284.5,-462 284.5,-456 284.5,-456 284.5,-444 284.5,-444 284.5,-438 290.5,-432 296.5,-432 296.5,-432 364.5,-432 364.5,-432 370.5,-432 376.5,-438 376.5,-444 376.5,-444 376.5,-456 376.5,-456 376.5,-462 370.5,-468 364.5,-468"/>
<text text-anchor="middle" x="330.5" y="-447.5" font-family="sans" font-size="10.00">trimming_fastp</text>
</g>
<!-- 4&#45;&gt;6 -->
<g id="edge6" class="edge">
<title>4&#45;&gt;6</title>
<path fill="none" stroke="grey" stroke-width="2" d="M299.63,-503.7C304.35,-495.64 310.06,-485.89 315.28,-476.98"/>
<polygon fill="grey" stroke="grey" stroke-width="2" points="318.45,-478.5 320.48,-468.1 312.41,-474.96 318.45,-478.5"/>
</g>
<!-- 8 -->
<g id="node9" class="node">
<title>8</title>
<path fill="none" stroke="#56d863" stroke-width="2" d="M220.5,-396C220.5,-396 148.5,-396 148.5,-396 142.5,-396 136.5,-390 136.5,-384 136.5,-384 136.5,-372 136.5,-372 136.5,-366 142.5,-360 148.5,-360 148.5,-360 220.5,-360 220.5,-360 226.5,-360 232.5,-366 232.5,-372 232.5,-372 232.5,-384 232.5,-384 232.5,-390 226.5,-396 220.5,-396"/>
<text text-anchor="middle" x="184.5" y="-375.5" font-family="sans" font-size="10.00">trimming_report</text>
</g>
<!-- 5&#45;&gt;8 -->
<g id="edge9" class="edge">
<title>5&#45;&gt;8</title>
<path fill="none" stroke="grey" stroke-width="2" d="M211.6,-431.7C207.5,-423.73 202.55,-414.1 198.01,-405.26"/>
<polygon fill="grey" stroke="grey" stroke-width="2" points="200.98,-403.4 193.3,-396.1 194.76,-406.6 200.98,-403.4"/>
</g>
<!-- 10 -->
<g id="node11" class="node">
<title>10</title>
<path fill="none" stroke="#56d8d0" stroke-width="2" d="M448,-396C448,-396 377,-396 377,-396 371,-396 365,-390 365,-384 365,-384 365,-372 365,-372 365,-366 371,-360 377,-360 377,-360 448,-360 448,-360 454,-360 460,-366 460,-372 460,-372 460,-384 460,-384 460,-390 454,-396 448,-396"/>
<text text-anchor="middle" x="412.5" y="-375.5" font-family="sans" font-size="10.00">rmhost_bowtie2</text>
</g>
<!-- 5&#45;&gt;10 -->
<g id="edge11" class="edge">
<title>5&#45;&gt;10</title>
<path fill="none" stroke="grey" stroke-width="2" d="M266.98,-432.05C293.9,-422.24 327.98,-409.82 356.39,-399.46"/>
<polygon fill="grey" stroke="grey" stroke-width="2" points="357.59,-402.75 365.78,-396.03 355.19,-396.17 357.59,-402.75"/>
</g>
<!-- 9 -->
<g id="node10" class="node">
<title>9</title>
<path fill="none" stroke="#56d863" stroke-width="2" d="M334.5,-396C334.5,-396 262.5,-396 262.5,-396 256.5,-396 250.5,-390 250.5,-384 250.5,-384 250.5,-372 250.5,-372 250.5,-366 256.5,-360 262.5,-360 262.5,-360 334.5,-360 334.5,-360 340.5,-360 346.5,-366 346.5,-372 346.5,-372 346.5,-384 346.5,-384 346.5,-390 340.5,-396 334.5,-396"/>
<text text-anchor="middle" x="298.5" y="-375.5" font-family="sans" font-size="10.00">trimming_report</text>
</g>
<!-- 6&#45;&gt;9 -->
<g id="edge10" class="edge">
<title>6&#45;&gt;9</title>
<path fill="none" stroke="grey" stroke-width="2" d="M322.59,-431.7C318.95,-423.73 314.55,-414.1 310.51,-405.26"/>
<polygon fill="grey" stroke="grey" stroke-width="2" points="313.66,-403.74 306.32,-396.1 307.29,-406.65 313.66,-403.74"/>
</g>
<!-- 12 -->
<g id="node13" class="node">
<title>12</title>
<path fill="none" stroke="#56d8d0" stroke-width="2" d="M561,-396C561,-396 490,-396 490,-396 484,-396 478,-390 478,-384 478,-384 478,-372 478,-372 478,-366 484,-360 490,-360 490,-360 561,-360 561,-360 567,-360 573,-366 573,-372 573,-372 573,-384 573,-384 573,-390 567,-396 561,-396"/>
<text text-anchor="middle" x="525.5" y="-375.5" font-family="sans" font-size="10.00">rmhost_bowtie2</text>
</g>
<!-- 6&#45;&gt;12 -->
<g id="edge13" class="edge">
<title>6&#45;&gt;12</title>
<path fill="none" stroke="grey" stroke-width="2" d="M376.71,-432.41C404.13,-422.57 439.12,-410.01 468.28,-399.54"/>
<polygon fill="grey" stroke="grey" stroke-width="2" points="469.69,-402.75 477.92,-396.08 467.33,-396.16 469.69,-402.75"/>
</g>
<!-- 7 -->
<g id="node8" class="node">
<title>7</title>
<path fill="none" stroke="#56d8c1" stroke-width="2" d="M245,-324C245,-324 136,-324 136,-324 130,-324 124,-318 124,-312 124,-312 124,-300 124,-300 124,-294 130,-288 136,-288 136,-288 245,-288 245,-288 251,-288 257,-294 257,-300 257,-300 257,-312 257,-312 257,-318 251,-324 245,-324"/>
<text text-anchor="middle" x="190.5" y="-303.5" font-family="sans" font-size="10.00">trimming_report_merge</text>
</g>
<!-- 7&#45;&gt;16 -->
<g id="edge20" class="edge">
<title>7&#45;&gt;16</title>
<path fill="none" stroke="grey" stroke-width="2" d="M190.5,-287.87C190.5,-263.67 190.5,-219.21 190.5,-190.39"/>
<polygon fill="grey" stroke="grey" stroke-width="2" points="194,-190.19 190.5,-180.19 187,-190.19 194,-190.19"/>
</g>
<!-- 8&#45;&gt;7 -->
<g id="edge7" class="edge">
<title>8&#45;&gt;7</title>
<path fill="none" stroke="grey" stroke-width="2" d="M185.98,-359.7C186.64,-351.98 187.44,-342.71 188.18,-334.11"/>
<polygon fill="grey" stroke="grey" stroke-width="2" points="191.67,-334.37 189.03,-324.1 184.69,-333.77 191.67,-334.37"/>
</g>
<!-- 9&#45;&gt;7 -->
<g id="edge8" class="edge">
<title>9&#45;&gt;7</title>
<path fill="none" stroke="grey" stroke-width="2" d="M272.08,-359.88C258.09,-350.81 240.72,-339.55 225.61,-329.76"/>
<polygon fill="grey" stroke="grey" stroke-width="2" points="227.32,-326.69 217.02,-324.19 223.51,-332.57 227.32,-326.69"/>
</g>
<!-- 14 -->
<g id="node15" class="node">
<title>14</title>
<path fill="none" stroke="#d8d356" stroke-width="2" d="M363.5,-324C363.5,-324 301.5,-324 301.5,-324 295.5,-324 289.5,-318 289.5,-312 289.5,-312 289.5,-300 289.5,-300 289.5,-294 295.5,-288 301.5,-288 301.5,-288 363.5,-288 363.5,-288 369.5,-288 375.5,-294 375.5,-300 375.5,-300 375.5,-312 375.5,-312 375.5,-318 369.5,-324 363.5,-324"/>
<text text-anchor="middle" x="332.5" y="-303.5" font-family="sans" font-size="10.00">rmhost_report</text>
</g>
<!-- 10&#45;&gt;14 -->
<g id="edge17" class="edge">
<title>10&#45;&gt;14</title>
<path fill="none" stroke="grey" stroke-width="2" d="M392.72,-359.7C382.75,-350.97 370.49,-340.24 359.64,-330.75"/>
<polygon fill="grey" stroke="grey" stroke-width="2" points="361.88,-328.06 352.05,-324.1 357.27,-333.32 361.88,-328.06"/>
</g>
<!-- 18 -->
<g id="node19" class="node">
<title>18</title>
<path fill="none" stroke="#56d8d8" stroke-width="2" d="M451,-180C451,-180 374,-180 374,-180 368,-180 362,-174 362,-168 362,-168 362,-156 362,-156 362,-150 368,-144 374,-144 374,-144 451,-144 451,-144 457,-144 463,-150 463,-156 463,-156 463,-168 463,-168 463,-174 457,-180 451,-180"/>
<text text-anchor="middle" x="412.5" y="-159.5" font-family="sans" font-size="10.00">profiling_kraken2</text>
</g>
<!-- 10&#45;&gt;18 -->
<g id="edge23" class="edge">
<title>10&#45;&gt;18</title>
<path fill="none" stroke="grey" stroke-width="2" d="M412.5,-359.85C412.5,-322.83 412.5,-235.18 412.5,-190.39"/>
<polygon fill="grey" stroke="grey" stroke-width="2" points="416,-190.23 412.5,-180.23 409,-190.23 416,-190.23"/>
</g>
<!-- 11 -->
<g id="node12" class="node">
<title>11</title>
<path fill="none" stroke="#88d856" stroke-width="2" stroke-dasharray="5,2" d="M528.5,-468C528.5,-468 424.5,-468 424.5,-468 418.5,-468 412.5,-462 412.5,-456 412.5,-456 412.5,-444 412.5,-444 412.5,-438 418.5,-432 424.5,-432 424.5,-432 528.5,-432 528.5,-432 534.5,-432 540.5,-438 540.5,-444 540.5,-444 540.5,-456 540.5,-456 540.5,-462 534.5,-468 528.5,-468"/>
<text text-anchor="middle" x="476.5" y="-447.5" font-family="sans" font-size="10.00">rmhost_bowtie2_index</text>
</g>
<!-- 11&#45;&gt;10 -->
<g id="edge12" class="edge">
<title>11&#45;&gt;10</title>
<path fill="none" stroke="grey" stroke-width="2" d="M460.68,-431.7C452.93,-423.22 443.46,-412.86 434.98,-403.58"/>
<polygon fill="grey" stroke="grey" stroke-width="2" points="437.47,-401.12 428.14,-396.1 432.3,-405.85 437.47,-401.12"/>
</g>
<!-- 11&#45;&gt;12 -->
<g id="edge14" class="edge">
<title>11&#45;&gt;12</title>
<path fill="none" stroke="grey" stroke-width="2" d="M488.61,-431.7C494.37,-423.47 501.36,-413.48 507.71,-404.42"/>
<polygon fill="grey" stroke="grey" stroke-width="2" points="510.66,-406.3 513.53,-396.1 504.92,-402.29 510.66,-406.3"/>
</g>
<!-- 15 -->
<g id="node16" class="node">
<title>15</title>
<path fill="none" stroke="#d8d356" stroke-width="2" d="M514.5,-324C514.5,-324 452.5,-324 452.5,-324 446.5,-324 440.5,-318 440.5,-312 440.5,-312 440.5,-300 440.5,-300 440.5,-294 446.5,-288 452.5,-288 452.5,-288 514.5,-288 514.5,-288 520.5,-288 526.5,-294 526.5,-300 526.5,-300 526.5,-312 526.5,-312 526.5,-318 520.5,-324 514.5,-324"/>
<text text-anchor="middle" x="483.5" y="-303.5" font-family="sans" font-size="10.00">rmhost_report</text>
</g>
<!-- 12&#45;&gt;15 -->
<g id="edge18" class="edge">
<title>12&#45;&gt;15</title>
<path fill="none" stroke="grey" stroke-width="2" d="M515.12,-359.7C510.24,-351.56 504.31,-341.69 498.92,-332.7"/>
<polygon fill="grey" stroke="grey" stroke-width="2" points="501.91,-330.88 493.76,-324.1 495.91,-334.48 501.91,-330.88"/>
</g>
<!-- 19 -->
<g id="node20" class="node">
<title>19</title>
<path fill="none" stroke="#56d8d8" stroke-width="2" d="M593,-180C593,-180 516,-180 516,-180 510,-180 504,-174 504,-168 504,-168 504,-156 504,-156 504,-150 510,-144 516,-144 516,-144 593,-144 593,-144 599,-144 605,-150 605,-156 605,-156 605,-168 605,-168 605,-174 599,-180 593,-180"/>
<text text-anchor="middle" x="554.5" y="-159.5" font-family="sans" font-size="10.00">profiling_kraken2</text>
</g>
<!-- 12&#45;&gt;19 -->
<g id="edge24" class="edge">
<title>12&#45;&gt;19</title>
<path fill="none" stroke="grey" stroke-width="2" d="M529.04,-359.87C531.11,-349.51 533.66,-336.03 535.5,-324 542.66,-277.26 548.6,-222.52 551.85,-190.42"/>
<polygon fill="grey" stroke="grey" stroke-width="2" points="555.33,-190.74 552.84,-180.45 548.37,-190.05 555.33,-190.74"/>
</g>
<!-- 13 -->
<g id="node14" class="node">
<title>13</title>
<path fill="none" stroke="#56d8a2" stroke-width="2" d="M372.5,-252C372.5,-252 274.5,-252 274.5,-252 268.5,-252 262.5,-246 262.5,-240 262.5,-240 262.5,-228 262.5,-228 262.5,-222 268.5,-216 274.5,-216 274.5,-216 372.5,-216 372.5,-216 378.5,-216 384.5,-222 384.5,-228 384.5,-228 384.5,-240 384.5,-240 384.5,-246 378.5,-252 372.5,-252"/>
<text text-anchor="middle" x="323.5" y="-231.5" font-family="sans" font-size="10.00">rmhost_report_merge</text>
</g>
<!-- 13&#45;&gt;16 -->
<g id="edge21" class="edge">
<title>13&#45;&gt;16</title>
<path fill="none" stroke="grey" stroke-width="2" d="M290.96,-215.88C273.25,-206.55 251.15,-194.92 232.18,-184.94"/>
<polygon fill="grey" stroke="grey" stroke-width="2" points="233.64,-181.75 223.16,-180.19 230.38,-187.94 233.64,-181.75"/>
</g>
<!-- 14&#45;&gt;13 -->
<g id="edge15" class="edge">
<title>14&#45;&gt;13</title>
<path fill="none" stroke="grey" stroke-width="2" d="M330.28,-287.7C329.28,-279.98 328.09,-270.71 326.99,-262.11"/>
<polygon fill="grey" stroke="grey" stroke-width="2" points="330.45,-261.58 325.7,-252.1 323.5,-262.47 330.45,-261.58"/>
</g>
<!-- 15&#45;&gt;13 -->
<g id="edge16" class="edge">
<title>15&#45;&gt;13</title>
<path fill="none" stroke="grey" stroke-width="2" d="M444.36,-287.88C422.49,-278.31 395.04,-266.3 371.84,-256.15"/>
<polygon fill="grey" stroke="grey" stroke-width="2" points="373.08,-252.87 362.51,-252.07 370.27,-259.28 373.08,-252.87"/>
</g>
<!-- 17 -->
<g id="node18" class="node">
<title>17</title>
<path fill="none" stroke="#afd856" stroke-width="2" d="M156,-108C156,-108 99,-108 99,-108 93,-108 87,-102 87,-96 87,-96 87,-84 87,-84 87,-78 93,-72 99,-72 99,-72 156,-72 156,-72 162,-72 168,-78 168,-84 168,-84 168,-96 168,-96 168,-102 162,-108 156,-108"/>
<text text-anchor="middle" x="127.5" y="-87.5" font-family="sans" font-size="10.00">qcreport_plot</text>
</g>
<!-- 16&#45;&gt;17 -->
<g id="edge22" class="edge">
<title>16&#45;&gt;17</title>
<path fill="none" stroke="grey" stroke-width="2" d="M174.93,-143.7C167.3,-135.22 157.98,-124.86 149.62,-115.58"/>
<polygon fill="grey" stroke="grey" stroke-width="2" points="152.19,-113.2 142.89,-108.1 146.98,-117.88 152.19,-113.2"/>
</g>
<!-- 23 -->
<g id="node24" class="node">
<title>23</title>
<path fill="none" stroke="#d8c356" stroke-width="2" d="M393.5,-36C393.5,-36 299.5,-36 299.5,-36 293.5,-36 287.5,-30 287.5,-24 287.5,-24 287.5,-12 287.5,-12 287.5,-6 293.5,0 299.5,0 299.5,0 393.5,0 393.5,0 399.5,0 405.5,-6 405.5,-12 405.5,-12 405.5,-24 405.5,-24 405.5,-30 399.5,-36 393.5,-36"/>
<text text-anchor="middle" x="346.5" y="-15.5" font-family="sans" font-size="10.00">profiling_kraken2_all</text>
</g>
<!-- 16&#45;&gt;23 -->
<g id="edge36" class="edge">
<title>16&#45;&gt;23</title>
<path fill="none" stroke="grey" stroke-width="2" d="M197.33,-143.67C205.73,-124.18 221.62,-92.57 243.5,-72 257.22,-59.1 274.69,-48.55 291.33,-40.35"/>
<polygon fill="grey" stroke="grey" stroke-width="2" points="292.91,-43.47 300.45,-36.03 289.92,-37.14 292.91,-43.47"/>
</g>
<!-- 17&#45;&gt;23 -->
<g id="edge37" class="edge">
<title>17&#45;&gt;23</title>
<path fill="none" stroke="grey" stroke-width="2" d="M168.18,-76C200.54,-65.65 246.39,-51 283.49,-39.14"/>
<polygon fill="grey" stroke="grey" stroke-width="2" points="284.75,-42.41 293.21,-36.03 282.62,-35.74 284.75,-42.41"/>
</g>
<!-- 20 -->
<g id="node21" class="node">
<title>20</title>
<path fill="none" stroke="#8fd856" stroke-width="2" d="M418.5,-108C418.5,-108 274.5,-108 274.5,-108 268.5,-108 262.5,-102 262.5,-96 262.5,-96 262.5,-84 262.5,-84 262.5,-78 268.5,-72 274.5,-72 274.5,-72 418.5,-72 418.5,-72 424.5,-72 430.5,-78 430.5,-84 430.5,-84 430.5,-96 430.5,-96 430.5,-102 424.5,-108 418.5,-108"/>
<text text-anchor="middle" x="346.5" y="-87.5" font-family="sans" font-size="10.00">profiling_kraken2_krona_report</text>
</g>
<!-- 18&#45;&gt;20 -->
<g id="edge25" class="edge">
<title>18&#45;&gt;20</title>
<path fill="none" stroke="grey" stroke-width="2" d="M396.19,-143.7C388.19,-135.22 378.43,-124.86 369.68,-115.58"/>
<polygon fill="grey" stroke="grey" stroke-width="2" points="372.03,-112.98 362.63,-108.1 366.94,-117.78 372.03,-112.98"/>
</g>
<!-- 21 -->
<g id="node22" class="node">
<title>21</title>
<path fill="none" stroke="#5682d8" stroke-width="2" d="M624.5,-108C624.5,-108 460.5,-108 460.5,-108 454.5,-108 448.5,-102 448.5,-96 448.5,-96 448.5,-84 448.5,-84 448.5,-78 454.5,-72 460.5,-72 460.5,-72 624.5,-72 624.5,-72 630.5,-72 636.5,-78 636.5,-84 636.5,-84 636.5,-96 636.5,-96 636.5,-102 630.5,-108 624.5,-108"/>
<text text-anchor="middle" x="542.5" y="-87.5" font-family="sans" font-size="10.00">profiling_kraken2_combine_kreport</text>
</g>
<!-- 18&#45;&gt;21 -->
<g id="edge27" class="edge">
<title>18&#45;&gt;21</title>
<path fill="none" stroke="grey" stroke-width="2" d="M444.3,-143.88C461.61,-134.55 483.22,-122.92 501.76,-112.94"/>
<polygon fill="grey" stroke="grey" stroke-width="2" points="503.43,-116.01 510.58,-108.19 500.11,-109.85 503.43,-116.01"/>
</g>
<!-- 22 -->
<g id="node23" class="node">
<title>22</title>
<path fill="none" stroke="#61d856" stroke-width="2" d="M858,-108C858,-108 667,-108 667,-108 661,-108 655,-102 655,-96 655,-96 655,-84 655,-84 655,-78 661,-72 667,-72 667,-72 858,-72 858,-72 864,-72 870,-78 870,-84 870,-84 870,-96 870,-96 870,-102 864,-108 858,-108"/>
<text text-anchor="middle" x="762.5" y="-87.5" font-family="sans" font-size="10.00">profiling_kraken2_combine_kreport_mpa</text>
</g>
<!-- 18&#45;&gt;22 -->
<g id="edge29" class="edge">
<title>18&#45;&gt;22</title>
<path fill="none" stroke="grey" stroke-width="2" d="M463.41,-150.52C474.01,-148.35 485.12,-146.09 495.5,-144 551.96,-132.61 615.18,-120.06 665.92,-110.02"/>
<polygon fill="grey" stroke="grey" stroke-width="2" points="666.76,-113.43 675.9,-108.05 665.41,-106.56 666.76,-113.43"/>
</g>
<!-- 18&#45;&gt;23 -->
<g id="edge31" class="edge">
<title>18&#45;&gt;23</title>
<path fill="none" stroke="grey" stroke-width="2" d="M361.9,-158.96C325.25,-154.51 278,-141.99 253.5,-108 244.14,-95.02 245.46,-85.83 253.5,-72 261.09,-58.94 273.23,-48.84 286.26,-41.12"/>
<polygon fill="grey" stroke="grey" stroke-width="2" points="288.28,-44.01 295.39,-36.16 284.93,-37.86 288.28,-44.01"/>
</g>
<!-- 19&#45;&gt;20 -->
<g id="edge26" class="edge">
<title>19&#45;&gt;20</title>
<path fill="none" stroke="grey" stroke-width="2" d="M503.88,-143.97C474.69,-134.14 437.81,-121.73 407.08,-111.39"/>
<polygon fill="grey" stroke="grey" stroke-width="2" points="407.94,-107.98 397.34,-108.11 405.7,-114.62 407.94,-107.98"/>
</g>
<!-- 19&#45;&gt;21 -->
<g id="edge28" class="edge">
<title>19&#45;&gt;21</title>
<path fill="none" stroke="grey" stroke-width="2" d="M551.53,-143.7C550.21,-135.98 548.62,-126.71 547.15,-118.11"/>
<polygon fill="grey" stroke="grey" stroke-width="2" points="550.57,-117.37 545.43,-108.1 543.67,-118.55 550.57,-117.37"/>
</g>
<!-- 19&#45;&gt;22 -->
<g id="edge30" class="edge">
<title>19&#45;&gt;22</title>
<path fill="none" stroke="grey" stroke-width="2" d="M605.12,-143.97C634.31,-134.14 671.19,-121.73 701.92,-111.39"/>
<polygon fill="grey" stroke="grey" stroke-width="2" points="703.3,-114.62 711.66,-108.11 701.06,-107.98 703.3,-114.62"/>
</g>
<!-- 19&#45;&gt;23 -->
<g id="edge32" class="edge">
<title>19&#45;&gt;23</title>
<path fill="none" stroke="grey" stroke-width="2" d="M605.06,-160.4C687.42,-158.23 844.88,-148.73 879.5,-108 889.86,-95.81 890.24,-83.86 879.5,-72 848.94,-38.25 553.19,-25.12 415.89,-20.81"/>
<polygon fill="grey" stroke="grey" stroke-width="2" points="415.99,-17.31 405.89,-20.51 415.77,-24.31 415.99,-17.31"/>
</g>
<!-- 20&#45;&gt;23 -->
<g id="edge33" class="edge">
<title>20&#45;&gt;23</title>
<path fill="none" stroke="grey" stroke-width="2" d="M346.5,-71.7C346.5,-63.98 346.5,-54.71 346.5,-46.11"/>
<polygon fill="grey" stroke="grey" stroke-width="2" points="350,-46.1 346.5,-36.1 343,-46.1 350,-46.1"/>
</g>
<!-- 21&#45;&gt;23 -->
<g id="edge34" class="edge">
<title>21&#45;&gt;23</title>
<path fill="none" stroke="grey" stroke-width="2" d="M494.8,-71.97C467.42,-62.19 432.84,-49.84 403.97,-39.52"/>
<polygon fill="grey" stroke="grey" stroke-width="2" points="405,-36.18 394.41,-36.11 402.65,-42.77 405,-36.18"/>
</g>
<!-- 22&#45;&gt;23 -->
<g id="edge35" class="edge">
<title>22&#45;&gt;23</title>
<path fill="none" stroke="grey" stroke-width="2" d="M661.27,-71.97C585.09,-59.15 482.7,-41.92 415.68,-30.64"/>
<polygon fill="grey" stroke="grey" stroke-width="2" points="416.09,-27.16 405.65,-28.95 414.93,-34.06 416.09,-27.16"/>
</g>
</g>
</svg>
