<?xml version="1.0" encoding="UTF-8" standalone="no"?>
<!DOCTYPE svg PUBLIC "-//W3C//DTD SVG 1.1//EN"
 "http://www.w3.org/Graphics/SVG/1.1/DTD/svg11.dtd">
<!-- Generated by graphviz version 3.0.0 (20220315.2325)
 -->
<!-- Title: snakemake_dag Pages: 1 -->
<svg width="676pt" height="431pt"
 viewBox="0.00 0.00 973.50 620.00" xmlns="http://www.w3.org/2000/svg" xmlns:xlink="http://www.w3.org/1999/xlink">
<g id="graph0" class="graph" transform="scale(0.694444 0.694444) rotate(0) translate(4 616)">
<title>snakemake_dag</title>
<polygon fill="white" stroke="transparent" points="-4,4 -4,-616 969.5,-616 969.5,4 -4,4"/>
<!-- 0 -->
<g id="node1" class="node">
<title>0</title>
<path fill="none" stroke="#5692d8" stroke-width="2" d="M106.5,-468C106.5,-468 24.5,-468 24.5,-468 18.5,-468 12.5,-462 12.5,-456 12.5,-456 12.5,-444 12.5,-444 12.5,-438 18.5,-432 24.5,-432 24.5,-432 106.5,-432 106.5,-432 112.5,-432 118.5,-438 118.5,-444 118.5,-444 118.5,-456 118.5,-456 118.5,-462 112.5,-468 106.5,-468"/>
<text text-anchor="middle" x="65.5" y="-447.5" font-family="sans" font-size="10.00">raw_report_merge</text>
</g>
<!-- 16 -->
<g id="node17" class="node">
<title>16</title>
<path fill="none" stroke="#d87556" stroke-width="2" d="M306,-252C306,-252 221,-252 221,-252 215,-252 209,-246 209,-240 209,-240 209,-228 209,-228 209,-222 215,-216 221,-216 221,-216 306,-216 306,-216 312,-216 318,-222 318,-228 318,-228 318,-240 318,-240 318,-246 312,-252 306,-252"/>
<text text-anchor="middle" x="263.5" y="-231.5" font-family="sans" font-size="10.00">qcreport_summary</text>
</g>
<!-- 0&#45;&gt;16 -->
<g id="edge19" class="edge">
<title>0&#45;&gt;16</title>
<path fill="none" stroke="grey" stroke-width="2" d="M69.75,-431.92C75.09,-412.94 85.64,-382.07 102.5,-360 135.97,-316.19 188.33,-279.41 224.19,-257.32"/>
<polygon fill="grey" stroke="grey" stroke-width="2" points="226.19,-260.2 232.93,-252.03 222.57,-254.22 226.19,-260.2"/>
</g>
<!-- 1 -->
<g id="node2" class="node">
<title>1</title>
<path fill="none" stroke="#d87d56" stroke-width="2" d="M57,-540C57,-540 12,-540 12,-540 6,-540 0,-534 0,-528 0,-528 0,-516 0,-516 0,-510 6,-504 12,-504 12,-504 57,-504 57,-504 63,-504 69,-510 69,-516 69,-516 69,-528 69,-528 69,-534 63,-540 57,-540"/>
<text text-anchor="middle" x="34.5" y="-519.5" font-family="sans" font-size="10.00">raw_report</text>
</g>
<!-- 1&#45;&gt;0 -->
<g id="edge1" class="edge">
<title>1&#45;&gt;0</title>
<path fill="none" stroke="grey" stroke-width="2" d="M42.16,-503.7C45.69,-495.73 49.96,-486.1 53.87,-477.26"/>
<polygon fill="grey" stroke="grey" stroke-width="2" points="57.08,-478.67 57.93,-468.1 50.68,-475.83 57.08,-478.67"/>
</g>
<!-- 2 -->
<g id="node3" class="node">
<title>2</title>
<path fill="none" stroke="#61d856" stroke-width="2" stroke-dasharray="5,2" d="M161.5,-612C161.5,-612 69.5,-612 69.5,-612 63.5,-612 57.5,-606 57.5,-600 57.5,-600 57.5,-588 57.5,-588 57.5,-582 63.5,-576 69.5,-576 69.5,-576 161.5,-576 161.5,-576 167.5,-576 173.5,-582 173.5,-588 173.5,-588 173.5,-600 173.5,-600 173.5,-606 167.5,-612 161.5,-612"/>
<text text-anchor="middle" x="115.5" y="-597" font-family="sans" font-size="10.00">prepare_short_reads</text>
<text text-anchor="middle" x="115.5" y="-586" font-family="sans" font-size="10.00">sample: bg1_ag1_s1</text>
</g>
<!-- 2&#45;&gt;1 -->
<g id="edge3" class="edge">
<title>2&#45;&gt;1</title>
<path fill="none" stroke="grey" stroke-width="2" d="M95.48,-575.7C85.37,-566.97 72.96,-556.24 61.98,-546.75"/>
<polygon fill="grey" stroke="grey" stroke-width="2" points="64.15,-543.99 54.29,-540.1 59.57,-549.29 64.15,-543.99"/>
</g>
<!-- 5 -->
<g id="node6" class="node">
<title>5</title>
<path fill="none" stroke="#567bd8" stroke-width="2" d="M254.5,-540C254.5,-540 186.5,-540 186.5,-540 180.5,-540 174.5,-534 174.5,-528 174.5,-528 174.5,-516 174.5,-516 174.5,-510 180.5,-504 186.5,-504 186.5,-504 254.5,-504 254.5,-504 260.5,-504 266.5,-510 266.5,-516 266.5,-516 266.5,-528 266.5,-528 266.5,-534 260.5,-540 254.5,-540"/>
<text text-anchor="middle" x="220.5" y="-519.5" font-family="sans" font-size="10.00">trimming_fastp</text>
</g>
<!-- 2&#45;&gt;5 -->
<g id="edge5" class="edge">
<title>2&#45;&gt;5</title>
<path fill="none" stroke="grey" stroke-width="2" d="M141.19,-575.88C154.79,-566.81 171.67,-555.55 186.36,-545.76"/>
<polygon fill="grey" stroke="grey" stroke-width="2" points="188.34,-548.65 194.72,-540.19 184.45,-542.82 188.34,-548.65"/>
</g>
<!-- 3 -->
<g id="node4" class="node">
<title>3</title>
<path fill="none" stroke="#d87d56" stroke-width="2" d="M144,-540C144,-540 99,-540 99,-540 93,-540 87,-534 87,-528 87,-528 87,-516 87,-516 87,-510 93,-504 99,-504 99,-504 144,-504 144,-504 150,-504 156,-510 156,-516 156,-516 156,-528 156,-528 156,-534 150,-540 144,-540"/>
<text text-anchor="middle" x="121.5" y="-519.5" font-family="sans" font-size="10.00">raw_report</text>
</g>
<!-- 3&#45;&gt;0 -->
<g id="edge2" class="edge">
<title>3&#45;&gt;0</title>
<path fill="none" stroke="grey" stroke-width="2" d="M107.66,-503.7C101.01,-495.39 92.92,-485.28 85.61,-476.14"/>
<polygon fill="grey" stroke="grey" stroke-width="2" points="88.16,-473.73 79.18,-468.1 82.7,-478.1 88.16,-473.73"/>
</g>
<!-- 4 -->
<g id="node5" class="node">
<title>4</title>
<path fill="none" stroke="#61d856" stroke-width="2" stroke-dasharray="5,2" d="M335.5,-612C335.5,-612 243.5,-612 243.5,-612 237.5,-612 231.5,-606 231.5,-600 231.5,-600 231.5,-588 231.5,-588 231.5,-582 237.5,-576 243.5,-576 243.5,-576 335.5,-576 335.5,-576 341.5,-576 347.5,-582 347.5,-588 347.5,-588 347.5,-600 347.5,-600 347.5,-606 341.5,-612 335.5,-612"/>
<text text-anchor="middle" x="289.5" y="-597" font-family="sans" font-size="10.00">prepare_short_reads</text>
<text text-anchor="middle" x="289.5" y="-586" font-family="sans" font-size="10.00">sample: bg1_ag1_s2</text>
</g>
<!-- 4&#45;&gt;3 -->
<g id="edge4" class="edge">
<title>4&#45;&gt;3</title>
<path fill="none" stroke="grey" stroke-width="2" d="M248.4,-575.88C223.34,-565.43 191.3,-552.08 165.69,-541.41"/>
<polygon fill="grey" stroke="grey" stroke-width="2" points="166.8,-538.08 156.22,-537.47 164.1,-544.54 166.8,-538.08"/>
</g>
<!-- 6 -->
<g id="node7" class="node">
<title>6</title>
<path fill="none" stroke="#567bd8" stroke-width="2" d="M364.5,-540C364.5,-540 296.5,-540 296.5,-540 290.5,-540 284.5,-534 284.5,-528 284.5,-528 284.5,-516 284.5,-516 284.5,-510 290.5,-504 296.5,-504 296.5,-504 364.5,-504 364.5,-504 370.5,-504 376.5,-510 376.5,-516 376.5,-516 376.5,-528 376.5,-528 376.5,-534 370.5,-540 364.5,-540"/>
<text text-anchor="middle" x="330.5" y="-519.5" font-family="sans" font-size="10.00">trimming_fastp</text>
</g>
<!-- 4&#45;&gt;6 -->
<g id="edge6" class="edge">
<title>4&#45;&gt;6</title>
<path fill="none" stroke="grey" stroke-width="2" d="M299.63,-575.7C304.35,-567.64 310.06,-557.89 315.28,-548.98"/>
<polygon fill="grey" stroke="grey" stroke-width="2" points="318.45,-550.5 320.48,-540.1 312.41,-546.96 318.45,-550.5"/>
</g>
<!-- 8 -->
<g id="node9" class="node">
<title>8</title>
<path fill="none" stroke="#d85656" stroke-width="2" d="M220.5,-468C220.5,-468 148.5,-468 148.5,-468 142.5,-468 136.5,-462 136.5,-456 136.5,-456 136.5,-444 136.5,-444 136.5,-438 142.5,-432 148.5,-432 148.5,-432 220.5,-432 220.5,-432 226.5,-432 232.5,-438 232.5,-444 232.5,-444 232.5,-456 232.5,-456 232.5,-462 226.5,-468 220.5,-468"/>
<text text-anchor="middle" x="184.5" y="-447.5" font-family="sans" font-size="10.00">trimming_report</text>
</g>
<!-- 5&#45;&gt;8 -->
<g id="edge9" class="edge">
<title>5&#45;&gt;8</title>
<path fill="none" stroke="grey" stroke-width="2" d="M211.6,-503.7C207.5,-495.73 202.55,-486.1 198.01,-477.26"/>
<polygon fill="grey" stroke="grey" stroke-width="2" points="200.98,-475.4 193.3,-468.1 194.76,-478.6 200.98,-475.4"/>
</g>
<!-- 10 -->
<g id="node11" class="node">
<title>10</title>
<path fill="none" stroke="#56d86b" stroke-width="2" d="M448,-468C448,-468 377,-468 377,-468 371,-468 365,-462 365,-456 365,-456 365,-444 365,-444 365,-438 371,-432 377,-432 377,-432 448,-432 448,-432 454,-432 460,-438 460,-444 460,-444 460,-456 460,-456 460,-462 454,-468 448,-468"/>
<text text-anchor="middle" x="412.5" y="-447.5" font-family="sans" font-size="10.00">rmhost_bowtie2</text>
</g>
<!-- 5&#45;&gt;10 -->
<g id="edge11" class="edge">
<title>5&#45;&gt;10</title>
<path fill="none" stroke="grey" stroke-width="2" d="M266.98,-504.05C293.9,-494.24 327.98,-481.82 356.39,-471.46"/>
<polygon fill="grey" stroke="grey" stroke-width="2" points="357.59,-474.75 365.78,-468.03 355.19,-468.17 357.59,-474.75"/>
</g>
<!-- 9 -->
<g id="node10" class="node">
<title>9</title>
<path fill="none" stroke="#d85656" stroke-width="2" d="M334.5,-468C334.5,-468 262.5,-468 262.5,-468 256.5,-468 250.5,-462 250.5,-456 250.5,-456 250.5,-444 250.5,-444 250.5,-438 256.5,-432 262.5,-432 262.5,-432 334.5,-432 334.5,-432 340.5,-432 346.5,-438 346.5,-444 346.5,-444 346.5,-456 346.5,-456 346.5,-462 340.5,-468 334.5,-468"/>
<text text-anchor="middle" x="298.5" y="-447.5" font-family="sans" font-size="10.00">trimming_report</text>
</g>
<!-- 6&#45;&gt;9 -->
<g id="edge10" class="edge">
<title>6&#45;&gt;9</title>
<path fill="none" stroke="grey" stroke-width="2" d="M322.59,-503.7C318.95,-495.73 314.55,-486.1 310.51,-477.26"/>
<polygon fill="grey" stroke="grey" stroke-width="2" points="313.66,-475.74 306.32,-468.1 307.29,-478.65 313.66,-475.74"/>
</g>
<!-- 12 -->
<g id="node13" class="node">
<title>12</title>
<path fill="none" stroke="#56d86b" stroke-width="2" d="M622,-468C622,-468 551,-468 551,-468 545,-468 539,-462 539,-456 539,-456 539,-444 539,-444 539,-438 545,-432 551,-432 551,-432 622,-432 622,-432 628,-432 634,-438 634,-444 634,-444 634,-456 634,-456 634,-462 628,-468 622,-468"/>
<text text-anchor="middle" x="586.5" y="-447.5" font-family="sans" font-size="10.00">rmhost_bowtie2</text>
</g>
<!-- 6&#45;&gt;12 -->
<g id="edge13" class="edge">
<title>6&#45;&gt;12</title>
<path fill="none" stroke="grey" stroke-width="2" d="M376.56,-508.4C419.21,-496.74 482.79,-479.36 528.81,-466.78"/>
<polygon fill="grey" stroke="grey" stroke-width="2" points="529.91,-470.1 538.64,-464.09 528.07,-463.35 529.91,-470.1"/>
</g>
<!-- 7 -->
<g id="node8" class="node">
<title>7</title>
<path fill="none" stroke="#d85e56" stroke-width="2" d="M233,-396C233,-396 124,-396 124,-396 118,-396 112,-390 112,-384 112,-384 112,-372 112,-372 112,-366 118,-360 124,-360 124,-360 233,-360 233,-360 239,-360 245,-366 245,-372 245,-372 245,-384 245,-384 245,-390 239,-396 233,-396"/>
<text text-anchor="middle" x="178.5" y="-375.5" font-family="sans" font-size="10.00">trimming_report_merge</text>
</g>
<!-- 7&#45;&gt;16 -->
<g id="edge20" class="edge">
<title>7&#45;&gt;16</title>
<path fill="none" stroke="grey" stroke-width="2" d="M188.75,-359.87C203.49,-335.24 230.79,-289.64 248.01,-260.88"/>
<polygon fill="grey" stroke="grey" stroke-width="2" points="251.08,-262.57 253.21,-252.19 245.07,-258.97 251.08,-262.57"/>
</g>
<!-- 8&#45;&gt;7 -->
<g id="edge7" class="edge">
<title>8&#45;&gt;7</title>
<path fill="none" stroke="grey" stroke-width="2" d="M183.02,-431.7C182.36,-423.98 181.56,-414.71 180.82,-406.11"/>
<polygon fill="grey" stroke="grey" stroke-width="2" points="184.31,-405.77 179.97,-396.1 177.33,-406.37 184.31,-405.77"/>
</g>
<!-- 9&#45;&gt;7 -->
<g id="edge8" class="edge">
<title>9&#45;&gt;7</title>
<path fill="none" stroke="grey" stroke-width="2" d="M269.14,-431.88C253.45,-422.72 233.94,-411.34 217.05,-401.48"/>
<polygon fill="grey" stroke="grey" stroke-width="2" points="218.37,-398.21 207.97,-396.19 214.84,-404.25 218.37,-398.21"/>
</g>
<!-- 14 -->
<g id="node15" class="node">
<title>14</title>
<path fill="none" stroke="#d8ac56" stroke-width="2" d="M337.5,-396C337.5,-396 275.5,-396 275.5,-396 269.5,-396 263.5,-390 263.5,-384 263.5,-384 263.5,-372 263.5,-372 263.5,-366 269.5,-360 275.5,-360 275.5,-360 337.5,-360 337.5,-360 343.5,-360 349.5,-366 349.5,-372 349.5,-372 349.5,-384 349.5,-384 349.5,-390 343.5,-396 337.5,-396"/>
<text text-anchor="middle" x="306.5" y="-375.5" font-family="sans" font-size="10.00">rmhost_report</text>
</g>
<!-- 10&#45;&gt;14 -->
<g id="edge17" class="edge">
<title>10&#45;&gt;14</title>
<path fill="none" stroke="grey" stroke-width="2" d="M386.57,-431.88C372.84,-422.81 355.79,-411.55 340.96,-401.76"/>
<polygon fill="grey" stroke="grey" stroke-width="2" points="342.8,-398.78 332.53,-396.19 338.95,-404.62 342.8,-398.78"/>
</g>
<!-- 18 -->
<g id="node19" class="node">
<title>18</title>
<path fill="none" stroke="#56d892" stroke-width="2" d="M513.5,-396C513.5,-396 417.5,-396 417.5,-396 411.5,-396 405.5,-390 405.5,-384 405.5,-384 405.5,-372 405.5,-372 405.5,-366 411.5,-360 417.5,-360 417.5,-360 513.5,-360 513.5,-360 519.5,-360 525.5,-366 525.5,-372 525.5,-372 525.5,-384 525.5,-384 525.5,-390 519.5,-396 513.5,-396"/>
<text text-anchor="middle" x="465.5" y="-375.5" font-family="sans" font-size="10.00">profiling_metaphlan3</text>
</g>
<!-- 10&#45;&gt;18 -->
<g id="edge23" class="edge">
<title>10&#45;&gt;18</title>
<path fill="none" stroke="grey" stroke-width="2" d="M425.6,-431.7C431.89,-423.39 439.55,-413.28 446.46,-404.14"/>
<polygon fill="grey" stroke="grey" stroke-width="2" points="449.3,-406.19 452.55,-396.1 443.72,-401.96 449.3,-406.19"/>
</g>
<!-- 21 -->
<g id="node22" class="node">
<title>21</title>
<path fill="none" stroke="#565bd8" stroke-width="2" d="M507,-324C507,-324 424,-324 424,-324 418,-324 412,-318 412,-312 412,-312 412,-300 412,-300 412,-294 418,-288 424,-288 424,-288 507,-288 507,-288 513,-288 519,-294 519,-300 519,-300 519,-312 519,-312 519,-318 513,-324 507,-324"/>
<text text-anchor="middle" x="465.5" y="-303.5" font-family="sans" font-size="10.00">profiling_humann3</text>
</g>
<!-- 10&#45;&gt;21 -->
<g id="edge30" class="edge">
<title>10&#45;&gt;21</title>
<path fill="none" stroke="grey" stroke-width="2" d="M403.38,-431.73C394.89,-413.12 385.12,-383.09 396.5,-360 402.46,-347.91 412.65,-337.8 423.4,-329.77"/>
<polygon fill="grey" stroke="grey" stroke-width="2" points="425.44,-332.61 431.66,-324.04 421.45,-326.86 425.44,-332.61"/>
</g>
<!-- 11 -->
<g id="node12" class="node">
<title>11</title>
<path fill="none" stroke="#56d873" stroke-width="2" stroke-dasharray="5,2" d="M574.5,-540C574.5,-540 470.5,-540 470.5,-540 464.5,-540 458.5,-534 458.5,-528 458.5,-528 458.5,-516 458.5,-516 458.5,-510 464.5,-504 470.5,-504 470.5,-504 574.5,-504 574.5,-504 580.5,-504 586.5,-510 586.5,-516 586.5,-516 586.5,-528 586.5,-528 586.5,-534 580.5,-540 574.5,-540"/>
<text text-anchor="middle" x="522.5" y="-519.5" font-family="sans" font-size="10.00">rmhost_bowtie2_index</text>
</g>
<!-- 11&#45;&gt;10 -->
<g id="edge12" class="edge">
<title>11&#45;&gt;10</title>
<path fill="none" stroke="grey" stroke-width="2" d="M495.59,-503.88C481.34,-494.81 463.65,-483.55 448.26,-473.76"/>
<polygon fill="grey" stroke="grey" stroke-width="2" points="449.83,-470.61 439.51,-468.19 446.07,-476.51 449.83,-470.61"/>
</g>
<!-- 11&#45;&gt;12 -->
<g id="edge14" class="edge">
<title>11&#45;&gt;12</title>
<path fill="none" stroke="grey" stroke-width="2" d="M538.32,-503.7C546.07,-495.22 555.54,-484.86 564.02,-475.58"/>
<polygon fill="grey" stroke="grey" stroke-width="2" points="566.7,-477.85 570.86,-468.1 561.53,-473.12 566.7,-477.85"/>
</g>
<!-- 15 -->
<g id="node16" class="node">
<title>15</title>
<path fill="none" stroke="#d8ac56" stroke-width="2" d="M617.5,-396C617.5,-396 555.5,-396 555.5,-396 549.5,-396 543.5,-390 543.5,-384 543.5,-384 543.5,-372 543.5,-372 543.5,-366 549.5,-360 555.5,-360 555.5,-360 617.5,-360 617.5,-360 623.5,-360 629.5,-366 629.5,-372 629.5,-372 629.5,-384 629.5,-384 629.5,-390 623.5,-396 617.5,-396"/>
<text text-anchor="middle" x="586.5" y="-375.5" font-family="sans" font-size="10.00">rmhost_report</text>
</g>
<!-- 12&#45;&gt;15 -->
<g id="edge18" class="edge">
<title>12&#45;&gt;15</title>
<path fill="none" stroke="grey" stroke-width="2" d="M586.5,-431.7C586.5,-423.98 586.5,-414.71 586.5,-406.11"/>
<polygon fill="grey" stroke="grey" stroke-width="2" points="590,-406.1 586.5,-396.1 583,-406.1 590,-406.1"/>
</g>
<!-- 19 -->
<g id="node20" class="node">
<title>19</title>
<path fill="none" stroke="#56d892" stroke-width="2" d="M953.5,-396C953.5,-396 857.5,-396 857.5,-396 851.5,-396 845.5,-390 845.5,-384 845.5,-384 845.5,-372 845.5,-372 845.5,-366 851.5,-360 857.5,-360 857.5,-360 953.5,-360 953.5,-360 959.5,-360 965.5,-366 965.5,-372 965.5,-372 965.5,-384 965.5,-384 965.5,-390 959.5,-396 953.5,-396"/>
<text text-anchor="middle" x="905.5" y="-375.5" font-family="sans" font-size="10.00">profiling_metaphlan3</text>
</g>
<!-- 12&#45;&gt;19 -->
<g id="edge24" class="edge">
<title>12&#45;&gt;19</title>
<path fill="none" stroke="grey" stroke-width="2" d="M634.42,-438.82C683.84,-428.28 763.12,-411.25 831.5,-396 832.77,-395.72 834.04,-395.43 835.33,-395.14"/>
<polygon fill="grey" stroke="grey" stroke-width="2" points="836.35,-398.5 845.34,-392.89 834.81,-391.67 836.35,-398.5"/>
</g>
<!-- 23 -->
<g id="node24" class="node">
<title>23</title>
<path fill="none" stroke="#565bd8" stroke-width="2" d="M834,-324C834,-324 751,-324 751,-324 745,-324 739,-318 739,-312 739,-312 739,-300 739,-300 739,-294 745,-288 751,-288 751,-288 834,-288 834,-288 840,-288 846,-294 846,-300 846,-300 846,-312 846,-312 846,-318 840,-324 834,-324"/>
<text text-anchor="middle" x="792.5" y="-303.5" font-family="sans" font-size="10.00">profiling_humann3</text>
</g>
<!-- 12&#45;&gt;23 -->
<g id="edge33" class="edge">
<title>12&#45;&gt;23</title>
<path fill="none" stroke="grey" stroke-width="2" d="M634,-443.87C690.14,-436.71 778.48,-421.64 798.5,-396 812.07,-378.62 808.69,-353.03 803.01,-333.75"/>
<polygon fill="grey" stroke="grey" stroke-width="2" points="806.27,-332.45 799.82,-324.05 799.62,-334.64 806.27,-332.45"/>
</g>
<!-- 13 -->
<g id="node14" class="node">
<title>13</title>
<path fill="none" stroke="#b6d856" stroke-width="2" d="M355.5,-324C355.5,-324 257.5,-324 257.5,-324 251.5,-324 245.5,-318 245.5,-312 245.5,-312 245.5,-300 245.5,-300 245.5,-294 251.5,-288 257.5,-288 257.5,-288 355.5,-288 355.5,-288 361.5,-288 367.5,-294 367.5,-300 367.5,-300 367.5,-312 367.5,-312 367.5,-318 361.5,-324 355.5,-324"/>
<text text-anchor="middle" x="306.5" y="-303.5" font-family="sans" font-size="10.00">rmhost_report_merge</text>
</g>
<!-- 13&#45;&gt;16 -->
<g id="edge21" class="edge">
<title>13&#45;&gt;16</title>
<path fill="none" stroke="grey" stroke-width="2" d="M295.87,-287.7C290.87,-279.56 284.81,-269.69 279.29,-260.7"/>
<polygon fill="grey" stroke="grey" stroke-width="2" points="282.22,-258.79 274.01,-252.1 276.26,-262.46 282.22,-258.79"/>
</g>
<!-- 14&#45;&gt;13 -->
<g id="edge15" class="edge">
<title>14&#45;&gt;13</title>
<path fill="none" stroke="grey" stroke-width="2" d="M306.5,-359.7C306.5,-351.98 306.5,-342.71 306.5,-334.11"/>
<polygon fill="grey" stroke="grey" stroke-width="2" points="310,-334.1 306.5,-324.1 303,-334.1 310,-334.1"/>
</g>
<!-- 15&#45;&gt;13 -->
<g id="edge16" class="edge">
<title>15&#45;&gt;13</title>
<path fill="none" stroke="grey" stroke-width="2" d="M543.46,-362.61C540.44,-361.7 537.43,-360.82 534.5,-360 482.46,-345.48 422.98,-331.74 377.83,-321.9"/>
<polygon fill="grey" stroke="grey" stroke-width="2" points="378.35,-318.43 367.83,-319.73 376.87,-325.27 378.35,-318.43"/>
</g>
<!-- 17 -->
<g id="node18" class="node">
<title>17</title>
<path fill="none" stroke="#88d856" stroke-width="2" d="M292,-108C292,-108 235,-108 235,-108 229,-108 223,-102 223,-96 223,-96 223,-84 223,-84 223,-78 229,-72 235,-72 235,-72 292,-72 292,-72 298,-72 304,-78 304,-84 304,-84 304,-96 304,-96 304,-102 298,-108 292,-108"/>
<text text-anchor="middle" x="263.5" y="-87.5" font-family="sans" font-size="10.00">qcreport_plot</text>
</g>
<!-- 16&#45;&gt;17 -->
<g id="edge22" class="edge">
<title>16&#45;&gt;17</title>
<path fill="none" stroke="grey" stroke-width="2" d="M263.5,-215.87C263.5,-191.67 263.5,-147.21 263.5,-118.39"/>
<polygon fill="grey" stroke="grey" stroke-width="2" points="267,-118.19 263.5,-108.19 260,-118.19 267,-118.19"/>
</g>
<!-- 27 -->
<g id="node28" class="node">
<title>27</title>
<path fill="none" stroke="#70d856" stroke-width="2" d="M402,-36C402,-36 301,-36 301,-36 295,-36 289,-30 289,-24 289,-24 289,-12 289,-12 289,-6 295,0 301,0 301,0 402,0 402,0 408,0 414,-6 414,-12 414,-12 414,-24 414,-24 414,-30 408,-36 402,-36"/>
<text text-anchor="middle" x="351.5" y="-15.5" font-family="sans" font-size="10.00">profiling_humann3_all</text>
</g>
<!-- 16&#45;&gt;27 -->
<g id="edge40" class="edge">
<title>16&#45;&gt;27</title>
<path fill="none" stroke="grey" stroke-width="2" d="M270.55,-215.85C285.87,-178.6 322.28,-90.07 340.59,-45.54"/>
<polygon fill="grey" stroke="grey" stroke-width="2" points="343.85,-46.81 344.41,-36.23 337.37,-44.15 343.85,-46.81"/>
</g>
<!-- 17&#45;&gt;27 -->
<g id="edge41" class="edge">
<title>17&#45;&gt;27</title>
<path fill="none" stroke="grey" stroke-width="2" d="M285.25,-71.7C296.34,-62.88 309.97,-52.03 321.99,-42.47"/>
<polygon fill="grey" stroke="grey" stroke-width="2" points="324.35,-45.07 330,-36.1 319.99,-39.59 324.35,-45.07"/>
</g>
<!-- 18&#45;&gt;21 -->
<g id="edge31" class="edge">
<title>18&#45;&gt;21</title>
<path fill="none" stroke="grey" stroke-width="2" d="M465.5,-359.7C465.5,-351.98 465.5,-342.71 465.5,-334.11"/>
<polygon fill="grey" stroke="grey" stroke-width="2" points="469,-334.1 465.5,-324.1 462,-334.1 469,-334.1"/>
</g>
<!-- 19&#45;&gt;23 -->
<g id="edge34" class="edge">
<title>19&#45;&gt;23</title>
<path fill="none" stroke="grey" stroke-width="2" d="M877.86,-359.88C863.08,-350.72 844.71,-339.34 828.8,-329.48"/>
<polygon fill="grey" stroke="grey" stroke-width="2" points="830.59,-326.48 820.25,-324.19 826.91,-332.43 830.59,-326.48"/>
</g>
<!-- 20 -->
<g id="node21" class="node">
<title>20</title>
<path fill="none" stroke="#d8d356" stroke-width="2" d="M543,-180C543,-180 436,-180 436,-180 430,-180 424,-174 424,-168 424,-168 424,-156 424,-156 424,-150 430,-144 436,-144 436,-144 543,-144 543,-144 549,-144 555,-150 555,-156 555,-156 555,-168 555,-168 555,-174 549,-180 543,-180"/>
<text text-anchor="middle" x="489.5" y="-159.5" font-family="sans" font-size="10.00">profiling_humann3_join</text>
</g>
<!-- 26 -->
<g id="node27" class="node">
<title>26</title>
<path fill="none" stroke="#d88556" stroke-width="2" d="M568.5,-108C568.5,-108 410.5,-108 410.5,-108 404.5,-108 398.5,-102 398.5,-96 398.5,-96 398.5,-84 398.5,-84 398.5,-78 404.5,-72 410.5,-72 410.5,-72 568.5,-72 568.5,-72 574.5,-72 580.5,-78 580.5,-84 580.5,-84 580.5,-96 580.5,-96 580.5,-102 574.5,-108 568.5,-108"/>
<text text-anchor="middle" x="489.5" y="-87.5" font-family="sans" font-size="10.00">profiling_humann3_split_stratified</text>
</g>
<!-- 20&#45;&gt;26 -->
<g id="edge37" class="edge">
<title>20&#45;&gt;26</title>
<path fill="none" stroke="grey" stroke-width="2" d="M489.5,-143.7C489.5,-135.98 489.5,-126.71 489.5,-118.11"/>
<polygon fill="grey" stroke="grey" stroke-width="2" points="493,-118.1 489.5,-108.1 486,-118.1 493,-118.1"/>
</g>
<!-- 20&#45;&gt;27 -->
<g id="edge38" class="edge">
<title>20&#45;&gt;27</title>
<path fill="none" stroke="grey" stroke-width="2" d="M442.02,-143.88C423.72,-135.38 403.8,-123.55 389.5,-108 373.4,-90.49 363.49,-65.13 357.84,-45.96"/>
<polygon fill="grey" stroke="grey" stroke-width="2" points="361.21,-45.02 355.2,-36.3 354.46,-46.87 361.21,-45.02"/>
</g>
<!-- 21&#45;&gt;20 -->
<g id="edge25" class="edge">
<title>21&#45;&gt;20</title>
<path fill="none" stroke="grey" stroke-width="2" d="M430.33,-287.94C416.52,-279.25 402.15,-267.26 394.5,-252 387.33,-237.7 386.4,-229.8 394.5,-216 402.27,-202.77 414.67,-192.61 427.98,-184.89"/>
<polygon fill="grey" stroke="grey" stroke-width="2" points="429.65,-187.96 436.82,-180.16 426.35,-181.79 429.65,-187.96"/>
</g>
<!-- 24 -->
<g id="node25" class="node">
<title>24</title>
<path fill="none" stroke="#d8d356" stroke-width="2" d="M563,-252C563,-252 416,-252 416,-252 410,-252 404,-246 404,-240 404,-240 404,-228 404,-228 404,-222 410,-216 416,-216 416,-216 563,-216 563,-216 569,-216 575,-222 575,-228 575,-228 575,-240 575,-240 575,-246 569,-252 563,-252"/>
<text text-anchor="middle" x="489.5" y="-231.5" font-family="sans" font-size="10.00">profiling_humann3_postprocess</text>
</g>
<!-- 21&#45;&gt;24 -->
<g id="edge35" class="edge">
<title>21&#45;&gt;24</title>
<path fill="none" stroke="grey" stroke-width="2" d="M471.43,-287.7C474.11,-279.9 477.33,-270.51 480.3,-261.83"/>
<polygon fill="grey" stroke="grey" stroke-width="2" points="483.7,-262.7 483.64,-252.1 477.08,-260.43 483.7,-262.7"/>
</g>
<!-- 22 -->
<g id="node23" class="node">
<title>22</title>
<path fill="none" stroke="#56a2d8" stroke-width="2" d="M777.5,-396C777.5,-396 659.5,-396 659.5,-396 653.5,-396 647.5,-390 647.5,-384 647.5,-384 647.5,-372 647.5,-372 647.5,-366 653.5,-360 659.5,-360 659.5,-360 777.5,-360 777.5,-360 783.5,-360 789.5,-366 789.5,-372 789.5,-372 789.5,-384 789.5,-384 789.5,-390 783.5,-396 777.5,-396"/>
<text text-anchor="middle" x="718.5" y="-375.5" font-family="sans" font-size="10.00">profiling_humann3_config</text>
</g>
<!-- 22&#45;&gt;21 -->
<g id="edge29" class="edge">
<title>22&#45;&gt;21</title>
<path fill="none" stroke="grey" stroke-width="2" d="M656.93,-359.97C618.1,-349.22 568.06,-335.38 528.89,-324.54"/>
<polygon fill="grey" stroke="grey" stroke-width="2" points="529.75,-321.14 519.17,-321.85 527.88,-327.89 529.75,-321.14"/>
</g>
<!-- 22&#45;&gt;23 -->
<g id="edge32" class="edge">
<title>22&#45;&gt;23</title>
<path fill="none" stroke="grey" stroke-width="2" d="M736.79,-359.7C745.93,-351.05 757.14,-340.45 767.1,-331.03"/>
<polygon fill="grey" stroke="grey" stroke-width="2" points="769.56,-333.52 774.42,-324.1 764.75,-328.43 769.56,-333.52"/>
</g>
<!-- 23&#45;&gt;20 -->
<g id="edge26" class="edge">
<title>23&#45;&gt;20</title>
<path fill="none" stroke="grey" stroke-width="2" d="M794.02,-287.96C794.8,-267.84 792.74,-234.75 773.5,-216 744.51,-187.75 639.18,-174.05 565.3,-167.79"/>
<polygon fill="grey" stroke="grey" stroke-width="2" points="565.34,-164.28 555.09,-166.95 564.77,-171.26 565.34,-164.28"/>
</g>
<!-- 25 -->
<g id="node26" class="node">
<title>25</title>
<path fill="none" stroke="#d8d356" stroke-width="2" d="M752,-252C752,-252 605,-252 605,-252 599,-252 593,-246 593,-240 593,-240 593,-228 593,-228 593,-222 599,-216 605,-216 605,-216 752,-216 752,-216 758,-216 764,-222 764,-228 764,-228 764,-240 764,-240 764,-246 758,-252 752,-252"/>
<text text-anchor="middle" x="678.5" y="-231.5" font-family="sans" font-size="10.00">profiling_humann3_postprocess</text>
</g>
<!-- 23&#45;&gt;25 -->
<g id="edge36" class="edge">
<title>23&#45;&gt;25</title>
<path fill="none" stroke="grey" stroke-width="2" d="M764.61,-287.88C749.71,-278.72 731.17,-267.34 715.12,-257.48"/>
<polygon fill="grey" stroke="grey" stroke-width="2" points="716.85,-254.44 706.49,-252.19 713.19,-260.41 716.85,-254.44"/>
</g>
<!-- 24&#45;&gt;20 -->
<g id="edge27" class="edge">
<title>24&#45;&gt;20</title>
<path fill="none" stroke="grey" stroke-width="2" d="M489.5,-215.7C489.5,-207.98 489.5,-198.71 489.5,-190.11"/>
<polygon fill="grey" stroke="grey" stroke-width="2" points="493,-190.1 489.5,-180.1 486,-190.1 493,-190.1"/>
</g>
<!-- 25&#45;&gt;20 -->
<g id="edge28" class="edge">
<title>25&#45;&gt;20</title>
<path fill="none" stroke="grey" stroke-width="2" d="M632.27,-215.88C605.97,-206.14 572.86,-193.87 545.14,-183.61"/>
<polygon fill="grey" stroke="grey" stroke-width="2" points="546.18,-180.26 535.58,-180.07 543.75,-186.82 546.18,-180.26"/>
</g>
<!-- 26&#45;&gt;27 -->
<g id="edge39" class="edge">
<title>26&#45;&gt;27</title>
<path fill="none" stroke="grey" stroke-width="2" d="M455.74,-71.88C437.28,-62.51 414.22,-50.81 394.48,-40.8"/>
<polygon fill="grey" stroke="grey" stroke-width="2" points="395.89,-37.59 385.39,-36.19 392.72,-43.83 395.89,-37.59"/>
</g>
</g>
</svg>
